<?xml version="1.0" encoding="UTF-8" standalone="no"?>
<!-- Created with Inkscape (http://www.inkscape.org/) -->

<svg
   xmlns:dc="http://purl.org/dc/elements/1.1/"
   xmlns:cc="http://creativecommons.org/ns#"
   xmlns:rdf="http://www.w3.org/1999/02/22-rdf-syntax-ns#"
   xmlns:svg="http://www.w3.org/2000/svg"
   xmlns="http://www.w3.org/2000/svg"
   xmlns:sodipodi="http://sodipodi.sourceforge.net/DTD/sodipodi-0.dtd"
   xmlns:inkscape="http://www.inkscape.org/namespaces/inkscape"
   id="svg2"
   version="1.1"
   inkscape:version="0.48.5 r10040"
   width="624.79767"
   height="130.78625"
   xml:space="preserve"
   sodipodi:docname="LOCATE Logo Horizontal (1).ai"><metadata
     id="metadata8"><rdf:RDF><cc:Work
         rdf:about=""><dc:format>image/svg+xml</dc:format><dc:type
           rdf:resource="http://purl.org/dc/dcmitype/StillImage" /><dc:title></dc:title></cc:Work></rdf:RDF></metadata><defs
     id="defs6"><clipPath
       clipPathUnits="userSpaceOnUse"
       id="clipPath16"><path
         d="M 0,150 580,150 580,0 0,0 0,150 z"
         id="path18"
         inkscape:connector-curvature="0" /></clipPath></defs><sodipodi:namedview
     pagecolor="#ffffff"
     bordercolor="#666666"
     borderopacity="1"
     objecttolerance="10"
     gridtolerance="10"
     guidetolerance="10"
     inkscape:pageopacity="0"
     inkscape:pageshadow="2"
     inkscape:window-width="640"
     inkscape:window-height="480"
     id="namedview4"
     showgrid="false"
     fit-margin-top="0"
     fit-margin-left="0"
     fit-margin-right="0"
     fit-margin-bottom="0"
     inkscape:zoom="0.5862069"
     inkscape:cx="324.811"
     inkscape:cy="62.09425"
     inkscape:window-x="710"
     inkscape:window-y="227"
     inkscape:window-maximized="0"
     inkscape:current-layer="g10" /><g
     id="g10"
     inkscape:groupmode="layer"
     inkscape:label="LOCATE Logo Horizontal (1)"
     transform="matrix(1.25,0,0,-1.25,-37.689,162.442)"><g
       id="g12"><g
         id="g14"
         clip-path="url(#clipPath16)"><g
           id="g20"
           transform="translate(39.2612,30.2676)"><path
             d="M 0,0 31.25,2.705 C 31.34,1.532 32.316,0.6 33.517,0.6 c 1.164,0 2.116,0.879 2.254,2.001 L 69.618,-0.686 C 69.615,-0.715 69.611,-0.745 69.61,-0.773 l -69.579,0.31 c 0,0.029 0.008,0.055 0.008,0.08 C 0.039,-0.251 0.012,-0.128 0,0 m 71.672,57.778 -0.002,0 c -0.699,0 -1.317,-0.321 -1.736,-0.815 l -1.215,1.48 1.995,16.709 c 0.064,-0.006 0.124,-0.018 0.19,-0.018 0.086,0 0.167,0.014 0.249,0.024 l 0.519,-17.38 z M 35.791,2.949 47.971,3.64 c 0.252,-0.937 1.103,-1.632 2.12,-1.632 1.045,0 1.918,0.729 2.144,1.703 L 69.707,-0.194 C 69.666,-0.352 69.638,-0.51 69.619,-0.674 L 35.782,2.709 c 0.004,0.054 0.015,0.111 0.015,0.167 0,0.025 -0.006,0.048 -0.006,0.073 M -0.385,1.512 19.53,12.639 31.517,3.954 C 31.341,3.63 31.232,3.268 31.232,2.876 c 0,-0.019 0.007,-0.039 0.007,-0.059 L -0.011,0.111 c -0.054,0.496 -0.175,0.966 -0.374,1.401 m -0.071,92.599 c 0.378,0.026 0.734,0.123 1.056,0.284 l 2.179,-5.899 c -0.698,-0.28 -1.195,-0.96 -1.195,-1.756 0,-0.734 0.43,-1.369 1.047,-1.681 L -0.876,54.698 c -0.297,0.09 -0.605,0.148 -0.924,0.179 l 1.344,39.234 z M 14.88,92.412 c -0.053,0.246 -0.262,0.435 -0.526,0.435 -0.226,0 -0.419,-0.136 -0.502,-0.33 L 2.061,96.186 c 0.026,0.105 0.046,0.21 0.061,0.318 L 38.807,95.14 14.88,92.412 z M 40.048,80.236 38.333,87.48 c 0.219,0.071 0.381,0.27 0.381,0.512 0,0.204 -0.118,0.373 -0.281,0.468 l 2.37,5.399 c 0.17,-0.101 0.356,-0.18 0.557,-0.218 L 41.034,80.422 C 40.69,80.4 40.363,80.336 40.048,80.236 m 25.764,-18.25 4.751,13.182 c 0.015,-0.002 0.03,-0.002 0.044,-0.004 l -1.945,-16.65 -2.85,3.472 z m 2.752,-4.308 -3.419,2.453 0.634,1.762 2.866,-3.518 -0.081,-0.697 z m 1.23,-0.883 -1.171,0.841 0.081,0.67 1.162,-1.425 c -0.023,-0.03 -0.049,-0.056 -0.072,-0.086 M 73.007,2.35 c -0.316,0 -0.619,-0.058 -0.911,-0.137 l -3.057,10.345 c 0.958,0.27 1.668,1.14 1.668,2.182 0,1.177 -0.905,2.136 -2.053,2.252 l 2.794,36.256 c 0.074,-0.006 0.146,-0.022 0.222,-0.022 0.01,0 0.02,0.003 0.032,0.003 L 73.944,2.205 C 73.646,2.289 73.334,2.35 73.007,2.35 M 50.522,6.36 50.63,6.953 70.242,0.935 C 70.002,0.604 69.824,0.229 69.713,-0.176 L 52.256,3.813 c 0.024,0.128 0.04,0.258 0.04,0.392 0,1.065 -0.765,1.955 -1.774,2.155 M 35.014,4.581 38.93,9.268 c 0.382,-0.47 0.957,-0.776 1.608,-0.776 0.704,0 1.326,0.354 1.702,0.894 L 48.28,5.451 C 48.033,5.097 47.887,4.668 47.887,4.205 c 0,-0.162 0.02,-0.318 0.054,-0.469 L 35.788,2.979 c -0.029,0.64 -0.322,1.207 -0.774,1.602 m -11.505,10.28 5.743,-1.466 3.452,-8.397 C 32.203,4.807 31.791,4.441 31.531,3.98 l -11.973,8.674 3.951,2.207 z m -7.328,0.239 1.624,1.22 5.58,-1.426 -3.91,-2.181 -3.294,2.387 z M -0.859,2.307 16.158,15.084 19.449,12.698 -0.438,1.607 c -0.12,0.247 -0.258,0.481 -0.421,0.7 m 4.346,82.54 c 0.084,0 0.164,0.013 0.245,0.024 L 6.015,70.796 -0.267,54.481 c -0.192,0.087 -0.394,0.152 -0.597,0.212 l 3.509,30.358 c 0.254,-0.125 0.538,-0.204 0.842,-0.204 m 10.36,7.251 -4.648,-2.453 -7.567,5.624 c 0.176,0.243 0.305,0.517 0.395,0.811 l 11.801,-3.67 c -0.008,-0.037 -0.022,-0.07 -0.022,-0.109 0,-0.073 0.015,-0.141 0.041,-0.203 M 39.678,95.107 25.012,90.43 14.895,92.26 c 0.001,0.015 0.008,0.026 0.008,0.041 0,0.002 -0.001,0.005 -0.001,0.009 l 23.986,2.827 0.79,-0.03 z m -1.512,-6.569 c -0.25,0 -0.452,-0.169 -0.519,-0.394 l -2.676,0.483 5.404,5.601 c 0.098,-0.117 0.208,-0.224 0.333,-0.312 l -2.369,-5.412 c -0.055,0.017 -0.112,0.034 -0.173,0.034 m -0.041,-9.573 -3.745,2.404 3.5,6.167 c 0.084,-0.052 0.178,-0.091 0.286,-0.091 0.025,0 0.046,0.012 0.072,0.016 l 1.773,-7.235 c -0.743,-0.243 -1.39,-0.681 -1.886,-1.261 M 68.424,17.018 c -0.147,0 -0.29,-0.016 -0.43,-0.045 l -1.523,15.032 c 0.715,0.149 1.255,0.783 1.255,1.542 0,0.67 -0.423,1.24 -1.016,1.467 l 4.019,18.42 c 0.219,-0.099 0.456,-0.159 0.708,-0.185 L 68.59,17.002 c -0.055,0.002 -0.109,0.016 -0.166,0.016 m 2.651,-15.268 -6.328,12.459 1.428,0.202 c 0.161,-1.098 1.103,-1.949 2.249,-1.949 0.209,0 0.407,0.038 0.598,0.09 L 72.011,2.185 C 71.676,2.082 71.357,1.944 71.075,1.75 M 51.627,12.358 58.394,13.313 70.831,1.55 C 70.615,1.371 70.42,1.174 70.255,0.949 l -19.62,6.036 0.992,5.373 z m -2.358,-4.952 -1.91,4.35 4.168,0.588 -0.995,-5.326 -1.263,0.388 z m 0.822,-1.004 c -0.125,0 -0.245,-0.016 -0.366,-0.036 L 49.286,7.367 50.525,6.985 50.411,6.371 c -0.104,0.015 -0.21,0.031 -0.32,0.031 M 42.312,9.508 49.153,7.41 49.614,6.348 C 49.07,6.228 48.605,5.906 48.293,5.469 l -6.007,3.992 c 0.01,0.016 0.015,0.031 0.026,0.047 m -8.213,-4.44 0.916,6.852 3.502,-0.897 c -0.035,-0.146 -0.057,-0.299 -0.057,-0.459 0,-0.463 0.158,-0.885 0.416,-1.23 l -3.89,-4.729 c -0.255,0.214 -0.554,0.377 -0.887,0.463 m 0.892,6.857 -0.92,-6.846 c -0.178,0.044 -0.362,0.075 -0.554,0.075 -0.283,0 -0.551,-0.058 -0.801,-0.152 l -3.391,8.371 5.666,-1.448 z m -7.23,5.312 8.586,4.795 -1.341,-9.997 -5.732,1.465 -1.513,3.737 z m -0.073,-0.04 1.512,-3.676 -5.551,1.419 4.039,2.257 z m -4.307,3.308 c 0.53,-0.38 1.176,-0.609 1.878,-0.609 0.432,0 0.843,0.088 1.22,0.241 l 1.177,-2.86 -4.13,-2.305 -5.606,1.433 5.461,4.1 z m -6.577,-3.812 5.904,4.47 c 0.187,-0.242 0.403,-0.46 0.653,-0.642 l -5.468,-4.11 -1.089,0.282 z m -1.379,-1.045 1.265,0.957 1.089,-0.278 -1.616,-1.215 -0.738,0.536 z M -1.387,2.916 15.403,15.631 16.141,15.096 -0.863,2.314 C -1.021,2.528 -1.194,2.73 -1.387,2.916 M 7.603,61 0.662,53.91 c -0.261,0.201 -0.538,0.377 -0.837,0.522 L 6.037,70.659 7.603,61 z m 1.261,17.047 2.515,-3.526 c -0.336,-0.24 -0.568,-0.615 -0.568,-1.057 0,-0.632 0.455,-1.138 1.05,-1.267 L 10.915,64.383 7.7,61.1 6.117,70.868 8.864,78.047 z M 3.966,84.915 8.826,78.1 6.095,71.006 3.845,84.883 c 0.042,0.01 0.08,0.022 0.121,0.032 m 7.582,2.913 -6.181,-0.872 c -0.02,0.169 -0.056,0.329 -0.116,0.482 l 3.972,2.105 2.325,-1.715 z m 2.56,3.99 -1.479,-3.839 -0.999,-0.139 -2.339,1.738 4.605,2.44 c 0.053,-0.084 0.123,-0.153 0.212,-0.2 m 8.897,-2.029 c -0.215,0.44 -0.66,0.75 -1.183,0.75 -0.532,0 -0.987,-0.316 -1.198,-0.769 l -5.755,2.359 c 0.002,0.008 0.002,0.016 0.004,0.023 l 9.996,-1.767 -1.864,-0.596 z m 14.63,-1.701 -2.97,0.223 0.281,0.291 2.697,-0.477 c -0.002,-0.012 -0.005,-0.023 -0.008,-0.037 m -5.033,-5.578 5.216,5.067 c 0.011,-0.007 0.024,-0.014 0.035,-0.022 l -3.496,-6.171 -1.755,1.126 z m -0.432,-4.987 -4.275,0.414 4.677,4.543 1.761,-1.136 -2.163,-3.821 z m 5.017,-0.485 -4.989,0.483 2.159,3.807 3.731,-2.406 c -0.444,-0.536 -0.767,-1.174 -0.901,-1.884 m 18.231,-3.124 -8.598,-3.343 -1.997,0.732 -0.956,1.676 c 0.763,0.593 1.324,1.434 1.533,2.41 l 9.994,-1.316 c 0,-0.007 -0.003,-0.011 -0.003,-0.018 0,-0.049 0.015,-0.094 0.027,-0.141 m 13.941,1.91 -8.37,-7.961 -4.731,5.768 c 0.131,0.098 0.221,0.248 0.221,0.424 0,0.02 -0.01,0.039 -0.012,0.06 l 12.386,2.711 c 0.073,-0.382 0.255,-0.722 0.506,-1.002 m -8.298,-8.049 8.372,7.965 c 0.274,-0.272 0.626,-0.467 1.017,-0.553 l -4.72,-13.099 -4.669,5.687 z m -1.312,-3.777 c 0.392,0.348 0.645,0.848 0.645,1.41 0,0.488 -0.19,0.928 -0.494,1.264 l 1.116,1.06 4.681,-5.738 -0.648,-1.796 -5.3,3.8 z M 61.75,51.039 58.862,63.55 c 0.299,0.059 0.568,0.194 0.799,0.374 l 5.348,-3.836 -3.259,-9.049 z m 5.887,-1.291 -4.185,-6.076 -1.656,7.166 3.309,9.183 3.444,-2.47 -0.912,-7.803 z m 2.699,3.916 -2.645,-3.84 0.917,7.685 1.129,-0.81 c -0.219,-0.349 -0.349,-0.757 -0.349,-1.197 0,-0.756 0.375,-1.424 0.948,-1.838 M 66.145,35.123 c -0.072,0 -0.142,-0.013 -0.212,-0.021 l 1.756,14.699 2.653,3.857 c 0.09,-0.064 0.188,-0.118 0.286,-0.17 L 66.673,35.025 c -0.166,0.06 -0.343,0.098 -0.528,0.098 M 66.948,16.461 56.723,30.695 c 0.604,0.522 0.993,1.284 0.993,2.141 0,0.16 -0.023,0.312 -0.048,0.467 l 6.906,0.136 c 0.056,-0.82 0.736,-1.47 1.571,-1.47 0.092,0 0.182,0.011 0.27,0.027 l 1.564,-15.025 c -0.391,-0.076 -0.739,-0.26 -1.031,-0.51 M 56.475,30.49 c 0.073,0.049 0.137,0.112 0.205,0.168 L 66.937,16.455 c -0.482,-0.42 -0.796,-1.029 -0.796,-1.715 0,-0.091 0.018,-0.176 0.027,-0.263 l -1.453,-0.207 -8.24,16.22 z m -3.668,-11.738 2.072,11.236 c 0.571,0.006 1.1,0.176 1.544,0.469 l 8.254,-16.195 -6.192,-0.88 -5.678,5.37 z m -0.024,-0.131 5.561,-5.261 -6.709,-0.956 1.148,6.217 z m -7.703,-1.676 3.736,5.428 3.896,-3.687 -1.176,-6.293 -4.194,-0.598 -2.262,5.15 z m -2.55,-5.836 c -0.119,0.433 -0.376,0.809 -0.722,1.079 l 3.22,4.681 2.219,-5.088 -4.717,-0.672 z m 0.008,-0.033 4.724,0.667 1.873,-4.296 -6.805,2.095 c 0.173,0.303 0.281,0.649 0.281,1.022 0,0.178 -0.029,0.347 -0.073,0.512 m -3.58,12.417 0.869,-10.992 c -0.619,-0.224 -1.096,-0.734 -1.279,-1.373 l -3.518,0.899 1.341,10.02 2.587,1.446 z m -2.019,2.806 1.752,0.6 0.261,-3.324 -2.569,-1.432 0.556,4.156 z m -8.444,-3.177 c 0,0.094 -0.019,0.178 -0.027,0.268 l 8.45,2.901 -0.559,-4.161 -8.63,-4.813 -1.159,2.861 c 1.131,0.504 1.925,1.632 1.925,2.944 M 14.673,17.236 c 0.038,0.164 0.062,0.333 0.062,0.507 0,0.564 -0.213,1.073 -0.554,1.473 l 7.926,3.197 c 0.101,-0.44 0.293,-0.843 0.554,-1.196 l -5.928,-4.507 -2.06,0.526 z m -0.35,-0.791 c 0.143,0.207 0.247,0.438 0.317,0.684 l 1.979,-0.506 -1.24,-0.943 -1.056,0.765 z M -2.145,3.491 -1.897,3.905 10.75,16.242 c 0.418,-0.469 1.022,-0.773 1.703,-0.773 0.764,0 1.438,0.38 1.852,0.957 L 15.358,15.663 -1.396,2.922 c -0.229,0.216 -0.479,0.404 -0.749,0.569 m -0.098,41.926 c 0.298,0 0.586,0.036 0.87,0.089 l 0.718,-19.912 c -0.736,-0.007 -1.333,-0.606 -1.333,-1.342 0,-0.649 0.466,-1.193 1.081,-1.318 L -3.881,4.117 c -0.077,0.011 -0.158,0.016 -0.237,0.024 l 1.641,41.3 c 0.08,-0.003 0.154,-0.024 0.234,-0.024 M 7.986,58.632 1.822,52.617 c -0.301,0.496 -0.69,0.926 -1.147,1.281 l 6.936,7.045 0.375,-2.311 z M 10.517,61.1 8.085,58.729 7.71,61.045 10.903,64.289 10.517,61.1 z m 4.894,7.767 1.258,-1.764 -6.057,-5.912 0.377,3.186 4.422,4.49 z m -3.273,3.274 c 0.284,0 0.535,0.111 0.75,0.262 L 15.367,68.93 11,64.471 l 0.916,7.715 c 0.075,-0.012 0.143,-0.045 0.222,-0.045 m -1.119,11.533 2.129,-0.85 -0.974,-8.043 c -0.012,0 -0.024,0.008 -0.036,0.008 -0.284,0 -0.532,-0.109 -0.746,-0.26 l -2.521,3.534 2.148,5.611 z m -5.79,2.312 5.749,-2.297 -2.145,-5.573 -4.853,6.803 c 0.56,0.152 1.019,0.546 1.249,1.067 m 7.115,1.254 -1.365,-3.545 -5.748,2.297 c 0.101,0.231 0.157,0.483 0.157,0.748 0,0.073 -0.013,0.141 -0.02,0.211 l 6.185,0.872 0.791,-0.583 z m 0.022,0.053 -0.73,0.543 0.992,0.139 -0.262,-0.682 z m 1.426,0.848 -0.211,-1.75 -1.186,0.88 0.272,0.709 1.125,0.161 z m 0.442,3.636 -0.441,-3.633 -1.125,-0.16 1.462,3.821 c 0.033,-0.015 0.069,-0.018 0.104,-0.028 m 6.286,-2.685 -3.517,-0.496 -2.359,3.252 c 0.078,0.05 0.141,0.114 0.186,0.195 l 5.756,-2.374 c -0.052,-0.143 -0.092,-0.291 -0.092,-0.452 0,-0.045 0.021,-0.084 0.026,-0.125 m 9.887,-5.172 -7.389,4.744 c 0.058,0.123 0.084,0.264 0.101,0.405 L 34.604,88.266 30.407,83.92 z m 7.286,3.81 -6.342,-4.417 -0.931,0.597 4.201,4.354 3.008,-0.209 c -0.003,-0.022 -0.014,-0.041 -0.014,-0.063 0,-0.096 0.033,-0.182 0.078,-0.262 m -6.334,-4.421 6.342,4.41 c 0.013,-0.022 0.026,-0.042 0.041,-0.061 l -5.223,-5.094 -1.16,0.745 z m -4.424,-5.28 c 0.015,0.109 0.034,0.217 0.034,0.33 0,0.545 -0.201,1.039 -0.523,1.432 l 0.298,0.309 4.581,3.184 1.163,-0.751 -4.701,-4.587 -0.852,0.083 z m 0.544,-0.383 -0.571,0.209 c 0.012,0.049 0.016,0.103 0.025,0.153 l 0.835,-0.079 -0.289,-0.283 z m 3.943,-1.443 -3.858,1.412 0.311,0.301 4.285,-0.411 -0.738,-1.302 z m 6.483,-2.371 -6.458,2.363 0.741,1.307 4.998,-0.481 c -0.046,-0.247 -0.078,-0.498 -0.078,-0.755 0,-0.911 0.301,-1.746 0.797,-2.434 m 4.408,-1.612 c 0.537,0.134 1.032,0.368 1.465,0.687 l 0.879,-1.546 -2.344,0.859 z m 3.106,-2.194 -2.223,-0.865 -1.011,3.019 c 0.019,0.004 0.035,0.011 0.054,0.017 l 2.45,-0.89 0.73,-1.281 z m 0.108,0.04 -0.674,1.18 1.917,-0.696 -1.243,-0.484 z m 7.141,-1.658 -2.043,-3.606 -1.905,-0.337 -3.178,5.574 1.271,0.497 5.855,-2.128 z m 2.956,5.214 -2.945,-5.194 -5.817,2.129 8.556,3.356 c 0.035,-0.121 0.107,-0.22 0.206,-0.291 m 4.204,-6.864 c -0.345,0.338 -0.816,0.549 -1.337,0.549 -0.064,0 -0.125,-0.014 -0.187,-0.02 l -2.141,6.277 c 0.022,0.013 0.042,0.031 0.063,0.044 l 4.719,-5.787 -1.117,-1.063 z m -0.161,-21.499 -2.796,4.905 1.372,13.375 c 0.083,-0.013 0.165,-0.027 0.248,-0.027 0.127,0 0.252,0.014 0.371,0.038 L 61.75,51.035 59.667,45.259 z m 2.208,-3.874 -2.134,3.746 2.054,5.703 1.653,-7.168 -1.573,-2.281 z m 3.526,-6.188 -3.515,6.17 1.568,2.279 1.947,-8.449 z m 0.118,-0.205 -0.112,0.196 -1.951,8.461 4.178,6.076 -1.708,-14.623 c -0.141,-0.02 -0.279,-0.053 -0.407,-0.11 m -8.356,-0.486 2.562,3.723 5.183,-3.713 c -0.214,-0.268 -0.345,-0.602 -0.345,-0.969 0,-0.02 0.004,-0.038 0.007,-0.057 l -6.902,-0.175 c -0.077,0.441 -0.252,0.845 -0.505,1.191 m -3.035,-4.411 c 0.224,-0.06 0.455,-0.101 0.696,-0.105 l -2.087,-11.172 -3.857,3.65 5.248,7.627 z m -8.366,-4.677 0.721,2.279 6.119,3.418 c 0.372,-0.486 0.894,-0.845 1.5,-1.011 l -5.246,-7.616 -3.094,2.93 z m -1.847,-5.82 1.808,5.703 3.069,-2.905 -3.729,-5.414 -1.148,2.616 z m -2.304,-7.271 2.273,7.166 1.127,-2.586 -3.234,-4.694 c -0.052,0.042 -0.108,0.079 -0.166,0.114 m -0.095,12.595 2.351,-5.391 -2.283,-7.189 c -0.308,0.181 -0.664,0.293 -1.046,0.293 -0.215,0 -0.42,-0.042 -0.616,-0.104 l -0.862,11.017 2.456,1.374 z m -1.117,2.563 1.089,-2.495 -2.435,-1.358 -0.259,3.302 1.605,0.551 z m -1.905,3.283 c 0.149,0.017 0.295,0.048 0.433,0.096 l 1.458,-3.343 -1.593,-0.549 -0.298,3.796 z m -0.942,0.108 c 0.221,-0.081 0.457,-0.132 0.705,-0.132 0.045,0 0.086,0.011 0.129,0.014 l 0.302,-3.824 -1.743,-0.6 0.607,4.542 z m -9.712,-5.827 0.817,1.377 7.644,5.73 c 0.2,-0.589 0.652,-1.056 1.232,-1.275 l -0.61,-4.555 -8.457,-2.92 c -0.054,0.615 -0.275,1.176 -0.626,1.643 M 12.453,20.023 c -0.384,0 -0.741,-0.105 -1.057,-0.272 l -0.563,1.805 4.31,5.87 7.179,-2.967 c -0.187,-0.407 -0.299,-0.857 -0.299,-1.337 0,-0.232 0.028,-0.458 0.074,-0.678 l -7.934,-3.207 c -0.419,0.478 -1.027,0.786 -1.71,0.786 M -0.873,5.612 l 9.934,13.53 1.231,-0.697 c -0.072,-0.222 -0.123,-0.456 -0.123,-0.702 0,-0.549 0.205,-1.048 0.532,-1.44 L -1.86,3.965 -0.873,5.612 z m -1.4,-2.052 c -0.023,0.015 -0.05,0.028 -0.075,0.042 L -0.909,5.562 -1.876,3.949 -2.273,3.56 z M -2.257,3.553 -1.913,3.891 -2.15,3.496 c -0.035,0.02 -0.072,0.035 -0.107,0.057 m 1.616,19.357 c 0.619,0 1.136,0.42 1.292,0.989 L 1.987,23.143 0.407,16.914 -3.163,3.949 c -0.204,0.065 -0.41,0.122 -0.626,0.158 L -0.9,22.934 c 0.084,-0.015 0.171,-0.024 0.259,-0.024 m 0.554,23.045 4.358,-8.08 -4.839,-12.287 c -0.021,0.002 -0.042,0.007 -0.064,0.007 L -1.337,45.51 c 0.444,0.086 0.857,0.245 1.25,0.445 m 8.724,8.668 -6.484,-2.617 c -0.09,0.211 -0.208,0.408 -0.326,0.603 l 6.165,5.99 0.645,-3.976 z m 1.151,0.465 -1.045,-0.422 -0.653,4.028 2.42,2.351 -0.722,-5.957 z m 10.048,7.574 c -0.87,-0.622 -1.443,-1.631 -1.443,-2.777 0,-0.434 0.089,-0.846 0.238,-1.229 l -8.737,-3.526 0.711,6.009 6.095,5.921 3.136,-4.398 z m -0.246,7.205 1.564,-6.632 c -0.48,-0.093 -0.92,-0.292 -1.305,-0.563 l -3.137,4.398 2.878,2.797 z m -0.619,2.618 0.603,-2.55 -2.893,-2.822 -1.26,1.767 3.55,3.605 z m -3.742,15.857 0.91,-3.854 -2.542,1.889 0.21,1.765 1.422,0.2 z m -0.875,3.412 c 0.023,0 0.044,0.01 0.067,0.014 l 0.808,-3.422 -1.422,-0.2 0.43,3.631 c 0.039,-0.009 0.076,-0.023 0.117,-0.023 m 0.88,-3.408 -0.809,3.422 c 0.071,0.009 0.135,0.031 0.196,0.064 l 2.327,-3.246 -1.714,-0.24 z m 6.567,-6.522 -0.011,-1.534 -5.643,4.192 -0.913,3.862 1.716,0.242 4.851,-6.762 z m 0.021,6.071 c 0.008,0 0.014,0.002 0.023,0.002 l -0.042,-5.921 -4.799,6.618 3.516,0.494 c 0.067,-0.666 0.615,-1.193 1.302,-1.193 m 4.571,-8.04 0.268,0.187 -0.228,-0.235 c -0.014,0.015 -0.026,0.033 -0.04,0.048 m -0.309,-3.57 -0.121,0.189 c 0.45,0.305 0.777,0.765 0.919,1.301 l 0.532,-0.192 -1.33,-1.298 z m 2.862,-4.455 -2.819,4.389 1.373,1.334 3.886,-1.413 -2.44,-4.31 z m 9.222,1.686 -6.66,-5.676 -2.549,3.969 2.451,4.322 6.566,-2.385 c 0.064,-0.08 0.127,-0.158 0.192,-0.23 m 3.69,-4.875 -0.135,3.485 c 0.15,0.015 0.301,0.019 0.444,0.048 l 1.013,-3.019 -1.322,-0.514 z m 3.116,-4.838 -2.904,-0.515 -0.209,5.304 1.333,0.523 1.78,-5.312 z m 0.018,0.003 -1.782,5.316 2.228,0.873 3.162,-5.55 -3.608,-0.639 z m 4.522,-0.962 -2.639,-4.656 -1.879,5.606 3.611,0.64 0.907,-1.59 z m 0.065,0.113 -0.854,1.497 1.892,0.335 -1.038,-1.832 z m 7.07,2.901 c -0.036,-0.144 -0.061,-0.294 -0.061,-0.45 0,-0.568 0.257,-1.072 0.657,-1.42 l -5.402,-5.004 -2.253,3.954 1.055,1.857 6.004,1.063 z m 0.524,0.913 C 56.92,66.527 56.74,66.218 56.651,65.869 l -5.999,-1.062 2.042,3.591 4.479,-1.627 z M 54.77,53.85 l 3.098,9.776 c 0.12,-0.042 0.244,-0.071 0.373,-0.087 L 56.859,50.184 54.77,53.85 z m 1.144,-12.807 -4.235,3.052 3.044,9.608 2.116,-3.711 -0.925,-8.949 z m 1.775,-1.277 -1.757,1.263 0.919,8.944 2.766,-4.854 -1.928,-5.353 z m -1.481,-4.435 1.552,4.304 1.948,-1.395 -2.559,-3.715 c -0.249,0.332 -0.569,0.607 -0.941,0.806 m -9.056,-5.527 5.16,1.773 c 0.073,-0.145 0.153,-0.283 0.248,-0.411 l -6.046,-3.373 0.638,2.011 z m -2.692,-3.156 -1.732,1.638 4.397,1.51 -0.641,-2.019 -2.024,-1.129 z m 0.055,-0.051 1.939,1.085 -0.712,-2.246 -1.227,1.161 z m -0.103,-0.056 1.292,-1.223 -1.805,-5.683 -2.332,5.314 2.845,1.592 z m -1.803,1.703 1.748,-1.653 -2.821,-1.573 -1.091,2.484 2.164,0.742 z m -3.096,2.932 3.063,-2.899 -2.146,-0.74 -1.464,3.338 c 0.197,0.074 0.382,0.175 0.547,0.301 m -5.693,3.951 2.683,-1.225 c -0.198,-0.316 -0.319,-0.687 -0.319,-1.089 0,-0.225 0.045,-0.438 0.112,-0.641 l -7.635,-5.738 5.159,8.693 z m -6.396,-9.623 c -0.423,0.383 -0.942,0.664 -1.524,0.781 l -0.921,11.719 c 0.471,0.03 0.884,0.271 1.14,0.636 l 7.649,-3.49 -5.162,-8.758 -1.182,-0.888 z m 0.001,0 1.177,0.881 -0.777,-1.319 c -0.12,0.158 -0.253,0.303 -0.4,0.438 m -9.961,5.084 5.313,-5.42 c -0.174,-0.207 -0.323,-0.436 -0.44,-0.682 l -7.173,2.969 2.3,3.133 z m -4.647,-2.161 2.571,4.281 2.074,-2.116 -2.301,-3.135 -2.344,0.97 z m -2.713,-4.523 2.695,4.492 2.34,-0.968 -4.306,-5.869 -0.729,2.345 z M 7.706,19.907 9.058,19.144 -0.86,5.634 7.706,19.907 z M -2.667,3.775 4.688,21.614 7.699,19.911 -0.896,5.583 -2.35,3.604 C -2.455,3.66 -2.556,3.726 -2.667,3.775 M -2.9,3.869 C -2.982,3.899 -3.068,3.92 -3.152,3.945 L -0.005,15.291 -2.9,3.869 z M 2.148,23.053 4.633,21.646 -2.672,3.778 c -0.074,0.033 -0.149,0.06 -0.224,0.089 l 3.279,12.821 1.765,6.365 z M 2.103,23.077 0.884,18.648 2.028,23.12 2.103,23.077 z m 0.967,4.118 0.215,0.174 -1.151,-4.18 -0.077,0.042 1.013,3.964 z m -2.637,-2.142 2.566,2.085 -0.984,-3.88 -1.334,0.753 c 0.013,0.078 0.024,0.157 0.024,0.241 0,0.301 -0.104,0.578 -0.272,0.801 M 5.257,36.045 3.004,27.158 0.421,25.067 C 0.21,25.34 -0.1,25.527 -0.456,25.576 l 4.76,12.237 0.953,-1.768 z m 0.775,6.21 0.635,-0.65 -1.375,-5.418 -0.941,1.749 1.681,4.319 z m -4.704,4.8 4.677,-4.773 -1.687,-4.285 -4.311,8.011 c 0.502,0.269 0.947,0.622 1.321,1.047 m 7.767,4.741 c -1.223,-0.043 -2.206,-1.039 -2.206,-2.27 0,-0.857 0.483,-1.596 1.188,-1.985 l -0.044,-0.107 -5.69,1.511 c 0.106,0.395 0.181,0.8 0.181,1.225 0,0.617 -0.127,1.203 -0.343,1.744 l 6.466,2.639 0.448,-2.757 z M 9.389,51.781 C 9.328,51.787 9.27,51.797 9.208,51.801 L 8.754,54.598 9.78,55.016 9.389,51.781 z m 9.767,5.981 -8.235,-6.79 c -0.354,0.424 -0.854,0.717 -1.425,0.799 l 0.389,3.286 8.755,3.572 c 0.126,-0.318 0.305,-0.605 0.516,-0.867 m 2.574,14.183 -0.062,-8.657 c -0.169,-0.009 -0.337,-0.019 -0.5,-0.051 l -1.569,6.64 2.131,2.068 z m 0.023,3.366 -0.023,-3.273 -2.147,-2.093 -0.603,2.549 2.773,2.817 z m 0.03,4.064 -0.029,-3.92 -2.798,-2.858 -2.063,8.731 4.89,-1.953 z m 10e-4,0.002 -4.892,1.955 -0.732,3.093 5.63,-4.152 -0.006,-0.896 z m 0.972,0.184 C 22.662,79.41 22.589,79.249 22.533,79.079 l -0.671,0.268 0.007,0.868 0.887,-0.654 z m 0.354,0.438 c -0.134,-0.128 -0.249,-0.274 -0.35,-0.431 l -0.891,0.664 0.009,1.483 1.232,-1.716 z m 16.198,-7.39 -3.881,-6.47 -2.261,-0.879 -1.643,2.555 6.659,5.685 c 0.32,-0.361 0.7,-0.658 1.126,-0.891 m -1.766,-5.646 2.394,5.366 c 0.43,-0.148 0.885,-0.246 1.366,-0.246 0.128,0 0.249,0.026 0.375,0.038 l 0.143,-3.496 -4.278,-1.662 z m -2.165,-4.859 2.132,4.782 4.313,1.69 0.219,-5.293 -6.664,-1.179 z m 7.105,-9.467 C 42.111,52.62 41.767,52.513 41.463,52.336 l -6.162,9.598 0.069,0.154 6.672,1.183 0.44,-10.634 z m 1.104,-0.252 c -0.306,0.16 -0.648,0.26 -1.017,0.26 -0.027,0 -0.055,-0.007 -0.082,-0.008 l -0.417,10.637 2.909,0.517 1.885,-5.623 -3.278,-5.783 z m 4.249,2.888 -3.632,-3.365 c -0.174,0.194 -0.382,0.354 -0.616,0.477 l 3.282,5.769 0.966,-2.881 z m 0.013,0.012 -0.969,2.887 2.646,4.652 2.233,-3.916 -3.91,-3.623 z m 3.783,-11.296 -0.016,0.048 0.026,-0.019 -0.01,-0.029 z m 3.723,-8.353 c -0.161,0.028 -0.323,0.05 -0.494,0.05 -0.147,0 -0.289,-0.022 -0.432,-0.043 l -2.79,8.325 0.015,0.042 4.253,-3.045 -0.552,-5.329 z m 0.757,-0.249 c -0.231,0.112 -0.474,0.199 -0.732,0.246 l 0.545,5.317 1.743,-1.247 -1.556,-4.316 z m -7.98,-2.486 3.882,-0.137 c 0.011,-0.407 0.108,-0.789 0.271,-1.136 l -5.116,-1.767 0.963,3.04 z m -7.797,-0.088 c 0,0.125 -0.015,0.248 -0.036,0.367 l 7.813,-0.278 -0.966,-3.048 -4.45,-1.536 -3.096,2.93 c 0.446,0.379 0.735,0.937 0.735,1.565 m -5.375,4.234 4.18,-0.995 -0.303,-1.259 c -0.185,0.053 -0.376,0.092 -0.579,0.092 -0.704,0 -1.328,-0.355 -1.702,-0.894 l -2.695,1.204 1.099,1.852 z m -8.625,2.053 8.561,-2.037 -1.087,-1.843 -7.68,3.431 c 0.094,0.134 0.16,0.288 0.206,0.449 M 25.259,26.35 c -0.265,0 -0.52,-0.041 -0.769,-0.102 l -2.705,10.227 1.737,2.365 c 0.248,-0.499 0.76,-0.848 1.357,-0.848 0.018,0 0.036,0.005 0.055,0.005 l 0.863,-11.702 c -0.175,0.031 -0.353,0.055 -0.538,0.055 M 21.736,36.406 24.42,26.227 c -0.644,-0.174 -1.204,-0.539 -1.623,-1.036 l -5.317,5.418 4.256,5.797 z m -4.758,-1.048 4.312,2.742 0.444,-1.688 -4.256,-5.799 -2.078,2.117 1.578,2.628 z m -2.56,-1.628 2.539,1.616 -1.565,-2.61 -0.974,0.994 z m -4.306,-4.184 c 0.117,0.272 0.182,0.571 0.182,0.888 0,0.214 -0.04,0.418 -0.095,0.613 l 4.199,2.67 0.981,-1 -2.571,-4.286 -2.696,1.115 z M 8.738,28.29 c 0.606,0.202 1.099,0.646 1.357,1.224 L 12.79,28.399 10.1,23.914 8.738,28.29 z M 7.422,28.246 c 0.189,-0.051 0.385,-0.087 0.59,-0.087 0.218,0 0.424,0.04 0.624,0.097 l 1.396,-4.454 -2.276,-3.795 -3.024,1.712 2.69,6.527 z m -1.494,1.27 C 6.192,28.92 6.709,28.467 7.34,28.271 l -2.664,-6.519 -2.497,1.412 1.184,4.27 2.565,2.082 z M 5.583,35.44 7.149,32.539 C 6.318,32.199 5.73,31.385 5.73,30.434 c 0,-0.325 0.071,-0.633 0.194,-0.913 L 3.369,27.453 5.583,35.44 z M 5.533,35.535 3.29,27.391 3.076,27.215 5.31,35.949 5.533,35.535 z m 1.553,5.644 -1.517,-5.508 -0.224,0.418 1.393,5.445 0.348,-0.355 z m 0.716,4.518 0.48,-0.174 -1.192,-4.328 -0.348,0.354 1.06,4.148 z m -0.379,0.135 0.288,-0.103 -1.04,-4.107 -0.634,0.646 1.386,3.564 z M 1.878,47.824 7.406,45.838 6.01,42.295 1.333,47.06 c 0.206,0.237 0.387,0.491 0.545,0.764 M 7.407,45.844 1.88,47.83 c 0.194,0.336 0.346,0.697 0.452,1.079 L 8.02,47.397 7.407,45.844 z m 0.721,1.525 -0.415,-1.637 -0.289,0.105 0.608,1.559 0.096,-0.027 z M 8.16,47.496 8.136,47.404 8.044,47.43 8.086,47.535 C 8.111,47.521 8.135,47.508 8.16,47.496 M 20.339,56.815 15.122,45.547 9.075,47.155 9.08,47.26 c 0.03,-0.002 0.061,-0.01 0.091,-0.01 1.26,0 2.284,1.021 2.284,2.276 0,0.519 -0.182,0.992 -0.476,1.376 l 8.199,6.832 c 0.316,-0.384 0.708,-0.7 1.161,-0.919 M 24.242,74.387 22.557,63.22 c -0.238,0.052 -0.482,0.084 -0.735,0.084 -0.023,0 -0.043,-0.006 -0.064,-0.006 l 0.057,8.73 2.427,2.359 z m -1.115,2.32 c 0.366,-0.344 0.844,-0.561 1.373,-0.605 l -0.241,-1.596 -2.444,-2.385 0.022,3.275 1.29,1.311 z m -0.076,0.072 -1.213,-1.242 0.024,3.805 0.67,-0.266 c -0.076,-0.226 -0.128,-0.465 -0.128,-0.717 0,-0.615 0.249,-1.171 0.647,-1.58 m 1.32,-2.164 0.231,1.477 c 0.029,-0.002 0.055,-0.008 0.084,-0.008 0.434,0 0.834,0.127 1.178,0.335 l 0.138,-0.214 -1.631,-1.59 z M 23.769,62.692 c -0.351,0.244 -0.75,0.419 -1.179,0.519 l 1.763,11.283 1.692,1.646 2.837,-4.42 -5.113,-9.028 z m 0.792,-0.774 c -0.22,0.293 -0.479,0.555 -0.779,0.765 l 5.114,9.016 2.526,-3.932 -6.861,-5.849 z m 0.077,0.025 6.799,5.8 1.621,-2.524 -8.42,-3.276 z m 9.424,1.92 -0.856,1.332 2.164,0.85 -1.308,-2.182 z m 1.158,-1.802 0.051,0.008 -0.024,-0.051 -0.027,0.043 z m 9.226,-12.755 c 0.205,0.333 0.33,0.721 0.33,1.14 0,0.523 -0.193,0.999 -0.502,1.377 l 3.601,3.333 3.678,-10.97 -7.107,5.12 z m 5.913,-9.324 -6.447,8.733 c 0.184,0.142 0.349,0.305 0.48,0.496 l 7.206,-5.162 0.028,-0.079 -1.267,-3.988 z m 3.352,-4.542 -3.34,4.527 1.262,3.982 2.786,-8.306 c -0.248,-0.04 -0.484,-0.104 -0.708,-0.203 m -5.282,-1.6 3.592,-0.856 c -0.004,-0.05 -0.016,-0.097 -0.016,-0.148 0,-0.009 0.004,-0.018 0.004,-0.027 l -3.864,0.132 0.284,0.899 z m -8.643,4.601 9.24,-2.656 -0.587,-1.847 -9.2,2.166 0.547,2.337 z m -3.417,0.983 3.348,-0.963 -0.562,-2.338 -4.162,0.981 1.376,2.32 z m -10.544,1.253 0.071,0.157 1.827,1.074 8.575,-2.465 -1.37,-2.324 -8.581,2.024 c 0.029,0.116 0.049,0.236 0.049,0.363 0,0.474 -0.226,0.893 -0.571,1.171 m -2.457,-1.255 c 0.012,-0.205 0.064,-0.401 0.152,-0.58 l -1.736,-2.363 -0.439,1.658 2.023,1.285 z m -2.81,1.691 2.913,-1.049 c -0.071,-0.171 -0.112,-0.361 -0.112,-0.558 0,-0.027 0.007,-0.053 0.008,-0.078 l -2.023,-1.287 -0.786,2.972 z m -0.105,0.037 0.035,-0.013 0.799,-3.032 -4.303,-2.735 3.469,5.78 z m -7.959,-5.461 5.365,6.392 2.581,-0.928 -3.477,-5.796 -2.55,-1.623 -1.919,1.955 z m -2.981,-3.554 2.969,3.538 1.911,-1.95 -4.197,-2.666 C 10.075,31.48 9.836,31.85 9.513,32.135 M 8.735,39.497 8.444,32.666 C 8.304,32.693 8.16,32.71 8.012,32.71 7.74,32.71 7.483,32.654 7.241,32.566 l -1.619,3.009 1.534,5.533 1.579,-1.611 z M 8.98,45.273 8.736,39.519 7.16,41.124 8.371,45.492 8.98,45.273 z m 5.16,-1.849 -5.146,1.849 0.079,1.844 6.034,-1.601 -0.967,-2.092 z m -2.953,-6.403 2.961,6.394 3.677,-1.321 -5.356,-6.379 -1.282,1.306 z m -2.122,-4.58 2.112,4.563 1.278,-1.304 -2.973,-3.54 c -0.128,0.11 -0.267,0.203 -0.417,0.281 m -0.318,7.065 0.247,5.762 5.143,-1.848 -2.959,-6.391 -2.431,2.477 z m 2.422,-2.494 -2.113,-4.565 c -0.189,0.096 -0.388,0.176 -0.603,0.218 l 0.293,6.819 2.423,-2.472 z m 7.099,7.666 c -0.038,-0.132 -0.065,-0.269 -0.065,-0.412 0,-0.446 0.198,-0.842 0.505,-1.12 l -0.879,-1.048 -3.679,1.322 0.97,2.094 3.148,-0.836 z m 3.069,11.837 -1.37,-10.761 c -0.079,0.015 -0.161,0.026 -0.245,0.026 -0.681,0 -1.254,-0.454 -1.445,-1.071 l -3.143,0.836 5.218,11.263 c 0.307,-0.146 0.637,-0.244 0.985,-0.293 m 11.389,5.12 -7.519,-1.33 c -0.07,0.562 -0.264,1.084 -0.574,1.527 l 8.466,3.322 0.898,-1.398 -1.271,-2.121 z m 0.022,0.004 1.259,2.101 1.083,-1.686 -2.342,-0.415 z m -0.393,-6.084 -2.53,1.213 2.911,4.853 2.364,0.419 0.092,-0.145 -2.837,-6.34 z m 8.326,-3.995 -8.242,3.954 2.808,6.297 6.119,-9.528 C 41.084,52.1 40.854,51.849 40.681,51.56 m 8.871,-14.122 -8.422,6.748 0.962,4.118 c 0.155,-0.033 0.313,-0.054 0.477,-0.054 0.487,0 0.933,0.162 1.3,0.428 l 6.479,-8.73 -0.796,-2.51 z m 3.268,-2.618 -3.254,2.608 0.793,2.504 3.339,-4.499 C 53.367,35.285 53.069,35.078 52.82,34.82 m -0.086,-0.099 c -0.393,-0.446 -0.646,-1.008 -0.703,-1.63 l -3.574,0.842 0.586,1.847 3.691,-1.059 z m -3.189,2.638 3.235,-2.586 c -0.014,-0.013 -0.025,-0.03 -0.037,-0.044 l -3.696,1.062 0.498,1.568 z m -8.433,6.746 8.419,-6.734 -0.501,-1.576 -9.241,2.654 1.323,5.656 z m -1.333,1.065 1.302,-1.039 -1.361,-5.661 -3.347,0.961 3.406,5.739 z m -2.755,2.203 2.682,-2.146 -3.403,-5.777 -8.572,2.462 9.293,5.461 z m -10.495,-5.115 2.018,4.525 6.751,1.971 1.662,-1.329 -9.366,-5.472 -1.065,0.305 z m -0.003,-0.006 1.059,-0.305 -1.615,-0.943 0.556,1.248 z m -0.892,-1.443 c -0.223,0.129 -0.479,0.207 -0.755,0.207 -0.427,0 -0.813,-0.177 -1.089,-0.459 l -2.404,2.15 0.525,0.873 4.508,-1.297 -0.614,-1.375 -0.171,-0.099 z m -5.115,0.452 0.864,1.442 2.405,-2.15 C 23.653,40.412 23.545,40.25 23.472,40.068 l -2.916,1.049 -0.037,0.144 z m -0.043,-0.074 0.011,-0.044 -0.032,0.01 0.021,0.034 z m -0.754,1.565 c 0.113,0 0.224,0.014 0.33,0.037 l 0.419,-1.586 -0.028,-0.045 -2.58,0.927 0.871,1.04 c 0.267,-0.23 0.609,-0.373 0.988,-0.373 m 2.1,13.713 c 0.98,0 1.859,0.418 2.485,1.078 l 4.031,-3.223 -5.486,-9.145 -1.681,-0.487 c -0.161,0.55 -0.624,0.97 -1.202,1.066 l 1.38,10.76 c 0.156,-0.024 0.311,-0.049 0.473,-0.049 m 3.304,2.558 c 0.073,0.276 0.124,0.562 0.124,0.862 0,0.137 -0.024,0.267 -0.042,0.402 l 7.506,1.33 -2.903,-4.842 -4.685,2.248 z m 3.255,-4.628 -4.018,3.216 c 0.352,0.391 0.611,0.862 0.753,1.381 l 4.681,-2.24 -1.416,-2.357 z m 2.545,-2.04 -2.532,2.03 1.417,2.36 2.535,-1.214 -1.42,-3.176 z m 9.461,-2.097 -5.023,-1.457 -4.36,3.492 1.426,3.199 8.244,-3.947 c -0.191,-0.324 -0.306,-0.697 -0.306,-1.099 0,-0.065 0.013,-0.127 0.019,-0.188 m -0.568,-5.024 1.89,3.19 c 0.12,-0.051 0.246,-0.086 0.374,-0.116 l -0.985,-4.101 -1.279,1.027 z m -2.781,2.149 2.678,-2.139 -0.003,-0.004 -2.675,2.141 0,0.002 z m -0.064,0.051 0,0 -0.785,0.627 0.785,-0.627 z m 3.597,2.101 -3.54,-2.068 -1.641,1.312 4.999,1.459 c 0.023,-0.249 0.083,-0.485 0.182,-0.703 m 1.05,-1.062 -1.876,-3.18 -2.651,2.121 3.51,2.062 c 0.217,-0.437 0.573,-0.79 1.017,-1.003 m -10.652,3.743 4.302,-3.441 -6.702,-1.945 2.4,5.386 z m -8.098,-7.036 5.479,9.131 2.54,-2.033 -2.452,-5.483 -5.567,-1.615 z m -0.038,-0.065 5.583,1.629 -1.994,-4.456 -4.509,1.296 0.92,1.531 z m -1.674,-1.314 c 0.048,0.148 0.08,0.303 0.08,0.465 0,0.129 -0.021,0.251 -0.051,0.371 l 1.625,0.472 -0.913,-1.521 -0.741,0.213 z m -0.345,-0.58 c 0.156,0.16 0.271,0.357 0.342,0.574 l 0.742,-0.211 -0.521,-0.869 -0.563,0.506 z m -0.003,-0.006 0.563,-0.502 -0.86,-1.436 -0.405,1.53 c 0.271,0.072 0.514,0.214 0.702,0.408 m 20.272,0.93 -1.297,1.037 0.003,0.004 1.296,-1.034 -0.002,-0.007 z m 8.452,-6.762 -8.421,6.736 0.002,0.008 8.423,-6.727 -0.004,-0.017 z m 3.251,-2.603 -3.237,2.591 0.006,0.02 3.245,-2.594 C 52.794,34.791 52.791,34.787 52.786,34.78 M 8.84,47.18 9.059,47.122 8.98,45.277 8.372,45.496 8.84,47.18 z m -0.095,0.025 -0.462,-1.677 -0.48,0.171 0.42,1.645 0.522,-0.139 z M 8.768,47.291 8.754,47.24 8.232,47.38 8.25,47.447 C 8.414,47.374 8.587,47.323 8.768,47.291 M 9.065,47.26 9.06,47.159 8.85,47.215 8.867,47.281 c 0.065,-0.01 0.13,-0.017 0.198,-0.021 m 29.862,-12.494 0.297,1.265 9.187,-2.187 -0.286,-0.901 -7.831,0.27 c -0.144,0.729 -0.674,1.316 -1.367,1.553 m -1.523,32.078 -2.127,-4.756 -0.067,-0.013 -1.137,1.772 1.325,2.21 2.006,0.787 z m 2.464,5.506 -2.428,-5.428 -1.986,-0.773 3.872,6.451 c 0.175,-0.094 0.354,-0.18 0.542,-0.25 m 14.851,-18.637 -3.051,-9.61 -0.098,0.07 -3.684,10.995 3.929,3.639 2.904,-5.094 z m 3.148,9.913 -3.101,-9.769 -2.867,5.029 5.434,5.03 c 0.16,-0.123 0.338,-0.221 0.534,-0.29 m -35.631,24.351 1.957,-7.399 c -0.38,-0.083 -0.721,-0.267 -1.005,-0.515 l -1.309,1.806 0.04,6.043 c 0.111,0.01 0.216,0.032 0.317,0.065 M 9.125,19.232 l -1.361,0.771 2.273,3.788 0.728,-2.322 -1.64,-2.237 z m 1.201,-0.676 -1.198,0.676 1.638,2.233 0.55,-1.756 c -0.449,-0.26 -0.801,-0.664 -0.99,-1.153 m 49.415,19.73 -1.958,1.411 1.907,5.295 2.114,-3.71 -2.063,-2.996 z m 5.191,-3.741 -5.177,3.73 2.059,2.99 3.606,-6.326 c -0.188,-0.098 -0.354,-0.23 -0.488,-0.394 m -8.997,38.969 c 0.044,0 0.082,0.015 0.124,0.025 l 2.225,-6.255 c -0.425,-0.046 -0.807,-0.225 -1.102,-0.505 l -4.477,1.639 2.95,5.184 c 0.082,-0.051 0.174,-0.088 0.28,-0.088 m -25.54,10.369 0.922,-0.594 -4.565,-3.182 3.643,3.776 z m -3.727,-3.834 -0.277,-0.192 c -0.418,0.473 -1.024,0.778 -1.705,0.778 -0.144,0 -0.283,-0.016 -0.42,-0.041 l -2.007,7.388 c 0.331,0.118 0.597,0.354 0.749,0.666 l 7.372,-4.755 -3.712,-3.844 z m -13.519,2.778 -2.128,0.853 1.354,3.538 1.199,-0.884 -0.425,-3.507 z m 0.442,3.492 2.562,-1.887 0.73,-3.097 -3.708,1.483 0.416,3.501 z m -1.369,-11.548 0.953,8.041 3.709,-1.48 2.064,-8.744 -3.571,-3.647 -2.476,3.472 c 0.332,0.24 0.562,0.61 0.562,1.051 0,0.701 -0.551,1.261 -1.241,1.307 m 58.695,-73.15 -12.38,11.713 6.17,0.869 6.352,-12.465 C 71.008,1.703 70.966,1.66 70.917,1.621 M 34.931,88.605 34.649,88.312 23.14,89.172 c 10e-4,0.016 0.008,0.029 0.008,0.045 0,0.18 -0.037,0.354 -0.103,0.512 l 1.96,0.63 9.926,-1.754 z m 5.065,6.49 c 0.043,-0.325 0.175,-0.618 0.374,-0.861 l -5.413,-5.603 -9.813,1.775 14.575,4.699 0.277,-0.01 z M 1.567,95.188 9.132,89.609 5.206,87.538 c -0.304,0.648 -0.957,1.099 -1.719,1.099 -0.211,0 -0.411,-0.043 -0.601,-0.108 l -2.187,5.92 c 0.339,0.188 0.634,0.438 0.868,0.739 M 68.832,77.039 c 0.006,-0.064 0.008,-0.133 0.02,-0.199 L 56.446,74.217 c -0.071,0.219 -0.269,0.381 -0.511,0.381 -0.257,0 -0.461,-0.18 -0.519,-0.417 L 45.419,75.5 c 0.046,0.248 0.077,0.503 0.077,0.766 0,0.023 -0.006,0.043 -0.007,0.066 l 23.343,0.707 z M 74.519,1.986 72.26,53.313 c 0.972,0.261 1.692,1.139 1.692,2.189 0,1.058 -0.732,1.941 -1.712,2.196 l -0.529,17.597 c 0.755,0.316 1.286,1.059 1.286,1.922 0,1.148 -0.939,2.084 -2.093,2.084 -1.02,0 -1.868,-0.731 -2.051,-1.697 l -23.42,-0.711 c -0.292,1.911 -1.874,3.387 -3.836,3.527 l 0.326,13.213 c 0.829,0.117 1.469,0.822 1.469,1.68 0,0.941 -0.767,1.705 -1.709,1.705 -0.824,0 -1.515,-0.584 -1.675,-1.36 L 2.143,97.066 c -0.095,1.459 -1.301,2.62 -2.786,2.62 -1.545,0 -2.803,-1.254 -2.803,-2.797 0,-1.413 1.06,-2.574 2.425,-2.758 L -2.364,54.908 c -2.571,-0.064 -4.645,-2.159 -4.645,-4.738 0,-2.348 1.721,-4.291 3.97,-4.672 L -4.682,4.168 C -7.136,4.089 -9.11,2.085 -9.11,-0.383 c 0,-2.513 2.052,-4.56 4.575,-4.56 2.302,0 4.193,1.709 4.509,3.92 l 69.632,-0.313 c 0.139,-1.76 1.604,-3.152 3.401,-3.152 1.892,0 3.43,1.533 3.43,3.418 0,1.341 -0.787,2.497 -1.918,3.056"
             style="fill:#337abe;fill-opacity:1;fill-rule:nonzero;stroke:none"
             id="path22"
             inkscape:connector-curvature="0" /></g><text
           transform="matrix(1,0,0,-1,143.667,90.1333)"
           id="text24"><tspan
             style="font-size:20px;font-variant:normal;font-weight:normal;font-stretch:normal;writing-mode:lr-tb;fill:#7f7e7e;fill-opacity:1;fill-rule:nonzero;stroke:none;font-family:Open Sans"
             x="0 12.96 25.32 40.900002 53.560001 68.139999 81.099998 93.760002 108.84 123.42 128.62 144.2 158.75999 169.82001 182.17999 193.3 205.96001 218.58 233.34 238.53999 251.16 262.28 277.35999 288.42001 299.54001"
             y="0"
             sodipodi:role="line"
             id="tspan26">BROADBAND OUTREACH CENTER</tspan></text>
<text
           transform="matrix(1,0,0,-1,143.667,62.1328)"
           id="text28"><tspan
             style="font-size:25px;font-variant:normal;font-weight:600;font-stretch:normal;writing-mode:lr-tb;fill:#7f7e7e;fill-opacity:1;fill-rule:nonzero;stroke:none;font-family:Open Sans Semibold"
             x="0 13.95 29.799999 49.474998 69.050003 88.724998 111.8 119.425 135.27499 141.77499 160.125 174.075 189.625 203.575 217.125 236.8 252.175 275.25 289.20001 308.77499 322.92499 329.42499 352.5 369.02499"
             y="0"
             sodipodi:role="line"
             id="tspan30">ECONOMIC DEVELOPMENT MAP</tspan></text>
<text
           transform="matrix(1,0,0,-1,145.4619,39.1328)"
           id="text32"><tspan
             style="font-size:17px;font-variant:normal;font-weight:normal;font-stretch:normal;writing-mode:lr-tb;fill:#337abe;fill-opacity:1;fill-rule:nonzero;stroke:none;font-family:Open Sans"
             x="0 8.823 22.066 32.792999 43.554001 52.955002 62.407001 66.929001 79.305 88.706001 99.467003 112.013 116.535 128.911 142.15401"
             y="0"
             sodipodi:role="line"
             id="tspan34">LOCATE.UTAH.GOV</tspan></text>
</g></g></g></svg>