<?xml version="1.0" encoding="utf-8"?>
<!-- Generator: Adobe Illustrator 18.0.0, SVG Export Plug-In . SVG Version: 6.00 Build 0)  -->
<!DOCTYPE svg PUBLIC "-//W3C//DTD SVG 1.1//EN" "http://www.w3.org/Graphics/SVG/1.1/DTD/svg11.dtd">
<svg version="1.1" xmlns="http://www.w3.org/2000/svg" xmlns:xlink="http://www.w3.org/1999/xlink" x="0px" y="0px"
	 viewBox="0 0 114 66" enable-background="new 0 0 114 66" xml:space="preserve">
<g id="Layer_1">
</g>
<g id="footer" display="none">
</g>
<g id="sure_sites">
</g>
<g id="goed">
</g>
<g id="edcUtah">
</g>
<g id="Broadband">
	<g id="State_Layout">
	</g>
</g>
<g id="Broadband_Logo_for_Header">
	<g id="Rectangle" display="none">
		<rect x="-14.1" y="-6.9" display="inline" fill="#E6E7E8" width="615.9" height="86.8"/>
	</g>
	<path fill="#1C75BC" d="M73.7,42.4l-0.9-21c0.4-0.1,0.7-0.5,0.7-0.9c0-0.4-0.3-0.8-0.7-0.9l-0.2-7.2c0.3-0.1,0.5-0.4,0.5-0.8
		c0-0.5-0.4-0.9-0.9-0.9c-0.4,0-0.8,0.3-0.8,0.7l-9.6,0.3c-0.1-0.8-0.8-1.4-1.6-1.4l0.1-5.4c0.3,0,0.6-0.3,0.6-0.7
		c0-0.4-0.3-0.7-0.7-0.7c-0.3,0-0.6,0.2-0.7,0.6L44.1,3.4c0-0.6-0.5-1.1-1.1-1.1c-0.6,0-1.1,0.5-1.1,1.1c0,0.6,0.4,1.1,1,1.1
		l-0.5,16.1c-1.1,0-1.9,0.9-1.9,1.9c0,1,0.7,1.8,1.6,1.9l-0.7,16.9c-1,0-1.8,0.9-1.8,1.9c0,1,0.8,1.9,1.9,1.9c0.9,0,1.7-0.7,1.8-1.6
		l28.5,0.1c0.1,0.7,0.7,1.3,1.4,1.3c0.8,0,1.4-0.6,1.4-1.4C74.5,43.1,74.2,42.6,73.7,42.4 M71.4,11.6C71.4,11.6,71.4,11.7,71.4,11.6
		l-5.1,1.2c0-0.1-0.1-0.2-0.2-0.2c-0.1,0-0.2,0.1-0.2,0.2l-4.1-0.5c0-0.1,0-0.2,0-0.3c0,0,0,0,0,0L71.4,11.6z M43.9,4.2L47,6.5
		l-1.6,0.8C45.2,7,45,6.9,44.7,6.9c-0.1,0-0.2,0-0.2,0l-0.9-2.4C43.7,4.4,43.8,4.3,43.9,4.2 M59.6,4.2c0,0.1,0.1,0.3,0.2,0.4
		l-2.2,2.3l-4-0.7l6-1.9L59.6,4.2z M57.5,6.9L57.4,7l-4.7-0.4c0,0,0,0,0,0c0-0.1,0-0.1,0-0.2l0.8-0.3L57.5,6.9z M72.2,42.5l-5.1-4.8
		l2.5-0.4L72.2,42.5C72.3,42.5,72.3,42.5,72.2,42.5 M48.2,12.5l0.4-3.3l1.5,0.6l0.8,3.6l-1.5,1.5l-1-1.4c0.1-0.1,0.2-0.3,0.2-0.4
		C48.7,12.8,48.5,12.6,48.2,12.5 M48.8,7.8l1,0.8l0.3,1.3l-1.5-0.6L48.8,7.8z M48.6,9.2l-0.9-0.3l0.6-1.5l0.5,0.4L48.6,9.2z
		 M54.1,10.4L54,10.5c-0.2-0.2-0.4-0.3-0.7-0.3c-0.1,0-0.1,0-0.2,0l-0.8-3c0.1,0,0.2-0.1,0.3-0.3l3,2L54.1,10.4z M55.7,8.8L56,9.1
		l-1.9,1.3L55.7,8.8z M66.1,13.1C66.1,13.1,66.1,13.1,66.1,13.1l1,2.6c-0.2,0-0.3,0.1-0.5,0.2l-1.8-0.7L66,13
		C66,13,66.1,13.1,66.1,13.1 M69.8,29l-2.1-1.5l0.8-1.2l1.5,2.6C69.9,28.9,69.8,29,69.8,29 M67.7,27.5l-0.8-0.6l0.8-2.2l0.9,1.5
		L67.7,27.5z M47.5,35.6L47,35.3l0.7-0.9l0.2,0.7C47.7,35.2,47.5,35.4,47.5,35.6 M47,35.3L46.4,35l0.9-1.6l0.3,1L47,35.3z M52.3,7.1
		l0.8,3c-0.2,0-0.3,0.1-0.4,0.2l-0.5-0.7l0-2.5C52.2,7.2,52.3,7.1,52.3,7.1 M66.9,17.1l-1.3,4l-1.2-2.1l2.2-2.1
		C66.7,17,66.8,17.1,66.9,17.1 M65.6,21.2l-1.2,3.9l0,0l-1.5-4.5l1.6-1.5L65.6,21.2z M59.5,13.5l-1,2.2l-0.8,0.3l1.6-2.6
		C59.4,13.5,59.5,13.5,59.5,13.5 M58.5,15.8l-0.9,2l0,0L57.2,17l0.5-0.9L58.5,15.8z M59.2,29l0.1-0.5l3.8,0.9l-0.1,0.4l-3.2-0.1
		C59.7,29.3,59.4,29,59.2,29 M46.9,23.8L46.9,23.8L46.9,23.8L46.9,23.8C46.9,23.8,46.9,23.8,46.9,23.8 M46.8,23.8L46.8,23.8l-0.2,0
		l0,0C46.7,23.8,46.7,23.8,46.8,23.8 M46.8,23.8l-0.2,0.7l-0.2-0.1l0.2-0.7L46.8,23.8z M46.8,23.9L46.8,23.9l0.1,0.8l-0.2-0.1
		L46.8,23.9z M64.8,28.9l-1.3-1.1l0,0L64.8,28.9C64.8,28.9,64.8,28.9,64.8,28.9 M63.5,27.9L60,25.1l0,0L63.5,27.9L63.5,27.9z
		 M60,25.1l-0.5-0.4l0,0L60,25.1L60,25.1z M51.7,25.5l0.2,0.2l-0.4,0.6l-0.2-0.6C51.6,25.6,51.7,25.6,51.7,25.5 M51.7,25.5
		c0.1-0.1,0.1-0.1,0.1-0.2l0.3,0.1L52,25.7L51.7,25.5z M51.9,25.2c0-0.1,0-0.1,0-0.2c0-0.1,0-0.1,0-0.2l0.7-0.2l-0.4,0.6L51.9,25.2z
		 M52.6,24.7l2.3-0.7L54,25.9l-1.8-0.5L52.6,24.7z M52.6,24.7l2.2-3.7l1,0.8l-1,2.2L52.6,24.7z M55.9,21.8l1.8,1.4L54.9,24
		L55.9,21.8z M60.3,23.3l-0.8,1.3l-1.1-0.9l1.4-0.8C59.9,23.1,60.1,23.2,60.3,23.3 M59.8,22.9l-1.4,0.8l-0.7-0.5l2-0.6
		C59.8,22.7,59.8,22.8,59.8,22.9 M58.4,23.8L58.4,23.8L58,23.5L58.4,23.8z M58.4,23.8l1.1,0.9l0,0L58.4,23.8L58.4,23.8z M59.5,24.7
		l0.8-1.3c0,0,0.1,0,0.2,0L60,25.1L59.5,24.7z M59.7,22.6l-2.1,0.6l-1.8-1.4l0.6-1.3l3.4,1.6C59.8,22.2,59.7,22.4,59.7,22.6
		C59.7,22.5,59.7,22.6,59.7,22.6 M55.9,21.7l-1-0.8l0.6-1l1,0.5L55.9,21.7z M54.8,20.9l-1.6-1.3c0.1-0.2,0.2-0.4,0.3-0.6l1.9,0.9
		L54.8,20.9z M53.5,19c0-0.1,0.1-0.2,0.1-0.4c0-0.1,0-0.1,0-0.2l3.1-0.5l-1.2,2L53.5,19z M52.2,20.1c0.4,0,0.8-0.2,1-0.4l1.6,1.3
		l-2.2,3.8l-0.7,0.2c-0.1-0.2-0.3-0.4-0.5-0.4L52,20C52,20,52.1,20.1,52.2,20.1 M51.3,25.7c0,0,0.1,0,0.1,0l0.2,0.7l0,0l-1.1-0.4
		l0.4-0.4C51,25.6,51.1,25.7,51.3,25.7 M51.6,26.3L51.6,26.3L51.6,26.3L51.6,26.3z M51.6,26.3l0.4-0.6l1,0.9
		c-0.1,0.1-0.1,0.1-0.1,0.2L51.6,26.3L51.6,26.3z M53.7,26.5c-0.1-0.1-0.2-0.1-0.3-0.1c-0.2,0-0.3,0.1-0.4,0.2l-1-0.9l0.2-0.4
		l1.8,0.5L53.7,26.5L53.7,26.5z M54.1,25.9l0.4,0.1l-0.7,0.4L54.1,25.9z M54.1,25.9l0.8-1.9l2.8-0.8l0.7,0.5L54.5,26L54.1,25.9z
		 M58.4,23.8l1.1,0.9L58.1,27l-3.5-1L58.4,23.8z M59.5,24.7l0.5,0.4l-0.6,2.3L58.1,27L59.5,24.7z M60,25.1l3.4,2.8l-0.2,0.6
		l-3.8-1.1L60,25.1z M63.5,27.9l1.3,1.1c0,0,0,0,0,0l-1.5-0.4L63.5,27.9z M64.8,29c-0.2,0.2-0.3,0.4-0.3,0.7l-1.5-0.3l0.2-0.8
		L64.8,29z M64.8,28.9l-1.3-1.1l0.3-1l1.4,1.8C65.1,28.7,64.9,28.8,64.8,28.9 M63.5,27.9l-3.4-2.8l0.4-1.7c0.1,0,0.1,0,0.2,0
		c0.2,0,0.4-0.1,0.5-0.2l2.6,3.6L63.5,27.9z M59.9,22.1l-3.4-1.6l1.1-2.6l2.5,3.9C60,21.8,59.9,21.9,59.9,22.1 M56.5,20.4l-1-0.5
		l1.2-2l1-0.2l0,0.1L56.5,20.4z M56.6,17.9l0.5-0.9l0.4,0.7L56.6,17.9z M56.6,17.9l-3.1,0.5c0-0.2-0.1-0.4-0.2-0.6l3.5-1.4l0.4,0.6
		L56.6,17.9z M52,20l-0.6,4.4c0,0-0.1,0-0.1,0c-0.3,0-0.5,0.2-0.6,0.4l-1.3-0.3l2.1-4.6C51.7,20,51.8,20,52,20 M50.7,24.9
		c0,0.1,0,0.1,0,0.2c0,0.2,0.1,0.3,0.2,0.5l-0.4,0.4L49,25.4l0.4-0.9L50.7,24.9z M47.8,28l-0.9,1.9c-0.1,0-0.2-0.1-0.2-0.1l0.1-2.8
		L47.8,28z M46.8,27l0.1-2.4l2.1,0.8L47.8,28L46.8,27z M46.9,29.9l0.9-1.9l0.5,0.5L47.1,30C47.1,30,47,29.9,46.9,29.9 M47.8,28
		l1.2-2.6l1.5,0.5l-2.2,2.6L47.8,28z M49,25.4l-2.1-0.8l0-0.8l2.5,0.7L49,25.4z M46.9,24.6L46.8,27l-0.6-0.7l0.5-1.8L46.9,24.6z
		 M46.8,27l-0.1,2.8c-0.1,0-0.1,0-0.2,0c-0.1,0-0.2,0-0.3,0.1l-0.7-1.2l0.6-2.3L46.8,27z M47.1,30l1.2-1.5l0.8,0.8l-1.7,1.1
		C47.4,30.3,47.3,30.1,47.1,30 M48.3,28.6l2.2-2.6l1.1,0.4l-1.4,2.4l-1,0.7L48.3,28.6z M51.6,26.3L51.6,26.3l0.3,1.2l-1.8,1.1
		L51.6,26.3z M51.6,26.3l1.2,0.4c0,0.1,0,0.1,0,0.2c0,0,0,0,0,0L52,27.6L51.6,26.3z M52.8,27c0,0.1,0,0.2,0.1,0.2l-0.7,1L52,27.6
		L52.8,27z M53.8,26.5L53.8,26.5l0.8-0.5l3.5,1l-0.6,1L54,27.2c0,0,0-0.1,0-0.1C54,26.8,53.9,26.6,53.8,26.5 M58.1,27l1.4,0.4
		l-0.2,1L57.5,28L58.1,27z M59.5,27.4l3.8,1.1L63,29.3l-3.8-0.9L59.5,27.4z M63,29.3l1.5,0.4c0,0,0,0,0,0.1c0,0,0,0,0,0l-1.6-0.1
		L63,29.3z M65.2,28.7l-1.4-1.9l0.5-1.6l1.1,3.4C65.4,28.6,65.3,28.6,65.2,28.7 M63.8,26.8l-2.6-3.6c0.1-0.1,0.1-0.1,0.2-0.2
		l2.9,2.1l0,0L63.8,26.8z M61.4,23c0.1-0.1,0.1-0.3,0.1-0.5c0-0.2-0.1-0.4-0.2-0.6l1.5-1.4l1.5,4.5L61.4,23z M57.6,17.8L57.6,17.8
		L57.6,17.8L57.6,17.8z M57.2,17l-0.4-0.5l0.9-0.3L57.2,17z M53.3,17.8l2.8-2.4l0.7,1L53.3,17.8z M53.3,17.8
		c-0.1-0.1-0.2-0.2-0.3-0.3l2.1-3.7l1,1.6L53.3,17.8z M53,17.5c-0.1-0.1-0.3-0.2-0.5-0.2l0.7-4.6l0.7-0.7l1.2,1.8L53,17.5z
		 M53.2,12.6l0.1-0.6c0,0,0,0,0,0c0.2,0,0.3-0.1,0.5-0.1l0.1,0.1L53.2,12.6z M52.7,11.7l-0.5,0.5l0-1.6l0.3,0.1
		c0,0.1-0.1,0.2-0.1,0.3C52.4,11.3,52.5,11.6,52.7,11.7 M52.7,11.8c0.1,0.1,0.3,0.2,0.6,0.2l-0.1,0.7l-1,1l0-1.3L52.7,11.8z
		 M53.1,12.7l-0.7,4.6c-0.1,0-0.2,0-0.3,0c0,0,0,0,0,0l0-3.6L53.1,12.7z M51.6,19.9l-2.1,4.6l-2.5-0.7l0,0c0,0,0,0,0,0
		c0.5,0,0.9-0.4,0.9-0.9c0-0.2-0.1-0.4-0.2-0.6l3.4-2.8C51.2,19.7,51.4,19.8,51.6,19.9 M46.6,23.7L46.6,23.7L46.6,23.7L46.6,23.7
		C46.5,23.7,46.6,23.7,46.6,23.7 M46.6,23.8l-0.2,0.7l-0.1,0L46.6,23.8L46.6,23.8z M46.3,24.4L44,23.6c0.1-0.1,0.1-0.3,0.2-0.4
		l2.3,0.6L46.3,24.4z M44,23.6l2.3,0.8l-0.6,1.5l-1.9-2C43.9,23.8,43.9,23.7,44,23.6 M46.3,24.4l0.1,0L46,26.1l-0.3-0.3L46.3,24.4z
		 M46.4,24.5l0.2,0.1l-0.5,1.8L46,26.2L46.4,24.5z M46.1,26.3l-0.6,2.3l-0.1-0.2l0.6-2.2L46.1,26.3z M45.5,28.6L44.6,32L44.5,32
		l0.9-3.6L45.5,28.6z M45.5,28.7l0.6,1.2c-0.3,0.1-0.6,0.5-0.6,0.9c0,0.1,0,0.3,0.1,0.4l-1,0.8L45.5,28.7z M45.7,31.1
		c0.1,0.2,0.3,0.4,0.6,0.5l-1.1,2.7l-1-0.6l0.5-1.8L45.7,31.1z M46.3,31.6c0.1,0,0.2,0,0.2,0c0.1,0,0.2,0,0.3,0l0.6,1.8L46.4,35
		l-1.2-0.7L46.3,31.6z M46.8,31.6c0.2-0.1,0.4-0.3,0.6-0.5l1.1,0.5l-1.1,1.8L46.8,31.6z M47.4,31.1c0-0.1,0.1-0.2,0.1-0.4
		c0-0.1,0-0.2,0-0.3l1.7-1.1l0.4,0.4l-1.1,1.8L47.4,31.1z M49.1,29.4l1-0.7l-0.6,1.1L49.1,29.4z M50.2,28.7l1.8-1.1l0.2,0.7
		l-1.7,2.4l-0.8-0.9L50.2,28.7z M52.1,28.3l1.1,4.2c-0.3,0.1-0.5,0.2-0.7,0.4l-2.2-2.2L52.1,28.3z M53.6,32.4c-0.1,0-0.2,0-0.3,0
		l-1.1-4.2l0.7-1c0.1,0.2,0.3,0.3,0.6,0.3c0,0,0,0,0,0l0.4,4.8C53.7,32.4,53.6,32.4,53.6,32.4 M54,27.2l3.5,0.8l-0.4,0.8l-3.1-1.4
		C54,27.3,54,27.2,54,27.2 M57.5,28l1.7,0.4l-0.1,0.5c-0.1,0-0.2,0-0.2,0c-0.3,0-0.5,0.1-0.7,0.4l-1.1-0.5L57.5,28z M59.7,29.8
		c0-0.1,0-0.1,0-0.2l3.2,0.1L62.5,31l-1.8,0.6l-1.3-1.2C59.6,30.2,59.7,30,59.7,29.8 M62.9,29.7l1.6,0.1c0,0.2,0,0.3,0.1,0.5
		L62.5,31L62.9,29.7z M66.2,28.7c-0.1,0-0.2-0.1-0.3-0.1l0.2-2.2l0.7,0.5L66.2,28.7z M65.9,28.6c-0.1,0-0.1,0-0.2,0
		c-0.1,0-0.1,0-0.2,0l-1.1-3.4l0,0l1.7,1.2L65.9,28.6z M64.3,25.2L64.3,25.2L64.3,25.2L64.3,25.2z M62.8,20.5l-0.4-1.2l1.1-1.9
		l0.9,1.6L62.8,20.5z M62.8,20.5l-1.5,1.4c-0.1-0.1-0.2-0.1-0.3-0.2l1.3-2.4L62.8,20.5z M61.1,21.7c-0.1-0.1-0.3-0.1-0.4-0.1
		c0,0,0,0,0,0l-0.2-4.4l1.2-0.2l0.8,2.3L61.1,21.7z M60.6,21.6c-0.2,0-0.3,0.1-0.4,0.1l-2.5-3.9l0-0.1l2.7-0.5L60.6,21.6z
		 M57.7,17.7l0.9-2l1.8-0.7l0.1,2.2L57.7,17.7z M58.6,15.7l1-2.2c0.2,0.1,0.4,0.1,0.6,0.1c0.1,0,0.1,0,0.2,0l0.1,1.4L58.6,15.7z
		 M59.3,13.4l-1.6,2.7l-0.9,0.4l-0.7-1l2.7-2.3C59,13.2,59.1,13.3,59.3,13.4 M52.7,10.4c-0.1,0.1-0.1,0.1-0.1,0.2l-0.4-0.3l0-0.6
		L52.7,10.4z M52.5,10.6c0,0.1-0.1,0.1-0.1,0.2l-0.3-0.1l0-0.4L52.5,10.6z M52.1,10.7l-2-0.8l-0.3-1.3l2.3,1.7L52.1,10.7z
		 M52.1,10.7l0,1.6L51,13.4l-0.8-3.6L52.1,10.7z M52.1,12.3l0,1.3l-0.9,0.9l-0.2-1L52.1,12.3z M52.1,13.7l0,3.6c-0.1,0-0.1,0-0.2,0
		l-0.6-2.7L52.1,13.7z M51.1,19.5l-3.4,2.8c-0.1-0.2-0.3-0.3-0.6-0.3l0.2-1.3l3.6-1.5C50.9,19.3,51,19.4,51.1,19.5 M47.1,22
		C47,22,47,22,47.1,22l-0.3-1.2l0.4-0.2L47.1,22z M47,22c-0.5,0-0.9,0.4-0.9,0.9c0,0.4,0.2,0.7,0.5,0.8l0,0l-2.3-0.6
		c0-0.2,0.1-0.3,0.1-0.5c0-0.3-0.1-0.5-0.1-0.7l2.6-1.1L47,22z M43.8,23.9l1.9,2L45,27.6l-1.8-3.3C43.4,24.2,43.6,24.1,43.8,23.9
		 M45.7,25.9l0.3,0.3l-0.6,2.2L45,27.7L45.7,25.9z M45.4,28.4l-0.9,3.6l-1.1,0.9c-0.1-0.1-0.2-0.2-0.4-0.2l1.9-5L45.4,28.4z
		 M43.4,32.9l1-0.9l-0.4,1.6l-0.5-0.3c0,0,0-0.1,0-0.1C43.5,33.1,43.5,33,43.4,32.9 M44.5,32.1L44.5,32.1l-0.4,1.6l0,0L44.5,32.1z
		 M44.1,33.7l-0.5,1.8L44.1,33.7L44.1,33.7z M44.1,33.8l1,0.6l-3,7.3c0,0-0.1,0-0.1,0l1.3-5.3L44.1,33.8z M42,41.6c0,0-0.1,0-0.1,0
		l1.3-4.7L42,41.6z M42.1,41.7l3-7.3l1.2,0.7l-3.5,5.9l-0.6,0.8C42.2,41.7,42.2,41.7,42.1,41.7 M46.4,35l0.6,0.3l-4.1,5.5L46.4,35z
		 M47.4,33.4l1.1-1.8l1,0.4l-1.8,2.4L47.4,33.4z M48.5,31.5l1.1-1.8l0.8,0.9l-0.9,1.3L48.5,31.5z M50.4,30.7l2.2,2.2
		c-0.1,0.1-0.1,0.2-0.2,0.3l-2.9-1.2L50.4,30.7z M54.4,32.7l0.5-0.4l-0.3,0.5C54.6,32.9,54.5,32.8,54.4,32.7 M54.4,32.7
		c-0.2-0.2-0.4-0.3-0.6-0.3l-0.4-4.8c0.2,0,0.4-0.1,0.5-0.3l3.1,1.4l-2.1,3.6L54.4,32.7z M57.1,28.8l1.1,0.5
		c-0.1,0.1-0.1,0.3-0.1,0.4c0,0.1,0,0.2,0,0.3L55,32.4L57.1,28.8z M59.4,30.4l1.3,1.2l-0.9,0.3l-0.6-1.4
		C59.2,30.5,59.3,30.5,59.4,30.4 M60.7,31.6l0.7,0.7l-1.2,0.6l-0.4-1L60.7,31.6z M61.4,32.3l0.5,0.5l-0.7,2.3l-1-2.2L61.4,32.3z
		 M61.4,32.3l0.8-0.4l-0.3,0.9L61.4,32.3z M61.4,32.3l-0.7-0.7l1.8-0.6l-0.3,0.8L61.4,32.3z M62.5,31l2.1-0.7c0,0.1,0.1,0.1,0.1,0.2
		l-2.5,1.4L62.5,31z M66.2,28.7l0.6-1.8l0.8,0.6l-1,1.5C66.5,28.9,66.4,28.8,66.2,28.7 M66.8,26.9l-0.7-0.5l0.4-3.7l1.1,2L66.8,26.9
		z M66.1,26.4l-1.7-1.3l1.2-3.9l0.9,1.5L66.1,26.4z M65.6,21.1l1.3-4c0,0,0.1,0,0.2,0l-0.6,5.5L65.6,21.1z M66.6,15.8
		c-0.1,0.1-0.2,0.2-0.2,0.4l-2.5,0.4l0.8-1.5L66.6,15.8z M66.4,16.2c0,0.1,0,0.1,0,0.2c0,0.2,0.1,0.4,0.3,0.6L64.4,19l-0.9-1.6
		l0.4-0.8L66.4,16.2z M63.5,17.4l-0.3-0.6l0.8-0.1L63.5,17.4z M63.5,17.4l-1.1,1.9L61.6,17l1.5-0.3L63.5,17.4z M61.6,17l-0.7-2.2
		l0.9-0.4l1.3,2.3L61.6,17z M61.6,17l-1.2,0.2l-0.1-2.2l0.5-0.2L61.6,17z M60.4,15.1l-0.1-1.4c0.1,0,0.1,0,0.2,0l0.4,1.2L60.4,15.1z
		 M58.8,13.1l-2.7,2.3l-1-1.6l1-1.8L58.8,13.1C58.8,13,58.8,13,58.8,13.1 M55.1,13.8L53.9,12l0.6-0.5l1.6,0.6L55.1,13.8z M53.9,11.9
		L53.9,11.9c0.1-0.2,0.3-0.4,0.3-0.6l0.2,0.1L53.9,11.9z M54,10.5l0.1-0.1L54,10.5C54,10.5,54,10.5,54,10.5 M52.2,7.2
		C52.2,7.2,52.2,7.2,52.2,7.2l0,2.4l-2-2.7l1.4-0.2C51.7,6.9,51.9,7.2,52.2,7.2 M52.1,9.7l0,0.6l-2.3-1.7L49.5,7l0.7-0.1L52.1,9.7z
		 M49.5,7l-0.3-1.4c0,0,0.1,0,0.1,0l1,1.3L49.5,7z M49.1,5.6C49.1,5.6,49.1,5.6,49.1,5.6L49.5,7l-0.6,0.1L49.1,5.6
		C49.1,5.6,49.1,5.6,49.1,5.6 M49.5,7l0.4,1.6l-1-0.8l0.1-0.7L49.5,7z M51,13.5l0.2,1l-1.2,1.2L49.5,15L51,13.5z M51.2,14.6l0.6,2.7
		c-0.2,0-0.4,0.1-0.5,0.2l-1.3-1.8L51.2,14.6z M51.3,17.5c-0.4,0.3-0.6,0.7-0.6,1.1c0,0.2,0,0.3,0.1,0.5l-3.6,1.4l0.3-2.5l2.5-2.4
		L51.3,17.5z M47.2,20.6l-0.4,0.2l-0.3-1.7l1-1L47.2,20.6z M46.8,20.8l-2.7,1.1c0-0.1-0.1-0.2-0.1-0.2l2.5-2.5L46.8,20.8z
		 M43.2,24.4l1.8,3.3l-2,5c0,0,0,0,0,0l-0.3-8.2C42.9,24.5,43,24.4,43.2,24.4 M43,33.8c0.3,0,0.5-0.2,0.5-0.4l0.5,0.3l-0.6,2.6
		l-1.5,5.3c-0.1,0-0.2-0.1-0.3-0.1l1.2-7.7C42.9,33.8,42.9,33.8,43,33.8 M42.3,41.8l0.1-0.1L42.3,41.8
		C42.3,41.8,42.3,41.8,42.3,41.8 M42.3,41.7C42.3,41.7,42.3,41.7,42.3,41.7l0.6-0.8l-0.4,0.7L42.3,41.7z M42.9,40.9l4.1-5.5l0.5,0.3
		c0,0.1-0.1,0.2-0.1,0.3c0,0.2,0.1,0.4,0.2,0.6l-5.1,5.1L42.9,40.9z M48.3,35c-0.2,0-0.3,0-0.4,0.1l-0.2-0.7l1.8-2.4l2.9,1.2
		c-0.1,0.2-0.1,0.4-0.1,0.5c0,0.1,0,0.2,0,0.3L49,35.3C48.9,35.1,48.6,35,48.3,35 M54.6,32.9l0.3-0.6l3.1-2.4
		c0.1,0.2,0.3,0.4,0.5,0.5l-0.2,1.9l-3.5,1.2C54.9,33.4,54.8,33.1,54.6,32.9 M58.6,30.5c0.1,0,0.2,0.1,0.3,0.1c0,0,0,0,0.1,0
		l0.1,1.6l-0.7,0.2L58.6,30.5z M59,30.6c0.1,0,0.1,0,0.2,0l0.6,1.4l-0.7,0.2L59,30.6z M59.8,31.9l0.4,1l-1,0.6l-0.1-1.4L59.8,31.9z
		 M60.2,33l1,2.2l-0.9,2.9C60.1,38.1,60,38,59.8,38c-0.1,0-0.2,0-0.3,0l-0.4-4.5L60.2,33z M60.3,38.2l0.9-2.9l0.5,1.1L60.3,38.2
		C60.3,38.2,60.3,38.2,60.3,38.2 M61.2,35.2l0.7-2.3l1.3,1.2l-1.5,2.2L61.2,35.2z M61.9,32.8l0.3-0.9l2.5-1.4
		c0.2,0.2,0.4,0.3,0.6,0.4L63.2,34L61.9,32.8z M65.4,30.9c0.1,0,0.2,0,0.3,0l-0.9,4.6L63.2,34L65.4,30.9z M66.6,29.1l1-1.5l2.1,1.5
		c-0.1,0.1-0.1,0.2-0.1,0.4c0,0,0,0,0,0l-2.8,0.1C66.8,29.4,66.7,29.2,66.6,29.1 M70,28.9L70,28.9l-0.8-3.5l1.7-2.5l-0.7,6
		C70.1,28.8,70.1,28.8,70,28.9 M70,28.8l-1.4-2.5l0.6-0.9L70,28.8z M68.5,26.2l-0.9-1.5l0.8-2.3l0.7,2.9L68.5,26.2z M67.6,24.6
		l-1.1-2l0.6-5.5c0,0,0.1,0,0.1,0c0.1,0,0.1,0,0.2,0l1.2,5.1L67.6,24.6z M67.7,15.8c-0.1-0.1-0.3-0.2-0.5-0.2c0,0-0.1,0-0.1,0
		L66.2,13c0,0,0,0,0,0l1.9,2.4L67.7,15.8z M66,13l-1.2,2.1l-2.4-0.9l3.5-1.4C65.9,12.9,65.9,13,66,13 M64.8,15.2l-0.8,1.5l-0.8,0.1
		l-1.3-2.3l0.5-0.2L64.8,15.2z M61.9,14.5L61.6,14l0.8,0.3L61.9,14.5z M61.8,14.5l-0.9,0.4l-0.4-1.2c0,0,0,0,0,0l1,0.4L61.8,14.5z
		 M60.5,13.6c0.2-0.1,0.4-0.2,0.6-0.3l0.4,0.6L60.5,13.6z M58.7,12.9l-2.6-1l0.3-0.5l2,0.2c0,0.1,0,0.2,0,0.3
		C58.4,12.3,58.5,12.6,58.7,12.9 M56.1,12l-1.6-0.6l0.1-0.1l1.8,0.2L56.1,12z M54.5,11.4l-0.2-0.1c0,0,0,0,0-0.1l0.3,0L54.5,11.4z
		 M54.2,11.2c0,0,0-0.1,0-0.1c0-0.2-0.1-0.4-0.2-0.6l0.1-0.1L56,9.1l0.5,0.3l-1.9,1.9L54.2,11.2z M56.1,9l2.6-1.8c0,0,0,0,0,0
		l-2.1,2.1L56.1,9z M58.6,7.2L56.1,9l-0.4-0.2L57.4,7l1.2,0.1c0,0,0,0,0,0C58.6,7.2,58.6,7.2,58.6,7.2 M55.7,8.8l-3-1.9
		c0-0.1,0-0.1,0-0.2L57.4,7L55.7,8.8z M51.6,6.7l-1.4,0.2l-1-1.3c0,0,0.1,0,0.1-0.1l2.4,1C51.6,6.5,51.6,6.6,51.6,6.7
		C51.6,6.6,51.6,6.7,51.6,6.7 M49.1,5.6l-0.2,1.5l-0.5,0.1L49.1,5.6C49,5.6,49,5.6,49.1,5.6 M48.9,7.1l-0.1,0.7l-0.5-0.4l0.1-0.3
		L48.9,7.1z M48.3,7.4L48,7.2l0.4-0.1L48.3,7.4z M48.3,7.4l-0.6,1.5l-2.4-0.9c0-0.1,0.1-0.2,0.1-0.3c0,0,0-0.1,0-0.1L48,7.2
		L48.3,7.4z M45.4,7.9l2.4,0.9l-0.9,2.3l-2-2.8C45.1,8.3,45.3,8.2,45.4,7.9 M47.7,8.9l0.9,0.3l-0.4,3.3c0,0,0,0,0,0
		c-0.1,0-0.2,0-0.3,0.1l-1-1.4L47.7,8.9z M48.2,13.6c0.1,0,0.2,0,0.3-0.1l1,1.4l-1.8,1.8L48.2,13.6C48.1,13.6,48.2,13.6,48.2,13.6
		 M49.5,15l0.5,0.7l-2.5,2.4l0.2-1.3L49.5,15z M47.5,18.2l-1,1l-0.2-1l1.3-1.3L47.5,18.2z M46.5,19.2L44,21.6
		c-0.1-0.2-0.3-0.4-0.5-0.5l2.8-2.9L46.5,19.2z M42.3,24.6c0.1,0,0.2,0,0.4,0l0.3,8.2c-0.3,0-0.5,0.2-0.5,0.6c0,0.3,0.2,0.5,0.4,0.5
		l-1.2,7.7c0,0-0.1,0-0.1,0L42.3,24.6C42.3,24.6,42.3,24.6,42.3,24.6 M42.4,41.8l0.1-0.2l5.2-5.1c0.2,0.2,0.4,0.3,0.7,0.3
		c0.3,0,0.6-0.2,0.8-0.4l0.4,0.3L42.7,42C42.6,41.9,42.5,41.8,42.4,41.8 M49.1,36.5c0.1-0.1,0.1-0.2,0.1-0.3l0.8,0.2l-0.5,0.4
		L49.1,36.5z M49.2,36.1c0-0.1,0-0.1,0-0.2c0-0.2-0.1-0.4-0.2-0.6l3.2-1.3c0,0.2,0.1,0.3,0.2,0.5l-2.4,1.8L49.2,36.1z M54.9,33.7
		c0,0,0-0.1,0-0.1l3.5-1.2l-0.2,1.7l-3.5,2l-0.5-1.2C54.6,34.7,54.9,34.3,54.9,33.7 M58.3,32.4l0.7-0.2l0.1,1.4l-1.1,0.6L58.3,32.4z
		 M59.2,33.6l0.4,4.5c-0.3,0.1-0.4,0.3-0.5,0.6l-1.4-0.4l0.5-4.1L59.2,33.6z M60.6,38.7l1.9-0.3l0.8,1.8l-2.8-0.9
		c0.1-0.1,0.1-0.3,0.1-0.4C60.7,38.8,60.6,38.7,60.6,38.7 M60.6,38.7c0-0.2-0.2-0.3-0.3-0.4l1.3-1.9l0.9,2.1L60.6,38.7z M61.7,36.3
		l1.5-2.2l1.6,1.5l-0.5,2.6l-1.7,0.2L61.7,36.3z M64.8,35.6l2.3,2.2l-2.7,0.4L64.8,35.6z M64.8,35.5l0.8-4.6c0.2,0,0.4-0.1,0.6-0.2
		l3.4,6.6l-2.5,0.4L64.8,35.5z M66.3,30.7C66.4,30.7,66.4,30.7,66.3,30.7l4.3,5.8c-0.2,0.2-0.3,0.4-0.3,0.7c0,0,0,0.1,0,0.1
		l-0.6,0.1L66.3,30.7z M70.6,36.5l-4.2-5.8c0.2-0.2,0.4-0.5,0.4-0.9c0-0.1,0-0.1,0-0.2l2.8-0.1c0,0.3,0.3,0.6,0.6,0.6
		c0,0,0.1,0,0.1,0l0.6,6.2C70.9,36.3,70.7,36.4,70.6,36.5 M70.3,28.8C70.3,28.8,70.2,28.8,70.3,28.8l0.6-6l1.1-1.6
		c0,0,0.1,0,0.1,0.1l-1.6,7.6C70.4,28.8,70.4,28.8,70.3,28.8 M72,21.2l-1.1,1.6l0.4-3.2l0.5,0.3c-0.1,0.1-0.1,0.3-0.1,0.5
		C71.6,20.8,71.8,21,72,21.2 M70.9,22.8l-1.7,2.5l-0.7-2.9l1.4-3.8l1.4,1L70.9,22.8z M68.5,22.3l-1.2-5.1c0.1,0,0.2-0.1,0.3-0.2
		l2.2,1.6L68.5,22.3z M67.7,17c0.2-0.1,0.3-0.3,0.3-0.6c0-0.2-0.1-0.4-0.2-0.5l0.5-0.4l1.9,2.4l-0.3,0.7L67.7,17z M68.2,15.4
		l3.4-3.3c0.1,0.1,0.3,0.2,0.4,0.2l-1.9,5.4L68.2,15.4z M71.6,12.1l-3.4,3.3L66.2,13c0.1,0,0.1-0.1,0.1-0.2c0,0,0,0,0,0l5.1-1.1
		C71.4,11.9,71.5,12,71.6,12.1 M65.9,12.9l-3.5,1.4L61.6,14l-0.4-0.7c0.3-0.2,0.5-0.6,0.6-1L65.9,12.9
		C65.9,12.8,65.9,12.8,65.9,12.9C65.9,12.9,65.9,12.9,65.9,12.9 M58.4,11.6l-2-0.2l0.9-1.6l1.5,1C58.6,11.1,58.5,11.3,58.4,11.6
		 M56.4,11.4l-1.7-0.2l1.9-1.9l0.7,0.5L56.4,11.4z M56.6,9.4l2.1-2.1c0,0,0,0,0,0l-1.4,2.5L56.6,9.4z M58.6,7.1L57.4,7l0.1-0.1
		L58.6,7.1C58.6,7.1,58.6,7.1,58.6,7.1 M52.6,6.4c-0.1-0.2-0.3-0.3-0.5-0.3c-0.2,0-0.4,0.1-0.5,0.3l-2.4-1c0,0,0,0,0,0l4.1,0.7
		L52.6,6.4z M49,5.6l-0.6,1.6L48,7.2l-1-0.7L49,5.6C48.9,5.5,49,5.5,49,5.6 M48,7.2l-2.5,0.4c0-0.1,0-0.1,0-0.2L47,6.5L48,7.2z
		 M44.9,8.4l2,2.8l-1.1,2.9L44.9,8.4C44.8,8.4,44.8,8.4,44.9,8.4 M46.9,11.2l1,1.4c-0.1,0.1-0.2,0.3-0.2,0.4c0,0.3,0.2,0.5,0.4,0.5
		l-0.4,3.2l-1.3,1.3l-0.6-4L46.9,11.2z M46.3,18.2l-2.8,2.9c-0.1-0.1-0.2-0.2-0.3-0.2l2.5-6.7L46.3,18.2z M42.7,42l6.9-5.2l0.3,0.2
		l-7,5.2C42.8,42.2,42.7,42.1,42.7,42 M49.5,36.8l0.5-0.4l0.4,0.1L49.8,37L49.5,36.8z M50.1,36.4l2.4-1.8c0.1,0.1,0.2,0.2,0.3,0.3
		l-2.2,1.7L50.1,36.4z M52.8,34.8C53,35,53.3,35,53.6,35c0.2,0,0.3,0,0.5-0.1l0.5,1.2l-1.7,0.9l-2.3-0.6L52.8,34.8z M54.6,36.2
		l0.6,1.5l-2.3-0.6L54.6,36.2z M54.6,36.1l3.5-2l-0.5,4.1l-2.3-0.6L54.6,36.1z M57.5,38.3l-0.4,2.8c-0.1,0-0.1,0-0.2,0
		c-0.1,0-0.2,0-0.3,0.1l-1.4-3.4L57.5,38.3z M57.2,41.1l0.4-2.8l1.4,0.4c0,0.1,0,0.1,0,0.2c0,0.2,0.1,0.4,0.2,0.5l-1.6,1.9
		C57.4,41.2,57.3,41.2,57.2,41.1 M60.5,39.3l2.8,0.9l0.2,0.4c-0.2,0-0.4,0.2-0.5,0.4L60.5,39.3C60.5,39.3,60.5,39.3,60.5,39.3
		 M63.7,40.6c-0.1,0-0.1,0-0.1,0l-0.2-0.4l0.5,0.2l0,0.3C63.8,40.6,63.8,40.6,63.7,40.6 M63.4,40.2l-0.8-1.8l1.7-0.2l-0.4,2.2
		L63.4,40.2z M64.3,38.1l2.8-0.4l5.1,4.8c-0.1,0.1-0.2,0.2-0.2,0.2l-8-2.5L64.3,38.1z M72.3,42.5l-2.6-5.1l0.6-0.1
		c0.1,0.5,0.5,0.8,0.9,0.8c0.1,0,0.2,0,0.2,0l1.2,4.3C72.5,42.4,72.4,42.4,72.3,42.5 M71.2,36.2c-0.1,0-0.1,0-0.2,0l-0.6-6.2
		c0.3-0.1,0.5-0.3,0.5-0.6c0-0.3-0.2-0.5-0.4-0.6l1.6-7.6c0.1,0,0.2,0.1,0.3,0.1L71.2,36.2C71.3,36.2,71.2,36.2,71.2,36.2
		 M58.8,10.8l-1.5-1l1.4-2.5c0,0,0.1,0,0.1,0c0,0,0,0,0,0l0.7,3C59.3,10.4,59,10.6,58.8,10.8 M58.8,6.9c-0.1,0-0.2,0.1-0.2,0.2
		l-1.1-0.2l2.2-2.3c0,0,0.1,0.1,0.1,0.1L58.8,6.9C58.9,6.9,58.9,6.9,58.8,6.9 M59.5,4.2l-6,1.9l-4.1-0.8c0,0,0,0,0,0c0,0,0,0,0,0
		l9.8-1.2L59.5,4.2z M48.9,5.4l-1.9,1l-3.1-2.3C44,4,44,3.9,44.1,3.8l4.8,1.5C48.9,5.3,48.9,5.3,48.9,5.4
		C48.9,5.4,48.9,5.4,48.9,5.4 M44.7,8.4c0,0,0.1,0,0.1,0l0.9,5.8l-2.6,6.7c-0.1,0-0.2-0.1-0.2-0.1l1.4-12.4
		C44.4,8.4,44.5,8.4,44.7,8.4 M42.9,42.3l7-5.2l1.3,1l-8.1,4.5C43,42.4,42.9,42.4,42.9,42.3 M49.8,37l0.7-0.5l2.3,0.6L51.2,38
		L49.8,37z M52.8,37.1l2.3,0.6l1.4,3.4c-0.2,0.1-0.4,0.2-0.5,0.4L51.2,38L52.8,37.1z M57.6,41.3l1.6-1.9c0.2,0.2,0.4,0.3,0.7,0.3
		c0.3,0,0.5-0.1,0.7-0.4L63,41c-0.1,0.1-0.2,0.3-0.2,0.5c0,0.1,0,0.1,0,0.2l-5,0.3C57.9,41.7,57.7,41.5,57.6,41.3 M63.9,40.6l0-0.2
		l8,2.5c-0.1,0.1-0.2,0.3-0.2,0.5l-7.1-1.6c0-0.1,0-0.1,0-0.2C64.6,41,64.3,40.7,63.9,40.6 M73.1,42.2c-0.1,0-0.3,0-0.4,0.1
		l-1.3-4.2c0.4-0.1,0.7-0.5,0.7-0.9c0-0.5-0.4-0.9-0.8-0.9l1.1-14.9c0,0,0.1,0,0.1,0c0,0,0,0,0,0l0.9,20.9
		C73.4,42.3,73.2,42.2,73.1,42.2 M71.8,19.9l-0.5-0.3l0-0.3L71.8,19.9C71.8,19.9,71.8,19.9,71.8,19.9 M71.3,19.6l-1.4-1l0.3-0.7
		l1.2,1.4L71.3,19.6z M70.1,17.8l1.9-5.4c0,0,0,0,0,0l-0.8,6.8L70.1,17.8z M59.6,10.3l-0.7-3c0.1,0,0.2-0.1,0.2-0.2
		C59.1,7,59,7,59,6.9l1-2.2c0.1,0,0.1,0.1,0.2,0.1L60,10.2C59.9,10.2,59.7,10.3,59.6,10.3 M49.3,5.3c0-0.1-0.1-0.2-0.2-0.2
		c-0.1,0-0.2,0.1-0.2,0.1l-4.8-1.5c0,0,0-0.1,0-0.1l15,0.6L49.3,5.3z M43,4.6c0.2,0,0.3-0.1,0.4-0.1l0.9,2.4
		c-0.3,0.1-0.5,0.4-0.5,0.7c0,0.3,0.2,0.6,0.4,0.7l-1.4,12.5c-0.1,0-0.2-0.1-0.4-0.1L43,4.6z M43.1,42.6l8.1-4.6l4.9,3.6
		C56.1,41.7,56,41.9,56,42c0,0,0,0,0,0l-12.8,1.1C43.2,43,43.2,42.8,43.1,42.6 M57.9,42l5-0.3c0.1,0.4,0.5,0.7,0.9,0.7
		c0.4,0,0.8-0.3,0.9-0.7l7.1,1.6c0,0.1,0,0.1,0,0.2L57.9,42C57.9,42.1,57.9,42.1,57.9,42C57.9,42,57.9,42,57.9,42 M72.5,19.5
		L72.5,19.5c-0.3,0-0.5,0.1-0.7,0.3l-0.5-0.6l0.8-6.9c0,0,0.1,0,0.1,0c0,0,0.1,0,0.1,0L72.5,19.5z M43.2,43.2L56,42.1
		c0,0.5,0.4,0.9,0.9,0.9c0.5,0,0.9-0.4,0.9-0.8l13.8,1.3c0,0,0,0,0,0l-28.5-0.1c0,0,0,0,0,0C43.2,43.3,43.2,43.3,43.2,43.2"/>
	<text transform="matrix(1 0 0 1 30.9926 54.3483)" fill="#797979" font-family="'OpenSans'" font-size="7">STATE OF UTAH</text>
	<text transform="matrix(1 0 0 1 1.9999 62.9841)" fill="#797979" font-family="'OpenSans'" font-size="7">BROADBAND OUTREACH CENTER</text>
</g>
<g id="Econ_Dev_Map_Text">
</g>
</svg>
