<?xml version="1.0" encoding="UTF-8" standalone="no"?>
<!-- Generator: Adobe Illustrator 16.0.0, SVG Export Plug-In . SVG Version: 6.00 Build 0)  -->

<svg
   xmlns:dc="http://purl.org/dc/elements/1.1/"
   xmlns:cc="http://creativecommons.org/ns#"
   xmlns:rdf="http://www.w3.org/1999/02/22-rdf-syntax-ns#"
   xmlns:svg="http://www.w3.org/2000/svg"
   xmlns="http://www.w3.org/2000/svg"
   xmlns:sodipodi="http://sodipodi.sourceforge.net/DTD/sodipodi-0.dtd"
   xmlns:inkscape="http://www.inkscape.org/namespaces/inkscape"
   version="1.1"
   id="Layer_1"
   x="0px"
   y="0px"
   width="21.6"
   height="40"
   viewBox="0 0 21.600001 40"
   enable-background="new 0 0 512 512"
   xml:space="preserve"
   inkscape:version="0.48.5 r10040"
   sodipodi:docname="iphone.svg"><metadata
     id="metadata13"><rdf:RDF><cc:Work
         rdf:about=""><dc:format>image/svg+xml</dc:format><dc:type
           rdf:resource="http://purl.org/dc/dcmitype/StillImage" /><dc:title></dc:title></cc:Work></rdf:RDF></metadata><defs
     id="defs11" /><sodipodi:namedview
     pagecolor="#ffffff"
     bordercolor="#666666"
     borderopacity="1"
     objecttolerance="10"
     gridtolerance="10"
     guidetolerance="10"
     inkscape:pageopacity="0"
     inkscape:pageshadow="2"
     inkscape:window-width="730"
     inkscape:window-height="480"
     id="namedview9"
     showgrid="false"
     fit-margin-top="0"
     fit-margin-left="0"
     fit-margin-right="0"
     fit-margin-bottom="0"
     inkscape:zoom="0.4609375"
     inkscape:cx="11.800002"
     inkscape:cy="20"
     inkscape:window-x="0"
     inkscape:window-y="0"
     inkscape:window-maximized="0"
     inkscape:current-layer="Layer_1" /><path
     d="M 21.6,3.199996 C 21.6,1.432816 20.16718,-3.9559825e-6 18.4,-3.9559825e-6 H 3.2 C 1.43282,-3.9559825e-6 0,1.432816 0,3.199996 v 33.6 c 0,1.76718 1.43282,3.2 3.2,3.2 h 15.2 c 1.76718,0 3.2,-1.43282 3.2,-3.2 v -33.6 z m -12.38709,0.4 h 3.19991 c 0.22106,0 0.4,0.17913 0.4,0.4 0,0.22087 -0.17894,0.4 -0.4,0.4 H 9.21291 c -0.22087,0 -0.4,-0.17913 -0.4,-0.4 0,-0.22087 0.17913,-0.4 0.4,-0.4 z m 1.4668,34.50621 c -0.88359,0 -1.60058,-0.7164 -1.60058,-1.5999 0,-0.88369 0.71699,-1.6 1.60058,-1.6 0.88359,0 1.59922,0.71641 1.59922,1.6 0,0.8835 -0.71563,1.5999 -1.59922,1.5999 z M 19.6,33.599996 H 2 v -26.8 h 17.6 v 26.8 z"
     id="path7"
     inkscape:connector-curvature="0"
     style="fill:#ffffff" /></svg>