<?xml version="1.0" encoding="UTF-8" standalone="no"?>
<!-- Generator: Adobe Illustrator 18.0.0, SVG Export Plug-In . SVG Version: 6.00 Build 0)  -->

<svg
   xmlns:dc="http://purl.org/dc/elements/1.1/"
   xmlns:cc="http://creativecommons.org/ns#"
   xmlns:rdf="http://www.w3.org/1999/02/22-rdf-syntax-ns#"
   xmlns:svg="http://www.w3.org/2000/svg"
   xmlns="http://www.w3.org/2000/svg"
   xmlns:xlink="http://www.w3.org/1999/xlink"
   xmlns:sodipodi="http://sodipodi.sourceforge.net/DTD/sodipodi-0.dtd"
   xmlns:inkscape="http://www.inkscape.org/namespaces/inkscape"
   version="1.1"
   id="Layer_1"
   x="0px"
   y="0px"
   viewBox="0 0 24 35"
   enable-background="new 0 0 32 44"
   xml:space="preserve"
   inkscape:version="0.48.5 r10040"
   width="100%"
   height="100%"
   sodipodi:docname="currentLocation_orange.svg"><metadata
     id="metadata25"><rdf:RDF><cc:Work
         rdf:about=""><dc:format>image/svg+xml</dc:format><dc:type
           rdf:resource="http://purl.org/dc/dcmitype/StillImage" /><dc:title></dc:title></cc:Work></rdf:RDF></metadata><defs
     id="defs23"><linearGradient
       inkscape:collect="always"
       xlink:href="#SVGID_1_"
       id="linearGradient3008"
       gradientUnits="userSpaceOnUse"
       gradientTransform="translate(-0.5,0)"
       x1="16"
       y1="44"
       x2="16"
       y2="-9.094947e-13" /></defs><sodipodi:namedview
     pagecolor="#ffffff"
     bordercolor="#666666"
     borderopacity="1"
     objecttolerance="10"
     gridtolerance="10"
     guidetolerance="10"
     inkscape:pageopacity="0"
     inkscape:pageshadow="2"
     inkscape:window-width="730"
     inkscape:window-height="480"
     id="namedview21"
     showgrid="false"
     fit-margin-top="0"
     fit-margin-left="0"
     fit-margin-right="0"
     fit-margin-bottom="0"
     inkscape:zoom="5.3636364"
     inkscape:cx="11.999999"
     inkscape:cy="17.5"
     inkscape:window-x="684"
     inkscape:window-y="39"
     inkscape:window-maximized="0"
     inkscape:current-layer="Layer_1" /><linearGradient
     id="SVGID_1_"
     gradientUnits="userSpaceOnUse"
     x1="16"
     y1="44"
     x2="16"
     y2="-9.094947e-13"
     gradientTransform="translate(-0.5,0)"><stop
       offset="0"
       style="stop-color:#9E3A22"
       id="stop4" /><stop
       offset="0.2099"
       style="stop-color:#B94125"
       id="stop6" /><stop
       offset="0.4361"
       style="stop-color:#CD4727"
       id="stop8" /><stop
       offset="0.6854"
       style="stop-color:#DA4A27"
       id="stop10" /><stop
       offset="1"
       style="stop-color:#E04C28"
       id="stop12" /></linearGradient><g
     id="g3002"
     transform="scale(0.77419355,0.79545455)"><path
       style="fill:url(#linearGradient3008)"
       inkscape:connector-curvature="0"
       id="path14"
       d="M 31,15.3 C 31,31.8 15.5,44 15.5,44 15.5,44 0,31 0,15.3 0,6.9 6.9,0 15.5,0 24.1,0 31,6.9 31,15.3 z" /><g
       transform="translate(-0.5,0)"
       id="_x31_3-target.png_4_"><g
         id="g17"><path
           style="fill:#ffffff"
           inkscape:connector-curvature="0"
           id="path19"
           d="m 16,12.2 c -1.2,0 -2.2,1 -2.2,2.2 0,1.2 1,2.2 2.2,2.2 1.2,0 2.2,-1 2.2,-2.2 0,-1.2 -1,-2.2 -2.2,-2.2 z m 0,-6.7 c -5,0 -9,4 -9,9 0,5 4,9 9,9 5,0 9,-4 9,-9 0,-5 -4,-9 -9,-9 z m 0,14.6 c -3.1,0 -5.6,-2.5 -5.6,-5.6 0,-3.1 2.5,-5.6 5.6,-5.6 3.1,0 5.6,2.5 5.6,5.6 0,3.1 -2.5,5.6 -5.6,5.6 z" /></g></g></g></svg>