<?xml version="1.0" encoding="utf-8"?>
<!-- Generator: Adobe Illustrator 18.0.0, SVG Export Plug-In . SVG Version: 6.00 Build 0)  -->
<!DOCTYPE svg PUBLIC "-//W3C//DTD SVG 1.1//EN" "http://www.w3.org/Graphics/SVG/1.1/DTD/svg11.dtd">
<svg version="1.1" xmlns="http://www.w3.org/2000/svg" xmlns:xlink="http://www.w3.org/1999/xlink" x="0px" y="0px"
	 viewBox="0 0 32 44" enable-background="new 0 0 32 44" xml:space="preserve">
<g id="Layer_1">
</g>
<g id="NP-Shield_Green_Buffalo">
</g>
<g id="NP-Shield_Black_Buffalo">
</g>
<g id="NP-Shield_NP">
</g>
<g id="NP-NP_Buffalo">
</g>
<g id="NP-NP_Shield">
</g>
<g id="NP-NP">
</g>
<g id="SP-Shield_SP">
</g>
<g id="SP-SP_Buffalo">
</g>
<g id="SP-SP_Shield">
</g>
<g id="SP-SP">
</g>
<g id="SP-SP_Tree">
</g>
<g id="Hospital_H">
</g>
<g id="Hospital_Cross">
</g>
<g id="Orange_Map_Marker">
</g>
<g id="Orange_Map_Marker_2">
</g>
<g id="Orange_Map_Marker_3">
</g>
<g id="Orange_Map_Marker_4">
</g>
<g id="Lime_Green_Map_Marker">
</g>
<g id="Dk_Orange_Map_Marker">
</g>
<g id="Dk_Orange-Yellow_Map_Marker">
	<linearGradient id="SVGID_1_" gradientUnits="userSpaceOnUse" x1="0.5" y1="22" x2="31.5" y2="22">
		<stop  offset="0" style="stop-color:#9E3A22"/>
		<stop  offset="4.386689e-02" style="stop-color:#AC4123"/>
		<stop  offset="0.1466" style="stop-color:#C75124"/>
		<stop  offset="0.2565" style="stop-color:#DC5D23"/>
		<stop  offset="0.3775" style="stop-color:#EB6522"/>
		<stop  offset="0.5309" style="stop-color:#F26822"/>
		<stop  offset="0.6656" style="stop-color:#EB6522"/>
		<stop  offset="0.7728" style="stop-color:#DC5D23"/>
		<stop  offset="0.8705" style="stop-color:#C75124"/>
		<stop  offset="0.962" style="stop-color:#AB4123"/>
		<stop  offset="1" style="stop-color:#9E3A22"/>
	</linearGradient>
	<path fill="url(#SVGID_1_)" d="M31.5,15.3C31.5,31.8,16,44,16,44S0.5,31,0.5,15.3C0.5,6.9,7.4,0,16,0S31.5,6.9,31.5,15.3z"/>
	<g id="_x31_3-target.png_6_">
		<g>
			<path fill="#FFFFFF" d="M16,12.5c-1.1,0-2,0.9-2,2s0.9,2,2,2s2-0.9,2-2S17.1,12.5,16,12.5z M16,6.5c-4.4,0-8,3.6-8,8
				c0,4.4,3.6,8,8,8c4.4,0,8-3.6,8-8C24,10,20.4,6.5,16,6.5z M16,19.5c-2.8,0-5-2.2-5-5c0-2.8,2.2-5,5-5c2.8,0,5,2.2,5,5
				C21,17.2,18.8,19.5,16,19.5z"/>
		</g>
		<g>
			<path fill="none" stroke="#D1D3D4" stroke-width="0.5" stroke-miterlimit="10" d="M16,12.5c-1.1,0-2,0.9-2,2s0.9,2,2,2s2-0.9,2-2
				S17.1,12.5,16,12.5z M16,6.5c-4.4,0-8,3.6-8,8c0,4.4,3.6,8,8,8c4.4,0,8-3.6,8-8C24,10,20.4,6.5,16,6.5z M16,19.5
				c-2.8,0-5-2.2-5-5c0-2.8,2.2-5,5-5c2.8,0,5,2.2,5,5C21,17.2,18.8,19.5,16,19.5z"/>
		</g>
	</g>
</g>
<g id="SLC_Intl_Airport_Large">
</g>
<g id="SLC_Intl_Airport_Large_Globe">
</g>
</svg>
