<svg id="Small_Icons" data-name="Small Icons" xmlns="http://www.w3.org/2000/svg" xmlns:xlink="http://www.w3.org/1999/xlink" viewBox="0 0 31 44"><defs><style>.cls-1{fill:url(#linear-gradient);}.cls-2{fill:#fff;}</style><linearGradient id="linear-gradient" x1="15.5" y1="44" x2="15.5" gradientUnits="userSpaceOnUse"><stop offset="0" stop-color="#9b1d21"/><stop offset="0.11" stop-color="#a51e23"/><stop offset="0.37" stop-color="#b62025"/><stop offset="0.65" stop-color="#c02127"/><stop offset="1" stop-color="#c32127"/></linearGradient></defs><title>new-icon</title><path class="cls-1" d="M31,15.31C31,31.76,15.5,44,15.5,44S0,31,0,15.31A15.4,15.4,0,0,1,15.5,0,15.4,15.4,0,0,1,31,15.31Z"/><g id="_112-group.png" data-name="112-group.png"><path class="cls-2" d="M27.66,19.05a3.39,3.39,0,0,0-.18-1.4,1.9,1.9,0,0,0-.28-0.43,1.07,1.07,0,0,0-.47-0.31l-0.36-.14-0.49-.2-0.58-.24-0.6-.26-0.58-.25-0.5-.22V14.8a0.73,0.73,0,0,1,0-.18l0.08-.25,0.1-.32a3.52,3.52,0,0,0,.31-0.83,4.55,4.55,0,0,0,0-2.16,2.15,2.15,0,0,0-.4-0.78,1.52,1.52,0,0,0-.6-0.43,2,2,0,0,0-.72-0.13,1.91,1.91,0,0,0-.73.14,1.5,1.5,0,0,0-.59.44,2.19,2.19,0,0,0-.4.78,4,4,0,0,0-.15,1.17,4.12,4.12,0,0,0,.12,1,3.59,3.59,0,0,0,.31.84l0.1,0.29,0.07,0.23,0,0.17v0.78l-0.49.22-0.6.26-0.63.27-0.61.26-0.52.21-0.38.14L17.82,17l-0.11,0V15.56a1.27,1.27,0,0,1,.06-0.3l0.13-.43,0.18-.55a6.05,6.05,0,0,0,.53-1.43,7,7,0,0,0,.19-1.67,7,7,0,0,0-.25-2,3.67,3.67,0,0,0-.69-1.34,2.6,2.6,0,0,0-1-.74,3.34,3.34,0,0,0-1.24-.23,3.28,3.28,0,0,0-1.25.23,2.57,2.57,0,0,0-1,.75,3.76,3.76,0,0,0-.69,1.34,6.89,6.89,0,0,0-.25,2,7.05,7.05,0,0,0,.2,1.71,6.17,6.17,0,0,0,.54,1.44c0.06,0.18.12,0.35,0.16,0.5l0.11,0.39,0.08,0.29v1.34L13.19,17l-0.14-.07-0.36-.14-0.49-.2-0.58-.24L11,16.07l-0.58-.25-0.5-.22V14.8a0.73,0.73,0,0,1,0-.18l0.08-.25,0.1-.32a3.52,3.52,0,0,0,.31-0.83,4.55,4.55,0,0,0,0-2.16,2.15,2.15,0,0,0-.4-0.78,1.52,1.52,0,0,0-.6-0.43,2,2,0,0,0-.72-0.13A1.91,1.91,0,0,0,8,9.86a1.5,1.5,0,0,0-.59.44,2.19,2.19,0,0,0-.4.78,4,4,0,0,0-.15,1.17,4.12,4.12,0,0,0,.12,1,3.59,3.59,0,0,0,.31.84l0.1,0.29L7.44,14.6l0,0.17v0.78L7,15.77,6.4,16l-0.63.27-0.61.26-0.52.21-0.38.14a1.08,1.08,0,0,0-.46.31,1.86,1.86,0,0,0-.28.43,2.39,2.39,0,0,0-.18.53v2.39h3.3a4.09,4.09,0,0,0-.26.79v1.49H24.62V21.36a3.7,3.7,0,0,0-.25-0.79h3.29V19.05Z"/></g></svg>