<?xml version="1.0" encoding="UTF-8" standalone="no"?>
<!-- Created with Inkscape (http://www.inkscape.org/) -->

<svg
   xmlns:dc="http://purl.org/dc/elements/1.1/"
   xmlns:cc="http://creativecommons.org/ns#"
   xmlns:rdf="http://www.w3.org/1999/02/22-rdf-syntax-ns#"
   xmlns:svg="http://www.w3.org/2000/svg"
   xmlns="http://www.w3.org/2000/svg"
   xmlns:xlink="http://www.w3.org/1999/xlink"
   xmlns:sodipodi="http://sodipodi.sourceforge.net/DTD/sodipodi-0.dtd"
   xmlns:inkscape="http://www.inkscape.org/namespaces/inkscape"
   width="24"
   height="35"
   id="svg6739"
   version="1.1"
   inkscape:version="0.48.5 r10040"
   sodipodi:docname="golfing.svg">
  <defs
     id="defs6741">
    <linearGradient
       inkscape:collect="always"
       xlink:href="#SVGID_18_"
       id="linearGradient6643"
       gradientUnits="userSpaceOnUse"
       x1="321.54181"
       y1="183.7742"
       x2="321.54181"
       y2="91" />
    <linearGradient
       y2="91"
       x2="321.54181"
       y1="183.7742"
       x1="321.54181"
       gradientUnits="userSpaceOnUse"
       id="SVGID_18_">
      <stop
         id="stop5549"
         style="stop-color:#0E6635"
         offset="0" />
      <stop
         id="stop5551"
         style="stop-color:#0E6735"
         offset="5.276561e-03" />
      <stop
         id="stop5553"
         style="stop-color:#10773C"
         offset="0.2161" />
      <stop
         id="stop5555"
         style="stop-color:#108341"
         offset="0.4405" />
      <stop
         id="stop5557"
         style="stop-color:#0E8A44"
         offset="0.6879" />
      <stop
         id="stop5559"
         style="stop-color:#0E8C45"
         offset="1" />
    </linearGradient>
    <linearGradient
       gradientTransform="translate(32.785714,320.67647)"
       y2="91"
       x2="321.54181"
       y1="183.7742"
       x1="321.54181"
       gradientUnits="userSpaceOnUse"
       id="linearGradient6769"
       xlink:href="#SVGID_18_"
       inkscape:collect="always" />
    <linearGradient
       inkscape:collect="always"
       xlink:href="#SVGID_18_"
       id="linearGradient3213"
       gradientUnits="userSpaceOnUse"
       gradientTransform="translate(32.785714,320.67647)"
       x1="321.54181"
       y1="183.7742"
       x2="321.54181"
       y2="91" />
  </defs>
  <sodipodi:namedview
     id="base"
     pagecolor="#ffffff"
     bordercolor="#666666"
     borderopacity="1.0"
     inkscape:pageopacity="0.0"
     inkscape:pageshadow="2"
     inkscape:zoom="9.0769231"
     inkscape:cx="11.999997"
     inkscape:cy="17.5"
     inkscape:document-units="px"
     inkscape:current-layer="layer1"
     showgrid="false"
     fit-margin-top="0"
     fit-margin-left="0"
     fit-margin-right="0"
     fit-margin-bottom="0"
     inkscape:window-width="730"
     inkscape:window-height="513"
     inkscape:window-x="138"
     inkscape:window-y="175"
     inkscape:window-maximized="0" />
  <metadata
     id="metadata6744">
    <rdf:RDF>
      <cc:Work
         rdf:about="">
        <dc:format>image/svg+xml</dc:format>
        <dc:type
           rdf:resource="http://purl.org/dc/dcmitype/StillImage" />
        <dc:title />
      </cc:Work>
    </rdf:RDF>
  </metadata>
  <g
     inkscape:label="Layer 1"
     inkscape:groupmode="layer"
     id="layer1"
     transform="translate(-342.28571,-440.57647)">
    <g
       id="g3207"
       transform="matrix(0.37151703,0,0,0.37715517,222.66254,285.31056)">
      <path
         d="m 386.58571,443.97647 c 0,34.7 -32.3,60.5 -32.3,60.5 0,0 -32.3,-27.4 -32.3,-60.5 0,-17.8 14.4,-32.3 32.3,-32.3 17.9,0 32.3,14.4 32.3,32.3 z"
         id="path5561"
         style="fill:url(#linearGradient3213)"
         inkscape:connector-curvature="0" />
      <g
         id="_x31_29-golf.png_2_"
         transform="translate(32.785714,320.67647)">
        <g
           id="g5564">
          <path
             d="m 343.5,122.1 c -5.3,-6 -15.9,-4.4 -21.9,-0.4 -3.2,2.1 -4.9,5.8 -8,8 -0.8,0.6 -1.7,0.9 -2.6,1.2 -0.5,0.1 -0.9,0.2 -1.4,0.3 v -19 l 19.7,-6.1 -19.7,-6.1 H 308 v 31.5 c -1.9,0.4 -3.8,0.8 -5,2.3 -2.8,3.4 0.8,6.3 4.3,6.8 5,0.7 10.1,0.2 15.1,-0.2 4.9,-0.4 10,-1 14.3,-3.3 3.3,-1.7 7,-4 8.2,-7.6 0.9,-2.6 0.4,-5.4 -1.4,-7.4 z M 308,138.8 c -2,-0.3 -3.4,-1.2 -3.4,-2.3 0,-1.1 1.5,-2.1 3.4,-2.3 v 4.6 z m 1.6,0 v -4.7 c 2.3,0.1 4,1.1 4,2.4 0,1.2 -1.8,2.2 -4,2.3 z"
             id="path5566"
             inkscape:connector-curvature="0"
             style="fill:#ffffff" />
        </g>
      </g>
    </g>
  </g>
</svg>
