<?xml version="1.0" encoding="UTF-8" standalone="no"?>
<!-- Created with Inkscape (http://www.inkscape.org/) -->

<svg
   xmlns:dc="http://purl.org/dc/elements/1.1/"
   xmlns:cc="http://creativecommons.org/ns#"
   xmlns:rdf="http://www.w3.org/1999/02/22-rdf-syntax-ns#"
   xmlns:svg="http://www.w3.org/2000/svg"
   xmlns="http://www.w3.org/2000/svg"
   xmlns:xlink="http://www.w3.org/1999/xlink"
   xmlns:sodipodi="http://sodipodi.sourceforge.net/DTD/sodipodi-0.dtd"
   xmlns:inkscape="http://www.inkscape.org/namespaces/inkscape"
   width="64.599998"
   height="92.800003"
   id="svg6681"
   version="1.1"
   inkscape:version="0.48.5 r10040"
   sodipodi:docname="New document 6">
  <defs
     id="defs6683">
    <linearGradient
       inkscape:collect="always"
       xlink:href="#SVGID_17_"
       id="linearGradient6649"
       gradientUnits="userSpaceOnUse"
       x1="237.54179"
       y1="183.7742"
       x2="237.54179"
       y2="91" />
    <linearGradient
       y2="91"
       x2="237.54179"
       y1="183.7742"
       x1="237.54179"
       gradientUnits="userSpaceOnUse"
       id="SVGID_17_">
      <stop
         id="stop5529"
         style="stop-color:#0E6635"
         offset="0" />
      <stop
         id="stop5531"
         style="stop-color:#0E6735"
         offset="5.276561e-03" />
      <stop
         id="stop5533"
         style="stop-color:#10773C"
         offset="0.2161" />
      <stop
         id="stop5535"
         style="stop-color:#108341"
         offset="0.4405" />
      <stop
         id="stop5537"
         style="stop-color:#0E8A44"
         offset="0.6879" />
      <stop
         id="stop5539"
         style="stop-color:#0E8C45"
         offset="1" />
    </linearGradient>
    <linearGradient
       gradientTransform="translate(-80.357139,217.81932)"
       y2="91"
       x2="237.54179"
       y1="183.7742"
       x1="237.54179"
       gradientUnits="userSpaceOnUse"
       id="linearGradient6679"
       xlink:href="#SVGID_17_"
       inkscape:collect="always" />
  </defs>
  <sodipodi:namedview
     id="base"
     pagecolor="#ffffff"
     bordercolor="#666666"
     borderopacity="1.0"
     inkscape:pageopacity="0.0"
     inkscape:pageshadow="2"
     inkscape:zoom="0.35"
     inkscape:cx="250.15714"
     inkscape:cy="-130.74286"
     inkscape:document-units="px"
     inkscape:current-layer="layer1"
     showgrid="false"
     fit-margin-top="0"
     fit-margin-left="0"
     fit-margin-right="0"
     fit-margin-bottom="0"
     inkscape:window-width="472"
     inkscape:window-height="412"
     inkscape:window-x="729"
     inkscape:window-y="278"
     inkscape:window-maximized="0" />
  <metadata
     id="metadata6686">
    <rdf:RDF>
      <cc:Work
         rdf:about="">
        <dc:format>image/svg+xml</dc:format>
        <dc:type
           rdf:resource="http://purl.org/dc/dcmitype/StillImage" />
        <dc:title></dc:title>
      </cc:Work>
    </rdf:RDF>
  </metadata>
  <g
     inkscape:label="Layer 1"
     inkscape:groupmode="layer"
     id="layer1"
     transform="translate(-124.84286,-308.81932)">
    <path
       inkscape:connector-curvature="0"
       style="fill:url(#linearGradient6679)"
       id="path5541"
       d="m 189.44286,341.11932 c 0,34.7 -32.3,60.5 -32.3,60.5 0,0 -32.3,-27.4 -32.3,-60.5 0,-17.8 14.4,-32.3 32.3,-32.3 17.9,0 32.3,14.4 32.3,32.3 z" />
    <g
       transform="translate(-80.357139,217.81932)"
       id="_x35_24-hiking.png_4_">
      <g
         id="g5544">
        <path
           style="fill:#ffffff"
           inkscape:connector-curvature="0"
           id="path5546"
           d="m 228.9,111.3 -3.5,-0.9 c -1.9,-0.5 -3.9,0.6 -4.4,2.6 l -2.4,8.6 c -0.5,1.9 0.6,3.9 2.6,4.4 l 3.5,0.9 4.2,-15.6 z m 7.5,-1.3 c 2.5,0 4.5,-2 4.5,-4.5 0,-2.5 -2,-4.5 -4.5,-4.5 -2.5,0 -4.5,2 -4.5,4.5 0,2.5 2,4.5 4.5,4.5 z m 1.8,16.3 9.9,1.8 v -3.6 l -8.4,-2.9 c 0,0 1.1,-4.5 1.1,-4.3 0,-3 -2.4,-5.4 -5.4,-5.4 -4.7,0 -5.3,4.2 -5.3,4.2 l -7.2,27.2 0,0 c -0.1,0.4 -0.2,0.7 -0.2,1.1 0,2 1.6,3.6 3.6,3.6 2,0 3.6,-1.6 3.6,-3.6 l 2.9,-9 2.5,9 c 0,2 1.6,3.6 3.6,3.6 2,0 3.6,-1.6 3.6,-3.6 0,-0.4 -0.1,-0.8 -0.2,-1.1 l -4.1,-17 z m 15.4,-10.8 -5.4,32.5 h 3.6 l 5.4,-32.5 h -3.6 z" />
      </g>
    </g>
  </g>
</svg>
