<?xml version="1.0" encoding="UTF-8" standalone="no"?>
<!-- Created with Inkscape (http://www.inkscape.org/) -->

<svg
   xmlns:dc="http://purl.org/dc/elements/1.1/"
   xmlns:cc="http://creativecommons.org/ns#"
   xmlns:rdf="http://www.w3.org/1999/02/22-rdf-syntax-ns#"
   xmlns:svg="http://www.w3.org/2000/svg"
   xmlns="http://www.w3.org/2000/svg"
   xmlns:xlink="http://www.w3.org/1999/xlink"
   xmlns:sodipodi="http://sodipodi.sourceforge.net/DTD/sodipodi-0.dtd"
   xmlns:inkscape="http://www.inkscape.org/namespaces/inkscape"
   width="24"
   height="35"
   id="svg7008"
   version="1.1"
   inkscape:version="0.48.5 r10040"
   sodipodi:docname="lightrail.svg">
  <defs
     id="defs7010">
    <linearGradient
       inkscape:collect="always"
       xlink:href="#SVGID_21_"
       id="linearGradient6625"
       gradientUnits="userSpaceOnUse"
       x1="148.61301"
       y1="290.7742"
       x2="148.61301"
       y2="198" />
    <linearGradient
       y2="198"
       x2="148.61301"
       y1="290.7742"
       x1="148.61301"
       gradientUnits="userSpaceOnUse"
       id="SVGID_21_">
      <stop
         id="stop5609"
         style="stop-color:#0D5D63"
         offset="0" />
      <stop
         id="stop5611"
         style="stop-color:#10676F"
         offset="0.1559" />
      <stop
         id="stop5613"
         style="stop-color:#11727D"
         offset="0.3976" />
      <stop
         id="stop5615"
         style="stop-color:#117886"
         offset="0.6639" />
      <stop
         id="stop5617"
         style="stop-color:#107A89"
         offset="1" />
    </linearGradient>
    <linearGradient
       gradientTransform="translate(59.971429,405.10504)"
       y2="198"
       x2="148.61301"
       y1="290.7742"
       x1="148.61301"
       gradientUnits="userSpaceOnUse"
       id="linearGradient7006"
       xlink:href="#SVGID_21_"
       inkscape:collect="always" />
    <linearGradient
       inkscape:collect="always"
       xlink:href="#SVGID_21_"
       id="linearGradient3000"
       gradientUnits="userSpaceOnUse"
       gradientTransform="translate(59.971429,405.10504)"
       x1="148.61301"
       y1="290.7742"
       x2="148.61301"
       y2="198" />
  </defs>
  <sodipodi:namedview
     id="base"
     pagecolor="#ffffff"
     bordercolor="#666666"
     borderopacity="1.0"
     inkscape:pageopacity="0.0"
     inkscape:pageshadow="2"
     inkscape:zoom="2.5431034"
     inkscape:cx="12.000002"
     inkscape:cy="17.499994"
     inkscape:document-units="px"
     inkscape:current-layer="layer1"
     showgrid="false"
     fit-margin-top="0"
     fit-margin-left="0"
     fit-margin-right="0"
     fit-margin-bottom="0"
     inkscape:window-width="730"
     inkscape:window-height="412"
     inkscape:window-x="729"
     inkscape:window-y="278"
     inkscape:window-maximized="0" />
  <metadata
     id="metadata7013">
    <rdf:RDF>
      <cc:Work
         rdf:about="">
        <dc:format>image/svg+xml</dc:format>
        <dc:type
           rdf:resource="http://purl.org/dc/dcmitype/StillImage" />
        <dc:title />
      </cc:Work>
    </rdf:RDF>
  </metadata>
  <g
     inkscape:label="Layer 1"
     inkscape:groupmode="layer"
     id="layer1"
     transform="translate(-196.57143,-632.00503)">
    <g
       id="g2994"
       transform="matrix(0.37151703,0,0,0.37715517,131.08359,404.54085)">
      <path
         d="m 240.87143,635.40504 c 0,34.7 -32.3,60.5 -32.3,60.5 0,0 -32.3,-27.4 -32.3,-60.5 0,-17.8 14.4,-32.3 32.3,-32.3 17.9,0 32.3,14.4 32.3,32.3 z"
         id="path5619"
         style="fill:url(#linearGradient3000)"
         inkscape:connector-curvature="0" />
      <g
         id="_x35_25-train.png_4_"
         transform="translate(59.971429,405.10504)">
        <g
           id="g5622">
          <path
             d="m 153.9,251.7 0.9,1.8 h -12.3 l 0.9,-1.8 h -5.3 l -3.5,7 h 5.3 l 0.9,-1.8 h 15.8 l 0.9,1.8 h 5.3 l -3.5,-7 h -5.4 z m 7,-38.6 h -5.3 v -1.8 c 0,-1 -0.8,-1.8 -1.8,-1.8 H 152 c -1,0 -1.8,0.8 -1.8,1.8 v 1.8 h -3.5 v -1.8 c 0,-1 -0.8,-1.8 -1.8,-1.8 h -1.8 c -1,0 -1.8,0.8 -1.8,1.8 v 1.8 H 136 c -1.9,0 -3.5,1.6 -3.5,3.5 v 29.9 c 0,1.9 1.6,3.5 3.5,3.5 h 24.6 c 1.9,0 3.5,-1.6 3.5,-3.5 v -29.9 c 0.3,-2 -1.2,-3.5 -3.2,-3.5 z m -15.8,3.5 h 7 c 1,0 1.8,0.8 1.8,1.8 0,1 -0.8,1.8 -1.8,1.8 h -7 c -1,0 -1.8,-0.8 -1.8,-1.8 0,-1 0.8,-1.8 1.8,-1.8 z m -4.4,28.1 c -1.5,0 -2.6,-1.2 -2.6,-2.6 0,-1.5 1.2,-2.6 2.6,-2.6 1.5,0 2.6,1.2 2.6,2.6 0,1.4 -1.1,2.6 -2.6,2.6 z m 15.8,0 c -1.5,0 -2.6,-1.2 -2.6,-2.6 0,-1.5 1.2,-2.6 2.6,-2.6 1.5,0 2.6,1.2 2.6,2.6 0.1,1.4 -1.1,2.6 -2.6,2.6 z m 4.4,-12.3 c 0,1 -0.8,1.8 -1.8,1.8 H 138 c -1,0 -1.8,-0.8 -1.8,-1.8 v -7 c 0,-1 0.8,-1.8 1.8,-1.8 h 21.1 c 1,0 1.8,0.8 1.8,1.8 v 7 z"
             id="path5624"
             inkscape:connector-curvature="0"
             style="fill:#ffffff" />
        </g>
      </g>
    </g>
  </g>
</svg>
