<?xml version="1.0" encoding="UTF-8" standalone="no"?>
<!-- Generator: Adobe Illustrator 18.0.0, SVG Export Plug-In . SVG Version: 6.00 Build 0)  -->

<svg
   xmlns:dc="http://purl.org/dc/elements/1.1/"
   xmlns:cc="http://creativecommons.org/ns#"
   xmlns:rdf="http://www.w3.org/1999/02/22-rdf-syntax-ns#"
   xmlns:svg="http://www.w3.org/2000/svg"
   xmlns="http://www.w3.org/2000/svg"
   xmlns:xlink="http://www.w3.org/1999/xlink"
   xmlns:sodipodi="http://sodipodi.sourceforge.net/DTD/sodipodi-0.dtd"
   xmlns:inkscape="http://www.inkscape.org/namespaces/inkscape"
   version="1.1"
   x="0px"
   y="0px"
   viewBox="0 0 24 35"
   enable-background="new 0 0 32 44"
   xml:space="preserve"
   id="svg2"
   inkscape:version="0.48.5 r10040"
   width="100%"
   height="100%"
   sodipodi:docname="nationalparks.svg"><metadata
     id="metadata49"><rdf:RDF><cc:Work
         rdf:about=""><dc:format>image/svg+xml</dc:format><dc:type
           rdf:resource="http://purl.org/dc/dcmitype/StillImage" /></cc:Work></rdf:RDF></metadata><defs
     id="defs47"><linearGradient
       y2="1.58032e-06"
       x2="16"
       y1="44"
       x1="16"
       gradientUnits="userSpaceOnUse"
       id="SVGID_1_"><stop
         id="stop12"
         style="stop-color:#0E6635"
         offset="0" /><stop
         id="stop14"
         style="stop-color:#0E6735"
         offset="5.276561e-03" /><stop
         id="stop16"
         style="stop-color:#10773C"
         offset="0.2161" /><stop
         id="stop18"
         style="stop-color:#108341"
         offset="0.4405" /><stop
         id="stop20"
         style="stop-color:#0E8A44"
         offset="0.6879" /><stop
         id="stop22"
         style="stop-color:#0E8C45"
         offset="1" /></linearGradient><linearGradient
       inkscape:collect="always"
       xlink:href="#SVGID_1_"
       id="linearGradient3038"
       gradientUnits="userSpaceOnUse"
       x1="16"
       y1="44"
       x2="16"
       y2="1.58032e-06"
       gradientTransform="matrix(0.77419355,0,0,0.79545455,-0.3870968,0)" /></defs><sodipodi:namedview
     pagecolor="#ffffff"
     bordercolor="#666666"
     borderopacity="1"
     objecttolerance="10"
     gridtolerance="10"
     guidetolerance="10"
     inkscape:pageopacity="0"
     inkscape:pageshadow="2"
     inkscape:window-width="786"
     inkscape:window-height="520"
     id="namedview45"
     showgrid="false"
     fit-margin-top="0"
     fit-margin-left="0"
     fit-margin-right="0"
     fit-margin-bottom="0"
     inkscape:zoom="6.5995526"
     inkscape:cx="-10.667284"
     inkscape:cy="17.5"
     inkscape:window-x="0"
     inkscape:window-y="0"
     inkscape:window-maximized="0"
     inkscape:current-layer="svg2" /><g
     id="Layer_1"
     transform="translate(-4,-4.5)" /><g
     id="NP-Shield_Green_Buffalo"
     transform="translate(-4,-4.5)" /><g
     id="NP-Shield_Black_Buffalo"
     transform="translate(-4,-4.5)" /><g
     id="NP-Shield_NP"
     transform="translate(-4,-4.5)" /><g
     id="NP-NP_Buffalo"
     transform="translate(-4,-4.5)" /><g
     id="NP-NP_Shield"
     transform="translate(-4,-4.5)" /><path
     inkscape:connector-curvature="0"
     style="fill:url(#linearGradient3038)"
     id="path24"
     d="M 24,12.170455 C 24,25.295455 12,35 12,35 12,35 0,24.659091 0,12.170455 0,5.4886364 5.3419355,0 12,0 18.658065,0 24,5.4886364 24,12.170455 z" /><g
     id="SP-Shield_SP"
     transform="translate(-4,-4.5)" /><g
     id="SP-SP_Buffalo"
     transform="translate(-4,-4.5)" /><g
     id="SP-SP_Shield"
     transform="translate(-4,-4.5)" /><g
     id="SP-SP"
     transform="translate(-4,-4.5)" /><g
     id="SP-SP_Tree"
     transform="translate(-4,-4.5)" /><g
     id="Hospital_H"
     transform="translate(-4,-4.5)" /><g
     id="Hospital_Cross"
     transform="translate(-4,-4.5)" /><g
     id="Orange_Map_Marker"
     transform="translate(-4,-4.5)" /><g
     id="Orange_Map_Marker_2"
     transform="translate(-4,-4.5)" /><g
     id="Orange_Map_Marker_3"
     transform="translate(-4,-4.5)" /><g
     id="Orange_Map_Marker_4"
     transform="translate(-4,-4.5)" /><g
     transform="matrix(1.1540937,0,0,1.3737627,-6.8117273,-25.839539)"
     id="g33"><path
       style="fill:#ffffff"
       inkscape:connector-curvature="0"
       id="path35"
       d="m 14,22 0,0 c -0.1,-0.1 -0.3,-0.1 -0.4,-0.2 0.1,-0.1 0.2,-0.1 0.3,0 0,0 0.1,0 0.1,0 0.1,0 0,0 -0.1,-0.1 0,0 0,0 0,0 0.1,0 0.1,-0.1 0.2,0 0.1,0 0.1,0 0.2,0.1 0.1,0 0,-0.1 -0.1,-0.1 0,0 0.1,0 0.1,0 0.1,0 0.2,0 0.2,0 0.1,0 0.2,0 0.2,0 0,0 1.3,-0.3 1.3,-0.3 -0.1,0 0.2,0.1 0.3,0.1 0,0 0.2,0 0.2,-0.1 0,0 0.2,0 0.2,0 0,0 0.6,0 0.6,0 0.1,0 0.2,0 0.3,0 0,0 0,0 0,0 0,0 0.2,0.1 0.4,0.1 0,0 0,0.1 0.1,0.1 -0.1,0 -0.2,0 0,0 0,0 0,0 0,0 0,0 0.1,0 0.1,0 0.1,0 0.3,0 0.4,0 0.1,0 0.2,0.1 0.3,0.1 0,0 0,0 0,0 0.1,0 0.2,0.1 0.2,0.1 0,0.1 0.1,0.1 0.1,0.1 0.1,0.1 0.2,0.2 0.2,0.2 0.1,0.1 0.1,0.2 0.2,0.3 0,0 0,0.1 0,0.1 -0.1,0.1 -0.2,0.1 -0.3,0.2 0,0 -0.1,0.1 -0.1,0.1 0,0.2 0,0.3 0.1,0.4 0,0 0,0.1 0.1,0.1 0.1,0 0.2,0 0.3,0 0.1,0 0.6,0.2 0.8,0.2 0,0 0,0 0,0 -0.1,0 0.2,0 0.2,0.1 0,0 0,0 0.1,0 0.2,0 0.3,0 0.5,-0.1 0,0 0.1,0 0.2,0 0.2,0 0.4,0.1 0.5,0.3 0.1,0.1 0.1,0.1 0.2,0.1 0,0.1 0,0.2 0,0.3 0,0.2 0,0.5 0,0.7 0,0.1 0,0.2 -0.1,0.2 -0.1,0.1 -0.1,0.3 0,0.4 0.1,0.2 0.1,0.3 0,0.5 0,0 0,0.1 0,0.1 0,0 0,0.1 0,0.1 0,0 0,0 0,0 0,0.1 0,0.2 -0.1,0.3 -0.1,0.1 0,0.2 0,0.3 0,0.1 0,0.2 0,0.3 -0.1,0.1 -0.1,0.3 -0.1,0.4 0,0.1 0,0.1 -0.1,0.1 -0.1,0.1 -0.2,0.2 -0.2,0.3 -0.1,0.1 -0.1,0.2 -0.1,0.4 0,0.1 0.1,0.2 0.1,0.4 0,0.1 0,0.2 0,0.2 0,0.1 -0.1,0.2 -0.1,0.3 0,0.1 -0.1,0.3 -0.1,0.4 0,0.1 0,0.1 -0.1,0.2 0,0.1 -0.1,0.1 -0.1,0.2 0,0 -0.1,0 -0.1,0 0,0.1 -0.1,0.2 -0.1,0.3 0,0 0,0.1 0,0.1 0,0.1 0,0.2 -0.1,0.3 -0.1,0.1 -0.1,0.1 -0.1,0.2 0,0 0,0.1 0,0.1 0,0 0,0.1 -0.1,0.1 0,0 -0.1,0.1 -0.1,0.1 0,0 0,0.1 -0.1,0.1 0,0 0,0.1 -0.1,0.1 -0.1,0.1 0,0.3 -0.1,0.3 0,0 0,0 -0.1,0 -0.2,0 -0.6,0.5 -0.4,0.5 0,0 0.1,0 0.1,0 0,0.1 0,0.2 0,0.4 0,0 0,0 0,0 0,0 0,-0.1 0,-0.1 0,0 -0.1,0.1 0,0.1 0,0.1 0,0.2 -0.1,0.2 -0.1,0 -0.1,0.1 -0.1,0.1 0,0 0,0.1 0,0.1 0,0.1 0,0.2 -0.1,0.2 0,0 -0.1,0 -0.1,0 0,0 0,0 0,0 0,0 0,0 0,0 0.1,0 0.2,0 0.3,0 0,0.1 -0.1,0.1 -0.1,0.2 0,0 0,0 -0.1,0 -0.1,0 -0.1,0.1 0,0.1 0,0.1 0,0.1 -0.1,0.2 -0.1,0 -0.2,0.1 -0.1,0.1 0,0.2 -0.1,0.3 -0.1,0.3 0,0 0,0 0,0 0,0 0,0 0,0.1 -0.1,0.1 -0.3,0.2 -0.2,0.2 -0.1,0.2 -0.4,0.3 -0.3,0.3 -0.1,0.1 -0.3,0.2 -0.2,0.2 0,0.1 0,0.1 -0.1,0.1 -0.1,0 -0.1,0.1 -0.1,0.1 0,0 0,0.1 -0.1,0.1 0,0 -0.1,0 -0.1,0 0,0 -0.1,0.1 -0.1,0.1 0,0 0.1,0 0.1,0 0,0 0.1,0 0.1,0.1 0,0 0,0.1 -0.1,0.1 -0.1,0 -0.2,0.1 -0.2,0.1 0,0 0.1,0 0.2,0 0,0.1 0,0.1 -0.1,0.1 -0.1,0.1 -0.3,0.1 -0.2,0.2 -0.1,0.1 -0.2,0.1 -0.3,0.2 -0.1,-0.1 -0.2,0.1 -0.1,0.1 -0.1,0.1 -0.1,0.1 -0.2,0.1 -0.1,0.1 -0.3,0.1 -0.4,0.1 0,0 0,0 0,0 0,0 0,0 0,0 0,0 0,0 0,0 -0.1,0 -0.3,0 -0.4,0 0,0 0,0 0,0 0,0 -0.1,0 -0.1,0 0,0 0,0 0,0 0,0 0,0 0,0 l 0,0 c 0,0 0,0 0,0 0,0 0,0 -0.1,0 -0.2,0 -0.3,0 -0.5,0 -0.1,0 -0.1,0 -0.2,0 0,0 0,0 -0.1,0 0,0 -0.1,-0.1 -0.1,-0.1 0.1,-0.1 0.1,-0.1 0,-0.1 -0.1,0 -0.1,0 -0.2,-0.1 -0.1,0 -0.1,-0.1 -0.2,-0.1 0.1,0 0.2,-0.1 0,-0.1 0,0 -0.1,0 -0.1,0 0,-0.1 0,-0.1 0,-0.2 0.1,0 0.1,-0.1 0,-0.1 0,0 0,-0.1 0,-0.1 0.1,0 -0.3,-0.2 -0.4,-0.2 0,0 0,0 -0.1,-0.1 0.1,0 0.1,0 0,0 0,0 0,0 0,0 -0.1,-0.1 -0.1,-0.1 -0.2,-0.2 0.1,0 0.1,0 0,0 -0.1,0 -0.1,0 -0.1,-0.2 0.1,0 0.1,0 0,-0.1 -0.1,0 -0.1,0 -0.2,-0.1 0,0 0,-0.1 0,-0.1 0.1,0 0.1,0 0,0 -0.1,-0.1 -0.3,-0.4 -0.3,-0.5 0.1,0 0,0 -0.1,0 -0.1,0 -0.2,-0.1 -0.2,-0.2 0.1,0 0,0 0,-0.2 0,0 -0.1,-0.2 -0.2,-0.2 0,0 0,0 0,0 0.1,0 -0.1,0 -0.2,-0.2 0.1,0 -0.1,0 -0.1,-0.2 0,0 0,0 0,0 0,0 -0.1,0 -0.2,-0.2 0.1,0 0.1,-0.1 0,-0.1 0,0 -0.1,-0.1 -0.1,-0.1 0,0 0,0 -0.1,0 -0.1,0 -0.2,0 -0.2,-0.1 0,0 0,-0.1 0,-0.1 0,-0.2 -0.1,-0.3 -0.2,-0.4 -0.1,-0.1 -0.2,-0.2 -0.2,-0.3 0,0 0,-0.1 -0.1,-0.1 0,0 0,-0.1 -0.1,-0.1 0,0 0,-0.1 -0.1,-0.1 0,0 -0.1,0 -0.1,-0.1 0,-0.1 0,-0.2 0,-0.3 0,-0.1 -0.1,-0.2 -0.1,-0.3 0,-0.1 0,-0.2 0,-0.3 0.1,0 0.1,-0.1 0,-0.1 0,0 0,-0.1 0,-0.2 0.1,0 0,-0.1 0,-0.1 0,0 0,-0.1 0,-0.1 0.1,0 -0.1,-0.1 -0.1,-0.2 0,-0.1 0,-0.1 0,-0.2 0,0 0,-0.1 0,-0.1 0,0 0,-0.1 0,-0.1 0.1,0 -0.1,-0.1 -0.1,-0.2 0,0 -0.1,-0.1 -0.1,-0.2 0.1,0 0.1,-0.2 0,-0.1 0,0 -0.1,0 -0.1,0 0,-0.1 -0.1,-0.1 -0.1,-0.2 0.1,0 0.1,-0.1 0,-0.1 0,0 0,0 0,-0.1 0,-0.1 0,-0.2 0,-0.3 0,0 0,0 0,-0.1 0,0 0,0 0,0 0,0 0.1,-0.1 0.1,-0.1 0.1,0 0.1,0 0.1,-0.1 0,0 0,0 -0.1,0 0,0 0,-0.1 0,-0.1 0.1,0 0,-0.1 0,-0.1 0,0 -0.1,0 -0.1,0 l 0,0 c 0,0 0,-0.1 0,-0.1 0,-0.1 0,-0.2 -0.1,-0.3 0,0 0,0 0,-0.1 0.1,0.1 0.1,-0.1 0,-0.1 0,0 0,0 0,0 0,0 -0.1,-0.1 -0.1,-0.1 0,0 0,0 0,0 0,-0.1 0,-0.1 0,-0.2 0,-0.1 0,-0.2 0,-0.3 0,0 0,-0.1 0,-0.1 0,0 0,-0.1 0,-0.1 0,0 0,0 0,0 0,0 0,0 0,0 0,-0.1 -0.1,-0.1 -0.1,-0.2 0,0 0,0 0,-0.1 -0.1,-0.1 -0.1,-0.3 0,-0.4 0,0 0,0 0,0 0,0 0,-0.1 0,-0.1 0.1,0 0.1,0 0.2,0 0,0 0,-0.1 0,-0.1 0,0 0,0 0,-0.1 0,0 0,-0.1 0.1,-0.1 0,0 0,0 0,0 -0.1,0 -0.1,0 -0.2,0 0,-0.1 0,-0.1 0.1,-0.2 0,0 0,0 0,0 0,0 0.1,0 0.1,-0.1 0,0 0,0 0,0 0,0 0,0 0,0 0,0 0,0 0,0.1 -0.1,0 -0.2,-0.1 -0.2,-0.2 0,0 0,0 -0.1,-0.1 0,0 -0.1,-0.1 -0.1,-0.1 0,-0.1 0,-0.2 0,-0.3 0,-0.1 0,-0.2 0,-0.3 0,0 0,-0.1 0,-0.2 0,-0.1 0,-0.1 0.1,-0.2 0.1,0 0.2,-0.1 0.3,-0.1 0,0 0,0 0.1,0 0.1,0 0.1,0 0.2,0 0.1,0 0.1,0 0,0 0.1,-0.1 0.3,-0.2 0.2,-0.2 0,-0.1 0.1,-0.1 0.1,-0.1 0.1,0 0.2,0 0.3,0 0.1,0 0.2,0.1 0.3,0.1 0.1,0.1 0.2,0.1 0.3,0.1 0.2,0 0.4,0.1 0.6,0.1 0.1,0 0.1,0 0.2,0 0.1,0 0.2,-0.3 0.1,-0.3 0,-0.2 0,-0.4 0,-0.6 -0.1,-0.1 -0.1,-0.2 -0.2,-0.4 -0.1,-0.1 0,-0.2 0,-0.3 0,0 0,0 0.1,0 0.1,0 0.2,0 0.3,0 0.1,0 0.1,0 0.2,0 0,0 0.1,0 0.1,0.1 0,0 -0.1,0 -0.1,0 0.1,0 0.2,0 0.2,-0.1 0,0 0,0 0,0 -0.1,0 -0.1,0 -0.2,-0.1 0,0 0.1,-0.1 0.1,-0.1 0,0 0,0 0.1,0 0.1,0.1 0.2,0.1 0.3,0.1 0,0 0,0 0.1,0 0,0 0.1,0 0.1,0 0,0 0,0 0,0 m -3.7,6.6 m 0.5,1.4 c 0,0 -0.1,0 0,0 0,0.1 0.1,0 0,0 z m 0.1,1 c 0,0 0,0 0,0 0.1,0 0.1,-0.1 0,0 z m 7.3,3.6" /></g></svg>