<?xml version="1.0" encoding="UTF-8" standalone="no"?>
<!-- Created with Inkscape (http://www.inkscape.org/) -->

<svg
   xmlns:dc="http://purl.org/dc/elements/1.1/"
   xmlns:cc="http://creativecommons.org/ns#"
   xmlns:rdf="http://www.w3.org/1999/02/22-rdf-syntax-ns#"
   xmlns:svg="http://www.w3.org/2000/svg"
   xmlns="http://www.w3.org/2000/svg"
   xmlns:xlink="http://www.w3.org/1999/xlink"
   xmlns:sodipodi="http://sodipodi.sourceforge.net/DTD/sodipodi-0.dtd"
   xmlns:inkscape="http://www.inkscape.org/namespaces/inkscape"
   width="64.599998"
   height="92.800003"
   id="svg7245"
   version="1.1"
   inkscape:version="0.48.5 r10040"
   sodipodi:docname="New document 27">
  <defs
     id="defs7247">
    <linearGradient
       inkscape:collect="always"
       xlink:href="#SVGID_24_"
       id="linearGradient6607"
       gradientUnits="userSpaceOnUse"
       x1="148.61301"
       y1="401.7742"
       x2="148.61301"
       y2="309" />
    <linearGradient
       y2="309"
       x2="148.61301"
       y1="401.7742"
       x1="148.61301"
       gradientUnits="userSpaceOnUse"
       id="SVGID_24_">
      <stop
         id="stop5663"
         style="stop-color:#9B1D21"
         offset="0" />
      <stop
         id="stop5665"
         style="stop-color:#A61F23"
         offset="0.1258" />
      <stop
         id="stop5667"
         style="stop-color:#B62026"
         offset="0.3761" />
      <stop
         id="stop5669"
         style="stop-color:#C02127"
         offset="0.652" />
      <stop
         id="stop5671"
         style="stop-color:#C32127"
         offset="1" />
    </linearGradient>
    <linearGradient
       gradientTransform="translate(226.4,176.96218)"
       y2="309"
       x2="148.61301"
       y1="401.7742"
       x1="148.61301"
       gradientUnits="userSpaceOnUse"
       id="linearGradient7243"
       xlink:href="#SVGID_24_"
       inkscape:collect="always" />
  </defs>
  <sodipodi:namedview
     id="base"
     pagecolor="#ffffff"
     bordercolor="#666666"
     borderopacity="1.0"
     inkscape:pageopacity="0.0"
     inkscape:pageshadow="2"
     inkscape:zoom="0.35"
     inkscape:cx="32.3"
     inkscape:cy="46.399997"
     inkscape:document-units="px"
     inkscape:current-layer="layer1"
     showgrid="false"
     fit-margin-top="0"
     fit-margin-left="0"
     fit-margin-right="0"
     fit-margin-bottom="0"
     inkscape:window-width="472"
     inkscape:window-height="412"
     inkscape:window-x="729"
     inkscape:window-y="278"
     inkscape:window-maximized="0" />
  <metadata
     id="metadata7250">
    <rdf:RDF>
      <cc:Work
         rdf:about="">
        <dc:format>image/svg+xml</dc:format>
        <dc:type
           rdf:resource="http://purl.org/dc/dcmitype/StillImage" />
        <dc:title></dc:title>
      </cc:Work>
    </rdf:RDF>
  </metadata>
  <g
     inkscape:label="Layer 1"
     inkscape:groupmode="layer"
     id="layer1"
     transform="translate(-342.7,-485.96218)">
    <path
       inkscape:connector-curvature="0"
       style="fill:url(#linearGradient7243)"
       id="path5673"
       d="m 407.3,518.26218 c 0,34.7 -32.3,60.5 -32.3,60.5 0,0 -32.3,-27.4 -32.3,-60.5 0,-17.8 14.4,-32.3 32.3,-32.3 17.9,0 32.3,14.4 32.3,32.3 z" />
    <g
       transform="translate(226.4,176.96218)"
       id="_x38_97-graduation-cap-toolbar-selected_x40_2x.png_2_">
      <g
         id="g5676">
        <path
           style="fill:#ffffff"
           inkscape:connector-curvature="0"
           id="path5678"
           d="m 130.2,345.4 c 0.7,-0.6 1.2,-1.6 1.2,-2.6 0,-1.3 -0.8,-2.5 -1.9,-3 0.1,-0.4 0.2,-0.7 0.3,-1.1 l -2.3,-0.6 c -0.1,0.5 -0.3,0.9 -0.3,1.4 -1.5,0.3 -2.7,1.7 -2.7,3.3 0,1.5 1,2.8 2.3,3.2 -0.2,3.2 -1,7.1 -3.2,9.8 -0.4,0.5 -0.3,1.2 0.2,1.6 0.2,0.2 0.5,0.3 0.7,0.3 0.3,0 0.7,-0.1 0.9,-0.4 1.8,-2.2 2.8,-5.1 3.3,-7.8 l 1.6,7.3 c 0.1,0.5 0.6,0.9 1.1,0.9 0.1,0 0.2,0 0.2,0 0.6,-0.1 1,-0.7 0.9,-1.4 l -2.3,-10.9 z M 128,344 c -0.6,0 -1.1,-0.5 -1.1,-1.1 0,-0.6 0.5,-1.1 1.1,-1.1 0.6,0 1.1,0.5 1.1,1.1 0,0.5 -0.5,1.1 -1.1,1.1 z m 34.4,9 -0.8,-12.6 -12.6,3.6 0,0 c -0.1,0 -0.3,0.1 -0.4,0.1 -0.1,0 -0.3,0 -0.4,-0.1 l 0,0 -12.5,-3.6 -0.8,12.6 0,0 c 0,0 0,0.1 0,0.1 0,0.6 0.5,1.1 1.1,1.1 0.2,0 0.4,-0.1 0.5,-0.1 l 0,0 0.1,-0.1 c 0.1,-0.1 0.2,-0.1 0.2,-0.2 l 4.8,-3.8 6.1,6.1 c 0,0 0.1,0.1 0.1,0.1 l 0.1,0.1 0,0 c 0.2,0.1 0.4,0.2 0.7,0.2 0.3,0 0.5,-0.1 0.7,-0.2 l 0,0 0.1,-0.1 c 0,0 0.1,-0.1 0.1,-0.1 l 6.1,-6.1 4.8,3.8 c 0.1,0.1 0.1,0.1 0.2,0.2 l 0.1,0.1 0,0 c 0.2,0.1 0.3,0.1 0.5,0.1 0.6,0 1.1,-0.5 1.1,-1.1 0.1,0 0,-0.1 0.1,-0.1 l 0,0 z m 11.4,-19.4 c 0,-0.5 -0.3,-0.9 -0.8,-1.1 l 0,0 -24.1,-6.9 0,0 c -0.1,0 -0.3,-0.1 -0.4,-0.1 -0.1,0 -0.3,0 -0.4,0.1 l 0,0 -24.1,6.9 0,0 c -0.4,0.2 -0.8,0.6 -0.8,1.1 0,0.5 0.3,0.9 0.8,1.1 l 0,0 0.7,0.2 c 0,0 0,0 0,0 l 0,0 23.7,6.8 23.7,-6.8 0,0 c 0,0 0,0 0,0 l 0.7,-0.2 0,0 c 0.7,-0.2 1,-0.6 1,-1.1 z" />
      </g>
    </g>
  </g>
</svg>
