<?xml version="1.0" encoding="UTF-8" standalone="no"?>
<svg
   xmlns:dc="http://purl.org/dc/elements/1.1/"
   xmlns:cc="http://creativecommons.org/ns#"
   xmlns:rdf="http://www.w3.org/1999/02/22-rdf-syntax-ns#"
   xmlns:svg="http://www.w3.org/2000/svg"
   xmlns="http://www.w3.org/2000/svg"
   xmlns:sodipodi="http://sodipodi.sourceforge.net/DTD/sodipodi-0.dtd"
   xmlns:inkscape="http://www.inkscape.org/namespaces/inkscape"
   id="Extra_small_Icons_for_Menu"
   data-name="Extra small Icons for Menu"
   viewBox="0 0 12.999718 15.244"
   version="1.1"
   inkscape:version="0.48.5 r10040"
   width="13"
   height="15"
   sodipodi:docname="brc.svg">
  <metadata
     id="metadata14">
    <rdf:RDF>
      <cc:Work
         rdf:about="">
        <dc:format>image/svg+xml</dc:format>
        <dc:type
           rdf:resource="http://purl.org/dc/dcmitype/StillImage" />
      </cc:Work>
    </rdf:RDF>
  </metadata>
  <sodipodi:namedview
     pagecolor="#ffffff"
     bordercolor="#666666"
     borderopacity="1"
     objecttolerance="10"
     gridtolerance="10"
     guidetolerance="10"
     inkscape:pageopacity="0"
     inkscape:pageshadow="2"
     inkscape:window-width="850"
     inkscape:window-height="618"
     id="namedview12"
     showgrid="false"
     inkscape:zoom="14.75"
     inkscape:cx="-4.9438699"
     inkscape:cy="7.637"
     inkscape:window-x="929"
     inkscape:window-y="236"
     inkscape:window-maximized="0"
     inkscape:current-layer="Extra_small_Icons_for_Menu"
     fit-margin-top="0"
     fit-margin-left="0"
     fit-margin-right="0"
     fit-margin-bottom="0" />
  <defs
     id="defs3">
    <style
       id="style5">.cls-1{fill:#fff;}</style>
  </defs>
  <title
     id="title7">scott</title>
  <g
     id="_178-city.png"
     data-name="178-city.png"
     transform="scale(0.95096694,0.95096694)">
    <path
       class="cls-1"
       d="m 13,5.93 v -0.6 h -0.56 v 0.6 h -0.59 v -0.6 h -0.59 v 0.6 H 10.67 V 16 h 3 V 5.93 H 13 z m -1.18,8.3 h -0.56 v -0.6 h 0.59 v 0.59 z m 0,-1.19 h -0.56 v -0.6 h 0.59 V 13 z m 0,-1.19 h -0.56 v -0.59 h 0.59 v 0.59 z m 0,-1.19 h -0.56 v -0.59 h 0.59 v 0.59 z m 0,-1.19 H 11.26 V 8.89 h 0.59 v 0.59 z m 0,-1.19 H 11.26 V 7.7 h 0.59 v 0.6 z m 0,-1.19 H 11.26 V 6.52 h 0.59 V 7.11 z M 13,14.22 H 12.45 V 13.63 H 13 v 0.59 z M 13,13 H 12.45 V 12.44 H 13 V 13 z m 0,-1.19 H 12.45 V 11.26 H 13 v 0.59 z m 0,-1.19 H 12.45 V 10.07 H 13 v 0.59 z M 13,9.43 H 12.45 V 8.89 H 13 V 9.48 z M 13,8.3 H 12.45 V 7.7 H 13 V 8.3 z M 13,7.11 H 12.45 V 6.52 H 13 V 7.11 z M 2.37,1.78 H 0.59 V 3 H 0 V 16 H 3 V 3 H 2.37 V 1.78 z m -1.18,13 h -0.6 v -0.56 h 0.6 v 0.59 z m 0,-1.19 H 0.59 V 13 h 0.6 v 0.59 z m 0,-1.19 h -0.6 v -0.55 h 0.6 v 0.59 z m 0,-1.19 h -0.6 v -0.54 h 0.6 v 0.59 z m 0,-1.19 H 0.59 V 9.48 h 0.6 v 0.59 z m 0,-1.19 H 0.59 V 8.3 h 0.6 v 0.59 z m 0,-1.19 H 0.59 V 7.11 h 0.6 V 7.7 z m 0,-1.19 H 0.59 V 5.93 h 0.6 v 0.59 z m 0,-1.19 H 0.59 V 4.74 h 0.6 v 0.59 z m 1.19,9.48 h -0.6 v -0.52 h 0.59 v 0.59 z m 0,-1.19 H 1.78 V 13 h 0.59 v 0.59 z m 0,-1.19 h -0.6 v -0.51 h 0.59 v 0.59 z m 0,-1.19 h -0.6 v -0.5 h 0.59 v 0.59 z m 0,-1.19 h -0.6 v -0.5 h 0.59 v 0.59 z m 0,-1.19 H 1.78 V 8.3 h 0.59 v 0.59 z m 0,-1.19 H 1.78 V 7.11 H 2.37 V 7.7 z m 0,-1.19 H 1.78 V 5.93 h 0.59 v 0.59 z m 0,-1.78 v 0.7 H 1.78 V 4.74 H 2.37 z M 3.56,16 h 3 V 4.74 h -3 V 16 z M 5.33,5.33 h 0.6 v 0.6 h -0.6 v -0.6 z m 0,1.19 h 0.6 V 7.11 H 5.33 V 6.52 z m 0,1.19 h 0.6 V 8.3 H 5.33 V 7.7 z m 0,1.19 h 0.6 V 9.48 H 5.33 V 8.89 z m 0,1.19 h 0.6 v 0.59 h -0.6 v -0.61 z m 0,1.19 h 0.6 v 0.59 h -0.6 v -0.61 z m 0,1.19 h 0.6 V 13 h -0.6 v -0.56 z m 0,1.19 h 0.6 v 0.59 H 5.33 V 13.63 z M 4.15,5.33 h 0.59 v 0.6 H 4.15 v -0.6 z m 0,1.19 H 4.74 V 7.11 H 4.15 V 6.52 z m 0,1.19 H 4.74 V 8.3 H 4.15 V 7.7 z m 0,1.19 H 4.74 V 9.48 H 4.15 V 8.89 z m 0,1.19 h 0.59 v 0.59 H 4.15 v -0.61 z m 0,1.19 h 0.59 v 0.59 H 4.15 v -0.61 z m 0,1.19 H 4.74 V 13 H 4.15 v -0.56 z m 0,1.19 h 0.59 v 0.59 H 4.15 v -0.62 z m 3,2.37 h 3 V 0 l -3,1.78 V 16 z M 8.89,2.37 H 9.48 V 3 H 8.89 V 2.37 z m 0,1.19 H 9.48 V 4.15 H 8.89 V 3.56 z m 0,1.19 H 9.48 V 5.33 H 8.89 V 4.74 z m 0,1.19 H 9.48 V 6.52 H 8.89 V 5.93 z m 0,1.19 H 9.48 V 7.7 H 8.89 V 7.11 z m 0,1.19 H 9.48 V 8.89 H 8.89 V 8.3 z m 0,1.19 H 9.48 V 10.1 H 8.89 V 9.48 z m 0,1.19 h 0.59 v 0.59 H 8.89 v -0.62 z m 0,1.19 h 0.59 v 0.59 H 8.89 v -0.63 z m 0,1.19 h 0.59 v 0.59 H 8.89 V 13 z m 0,1.19 h 0.59 v 0.59 H 8.89 V 14.22 z M 7.7,2.37 H 8.3 V 3 H 7.7 V 2.37 z m 0,1.19 H 8.3 V 4.15 H 7.7 V 3.56 z m 0,1.19 H 8.3 V 5.33 H 7.7 V 4.74 z m 0,1.19 H 8.3 V 6.52 H 7.7 V 5.93 z m 0,1.19 H 8.3 V 7.7 H 7.7 V 7.11 z m 0,1.19 H 8.3 V 8.89 H 7.7 V 8.3 z m 0,1.19 H 8.3 V 10.1 H 7.7 V 9.48 z m 0,1.19 h 0.6 v 0.59 H 7.7 v -0.62 z m 0,1.19 h 0.6 v 0.59 H 7.7 v -0.63 z m 0,1.11 h 0.6 v 0.59 H 7.7 V 13 z m 0,1.19 h 0.6 v 0.59 H 7.7 v -0.56 z"
       id="path10"
       inkscape:connector-curvature="0"
       style="fill:#ffffff" />
  </g>
</svg>
