<?xml version="1.0" encoding="UTF-8" standalone="no"?>
<!-- Created with Inkscape (http://www.inkscape.org/) -->

<svg
   xmlns:dc="http://purl.org/dc/elements/1.1/"
   xmlns:cc="http://creativecommons.org/ns#"
   xmlns:rdf="http://www.w3.org/1999/02/22-rdf-syntax-ns#"
   xmlns:svg="http://www.w3.org/2000/svg"
   xmlns="http://www.w3.org/2000/svg"
   xmlns:sodipodi="http://sodipodi.sourceforge.net/DTD/sodipodi-0.dtd"
   xmlns:inkscape="http://www.inkscape.org/namespaces/inkscape"
   width="29"
   height="24"
   id="svg7760"
   version="1.1"
   inkscape:version="0.48.5 r10040"
   sodipodi:docname="broadband.svg">
  <defs
     id="defs7762" />
  <sodipodi:namedview
     id="base"
     pagecolor="#ffffff"
     bordercolor="#666666"
     borderopacity="1.0"
     inkscape:pageopacity="0.0"
     inkscape:pageshadow="2"
     inkscape:zoom="8.3825816"
     inkscape:cx="14.499997"
     inkscape:cy="12"
     inkscape:document-units="px"
     inkscape:current-layer="layer1"
     showgrid="false"
     fit-margin-top="0"
     fit-margin-left="0"
     fit-margin-right="0"
     fit-margin-bottom="0"
     inkscape:window-width="1303"
     inkscape:window-height="764"
     inkscape:window-x="266"
     inkscape:window-y="267"
     inkscape:window-maximized="0" />
  <metadata
     id="metadata7765">
    <rdf:RDF>
      <cc:Work
         rdf:about="">
        <dc:format>image/svg+xml</dc:format>
        <dc:type
           rdf:resource="http://purl.org/dc/dcmitype/StillImage" />
        <dc:title></dc:title>
      </cc:Work>
    </rdf:RDF>
  </metadata>
  <g
     inkscape:label="Layer 1"
     inkscape:groupmode="layer"
     id="layer1"
     transform="translate(-360.5,-520.36218)">
    <g
       transform="matrix(0.37516171,0,0,0.37325039,228.2555,340.56747)"
       id="_x36_9-display.png"
       style="fill:#ffffff">
      <g
         id="g5225"
         style="fill:#ffffff">
        <path
           style="fill:#ffffff"
           inkscape:connector-curvature="0"
           id="path5227"
           d="m 423.3,481.7 h -64.4 c -3.5,0 -6.4,2.9 -6.4,6.4 v 35.4 c 0,3.5 2.9,6.4 6.4,6.4 h 25.8 v 12.9 h -3.2 c -3.2,0 -3.2,3.2 -3.2,3.2 H 404 c 0,-3.2 -3.2,-3.2 -3.2,-3.2 0,0 -1.3,0 -3.2,0 V 530 h 25.8 c 3.5,0 6.4,-2.9 6.4,-6.4 v -35.4 c -0.1,-3.6 -3,-6.5 -6.5,-6.5 z m 0,41.9 h -64.4 v -35.4 h 64.4 v 35.4 z" />
      </g>
    </g>
  </g>
</svg>
