<?xml version="1.0" encoding="UTF-8" standalone="no"?>
<!-- Created with Inkscape (http://www.inkscape.org/) -->

<svg
   xmlns:dc="http://purl.org/dc/elements/1.1/"
   xmlns:cc="http://creativecommons.org/ns#"
   xmlns:rdf="http://www.w3.org/1999/02/22-rdf-syntax-ns#"
   xmlns:svg="http://www.w3.org/2000/svg"
   xmlns="http://www.w3.org/2000/svg"
   xmlns:sodipodi="http://sodipodi.sourceforge.net/DTD/sodipodi-0.dtd"
   xmlns:inkscape="http://www.inkscape.org/namespaces/inkscape"
   width="14"
   height="13.228345"
   id="svg3532"
   version="1.1"
   inkscape:version="0.48.5 r10040"
   sodipodi:docname="New document 12">
  <defs
     id="defs3534" />
  <sodipodi:namedview
     id="base"
     pagecolor="#ffffff"
     bordercolor="#666666"
     borderopacity="1.0"
     inkscape:pageopacity="0.0"
     inkscape:pageshadow="2"
     inkscape:zoom="0.35"
     inkscape:cx="73.428576"
     inkscape:cy="-124.81441"
     inkscape:document-units="px"
     inkscape:current-layer="layer1"
     showgrid="false"
     fit-margin-top="0"
     fit-margin-left="0"
     fit-margin-right="0"
     fit-margin-bottom="0"
     inkscape:window-width="730"
     inkscape:window-height="412"
     inkscape:window-x="670"
     inkscape:window-y="320"
     inkscape:window-maximized="0" />
  <metadata
     id="metadata3537">
    <rdf:RDF>
      <cc:Work
         rdf:about="">
        <dc:format>image/svg+xml</dc:format>
        <dc:type
           rdf:resource="http://purl.org/dc/dcmitype/StillImage" />
        <dc:title></dc:title>
      </cc:Work>
    </rdf:RDF>
  </metadata>
  <g
     inkscape:label="Layer 1"
     inkscape:groupmode="layer"
     id="layer1"
     transform="translate(-301.57142,-394.31943)">
    <g
       transform="matrix(0.3230356,0,0,0.3230356,204.01518,362.01587)"
       id="_x31_29-golf.png_2_">
      <g
         id="g5564">
        <path
           style="fill:#ffffff"
           inkscape:connector-curvature="0"
           id="path5566"
           d="m 343.5,122.1 c -5.3,-6 -15.9,-4.4 -21.9,-0.4 -3.2,2.1 -4.9,5.8 -8,8 -0.8,0.6 -1.7,0.9 -2.6,1.2 -0.5,0.1 -0.9,0.2 -1.4,0.3 v -19 l 19.7,-6.1 -19.7,-6.1 H 308 v 31.5 c -1.9,0.4 -3.8,0.8 -5,2.3 -2.8,3.4 0.8,6.3 4.3,6.8 5,0.7 10.1,0.2 15.1,-0.2 4.9,-0.4 10,-1 14.3,-3.3 3.3,-1.7 7,-4 8.2,-7.6 0.9,-2.6 0.4,-5.4 -1.4,-7.4 z M 308,138.8 c -2,-0.3 -3.4,-1.2 -3.4,-2.3 0,-1.1 1.5,-2.1 3.4,-2.3 v 4.6 z m 1.6,0 v -4.7 c 2.3,0.1 4,1.1 4,2.4 0,1.2 -1.8,2.2 -4,2.3 z" />
      </g>
    </g>
  </g>
</svg>
