<?xml version="1.0" encoding="UTF-8" standalone="no"?>
<!-- Created with Inkscape (http://www.inkscape.org/) -->

<svg
   xmlns:dc="http://purl.org/dc/elements/1.1/"
   xmlns:cc="http://creativecommons.org/ns#"
   xmlns:rdf="http://www.w3.org/1999/02/22-rdf-syntax-ns#"
   xmlns:svg="http://www.w3.org/2000/svg"
   xmlns="http://www.w3.org/2000/svg"
   xmlns:sodipodi="http://sodipodi.sourceforge.net/DTD/sodipodi-0.dtd"
   xmlns:inkscape="http://www.inkscape.org/namespaces/inkscape"
   width="10"
   height="15.550777"
   id="svg3007"
   version="1.1"
   inkscape:version="0.48.5 r10040"
   sodipodi:docname="New document 2">
  <defs
     id="defs3009" />
  <sodipodi:namedview
     id="base"
     pagecolor="#ffffff"
     bordercolor="#666666"
     borderopacity="1.0"
     inkscape:pageopacity="0.0"
     inkscape:pageshadow="2"
     inkscape:zoom="0.35"
     inkscape:cx="68.571425"
     inkscape:cy="-249.36747"
     inkscape:document-units="px"
     inkscape:current-layer="layer1"
     showgrid="false"
     fit-margin-top="0"
     fit-margin-left="0"
     fit-margin-right="0"
     fit-margin-bottom="0"
     inkscape:window-width="730"
     inkscape:window-height="412"
     inkscape:window-x="749"
     inkscape:window-y="298"
     inkscape:window-maximized="0" />
  <metadata
     id="metadata3012">
    <rdf:RDF>
      <cc:Work
         rdf:about="">
        <dc:format>image/svg+xml</dc:format>
        <dc:type
           rdf:resource="http://purl.org/dc/dcmitype/StillImage" />
        <dc:title></dc:title>
      </cc:Work>
    </rdf:RDF>
  </metadata>
  <g
     inkscape:label="Layer 1"
     inkscape:groupmode="layer"
     id="layer1"
     transform="translate(-306.42858,-267.44393)">
    <g
       transform="matrix(0.31607272,0,0,0.31607272,264.54894,201.2267)"
       id="_x35_25-train.png_4_">
      <g
         id="g5622">
        <path
           style="fill:#ffffff"
           inkscape:connector-curvature="0"
           id="path5624"
           d="m 153.9,251.7 0.9,1.8 h -12.3 l 0.9,-1.8 h -5.3 l -3.5,7 h 5.3 l 0.9,-1.8 h 15.8 l 0.9,1.8 h 5.3 l -3.5,-7 h -5.4 z m 7,-38.6 h -5.3 v -1.8 c 0,-1 -0.8,-1.8 -1.8,-1.8 H 152 c -1,0 -1.8,0.8 -1.8,1.8 v 1.8 h -3.5 v -1.8 c 0,-1 -0.8,-1.8 -1.8,-1.8 h -1.8 c -1,0 -1.8,0.8 -1.8,1.8 v 1.8 H 136 c -1.9,0 -3.5,1.6 -3.5,3.5 v 29.9 c 0,1.9 1.6,3.5 3.5,3.5 h 24.6 c 1.9,0 3.5,-1.6 3.5,-3.5 v -29.9 c 0.3,-2 -1.2,-3.5 -3.2,-3.5 z m -15.8,3.5 h 7 c 1,0 1.8,0.8 1.8,1.8 0,1 -0.8,1.8 -1.8,1.8 h -7 c -1,0 -1.8,-0.8 -1.8,-1.8 0,-1 0.8,-1.8 1.8,-1.8 z m -4.4,28.1 c -1.5,0 -2.6,-1.2 -2.6,-2.6 0,-1.5 1.2,-2.6 2.6,-2.6 1.5,0 2.6,1.2 2.6,2.6 0,1.4 -1.1,2.6 -2.6,2.6 z m 15.8,0 c -1.5,0 -2.6,-1.2 -2.6,-2.6 0,-1.5 1.2,-2.6 2.6,-2.6 1.5,0 2.6,1.2 2.6,2.6 0.1,1.4 -1.1,2.6 -2.6,2.6 z m 4.4,-12.3 c 0,1 -0.8,1.8 -1.8,1.8 H 138 c -1,0 -1.8,-0.8 -1.8,-1.8 v -7 c 0,-1 0.8,-1.8 1.8,-1.8 h 21.1 c 1,0 1.8,0.8 1.8,1.8 v 7 z" />
      </g>
    </g>
  </g>
</svg>
