<?xml version="1.0" encoding="UTF-8" standalone="no"?>
<!-- Created with Inkscape (http://www.inkscape.org/) -->

<svg
   xmlns:dc="http://purl.org/dc/elements/1.1/"
   xmlns:cc="http://creativecommons.org/ns#"
   xmlns:rdf="http://www.w3.org/1999/02/22-rdf-syntax-ns#"
   xmlns:svg="http://www.w3.org/2000/svg"
   xmlns="http://www.w3.org/2000/svg"
   xmlns:sodipodi="http://sodipodi.sourceforge.net/DTD/sodipodi-0.dtd"
   xmlns:inkscape="http://www.inkscape.org/namespaces/inkscape"
   width="12.000001"
   height="16"
   id="svg3032"
   version="1.1"
   inkscape:version="0.48.5 r10040"
   sodipodi:docname="New document 2">
  <defs
     id="defs3034" />
  <sodipodi:namedview
     id="base"
     pagecolor="#ffffff"
     bordercolor="#666666"
     borderopacity="1.0"
     inkscape:pageopacity="0.0"
     inkscape:pageshadow="2"
     inkscape:zoom="0.35"
     inkscape:cx="826.09487"
     inkscape:cy="-178.2682"
     inkscape:document-units="px"
     inkscape:current-layer="layer1"
     showgrid="false"
     fit-margin-top="0"
     fit-margin-left="0"
     fit-margin-right="0"
     fit-margin-bottom="0"
     inkscape:window-width="820"
     inkscape:window-height="412"
     inkscape:window-x="967"
     inkscape:window-y="647"
     inkscape:window-maximized="0" />
  <metadata
     id="metadata3037">
    <rdf:RDF>
      <cc:Work
         rdf:about="">
        <dc:format>image/svg+xml</dc:format>
        <dc:type
           rdf:resource="http://purl.org/dc/dcmitype/StillImage" />
        <dc:title></dc:title>
      </cc:Work>
    </rdf:RDF>
  </metadata>
  <g
     inkscape:label="Layer 1"
     inkscape:groupmode="layer"
     id="layer1"
     transform="translate(-30.333705,-338.09398)">
    <g
       transform="matrix(1.0169492,0,0,1.0666667,19.757433,315.26731)"
       id="g33">
      <path
         style="fill:#ffffff"
         inkscape:connector-curvature="0"
         id="path35"
         d="m 14,22 0,0 c -0.1,-0.1 -0.3,-0.1 -0.4,-0.2 0.1,-0.1 0.2,-0.1 0.3,0 0,0 0.1,0 0.1,0 0.1,0 0,0 -0.1,-0.1 0,0 0,0 0,0 0.1,0 0.1,-0.1 0.2,0 0.1,0 0.1,0 0.2,0.1 0.1,0 0,-0.1 -0.1,-0.1 0,0 0.1,0 0.1,0 0.1,0 0.2,0 0.2,0 0.1,0 0.2,0 0.2,0 0,0 1.3,-0.3 1.3,-0.3 -0.1,0 0.2,0.1 0.3,0.1 0,0 0.2,0 0.2,-0.1 0,0 0.2,0 0.2,0 0,0 0.6,0 0.6,0 0.1,0 0.2,0 0.3,0 0,0 0,0 0,0 0,0 0.2,0.1 0.4,0.1 0,0 0,0.1 0.1,0.1 -0.1,0 -0.2,0 0,0 0,0 0,0 0,0 0,0 0.1,0 0.1,0 0.1,0 0.3,0 0.4,0 0.1,0 0.2,0.1 0.3,0.1 0,0 0,0 0,0 0.1,0 0.2,0.1 0.2,0.1 0,0.1 0.1,0.1 0.1,0.1 0.1,0.1 0.2,0.2 0.2,0.2 0.1,0.1 0.1,0.2 0.2,0.3 0,0 0,0.1 0,0.1 -0.1,0.1 -0.2,0.1 -0.3,0.2 0,0 -0.1,0.1 -0.1,0.1 0,0.2 0,0.3 0.1,0.4 0,0 0,0.1 0.1,0.1 0.1,0 0.2,0 0.3,0 0.1,0 0.6,0.2 0.8,0.2 0,0 0,0 0,0 -0.1,0 0.2,0 0.2,0.1 0,0 0,0 0.1,0 0.2,0 0.3,0 0.5,-0.1 0,0 0.1,0 0.2,0 0.2,0 0.4,0.1 0.5,0.3 0.1,0.1 0.1,0.1 0.2,0.1 0,0.1 0,0.2 0,0.3 0,0.2 0,0.5 0,0.7 0,0.1 0,0.2 -0.1,0.2 -0.1,0.1 -0.1,0.3 0,0.4 0.1,0.2 0.1,0.3 0,0.5 0,0 0,0.1 0,0.1 0,0 0,0.1 0,0.1 0,0 0,0 0,0 0,0.1 0,0.2 -0.1,0.3 -0.1,0.1 0,0.2 0,0.3 0,0.1 0,0.2 0,0.3 -0.1,0.1 -0.1,0.3 -0.1,0.4 0,0.1 0,0.1 -0.1,0.1 -0.1,0.1 -0.2,0.2 -0.2,0.3 -0.1,0.1 -0.1,0.2 -0.1,0.4 0,0.1 0.1,0.2 0.1,0.4 0,0.1 0,0.2 0,0.2 0,0.1 -0.1,0.2 -0.1,0.3 0,0.1 -0.1,0.3 -0.1,0.4 0,0.1 0,0.1 -0.1,0.2 0,0.1 -0.1,0.1 -0.1,0.2 0,0 -0.1,0 -0.1,0 0,0.1 -0.1,0.2 -0.1,0.3 0,0 0,0.1 0,0.1 0,0.1 0,0.2 -0.1,0.3 -0.1,0.1 -0.1,0.1 -0.1,0.2 0,0 0,0.1 0,0.1 0,0 0,0.1 -0.1,0.1 0,0 -0.1,0.1 -0.1,0.1 0,0 0,0.1 -0.1,0.1 0,0 0,0.1 -0.1,0.1 -0.1,0.1 0,0.3 -0.1,0.3 0,0 0,0 -0.1,0 -0.2,0 -0.6,0.5 -0.4,0.5 0,0 0.1,0 0.1,0 0,0.1 0,0.2 0,0.4 0,0 0,0 0,0 0,0 0,-0.1 0,-0.1 0,0 -0.1,0.1 0,0.1 0,0.1 0,0.2 -0.1,0.2 -0.1,0 -0.1,0.1 -0.1,0.1 0,0 0,0.1 0,0.1 0,0.1 0,0.2 -0.1,0.2 0,0 -0.1,0 -0.1,0 0,0 0,0 0,0 0,0 0,0 0,0 0.1,0 0.2,0 0.3,0 0,0.1 -0.1,0.1 -0.1,0.2 0,0 0,0 -0.1,0 -0.1,0 -0.1,0.1 0,0.1 0,0.1 0,0.1 -0.1,0.2 -0.1,0 -0.2,0.1 -0.1,0.1 0,0.2 -0.1,0.3 -0.1,0.3 0,0 0,0 0,0 0,0 0,0 0,0.1 -0.1,0.1 -0.3,0.2 -0.2,0.2 -0.1,0.2 -0.4,0.3 -0.3,0.3 -0.1,0.1 -0.3,0.2 -0.2,0.2 0,0.1 0,0.1 -0.1,0.1 -0.1,0 -0.1,0.1 -0.1,0.1 0,0 0,0.1 -0.1,0.1 0,0 -0.1,0 -0.1,0 0,0 -0.1,0.1 -0.1,0.1 0,0 0.1,0 0.1,0 0,0 0.1,0 0.1,0.1 0,0 0,0.1 -0.1,0.1 -0.1,0 -0.2,0.1 -0.2,0.1 0,0 0.1,0 0.2,0 0,0.1 0,0.1 -0.1,0.1 -0.1,0.1 -0.3,0.1 -0.2,0.2 -0.1,0.1 -0.2,0.1 -0.3,0.2 -0.1,-0.1 -0.2,0.1 -0.1,0.1 -0.1,0.1 -0.1,0.1 -0.2,0.1 -0.1,0.1 -0.3,0.1 -0.4,0.1 0,0 0,0 0,0 0,0 0,0 0,0 0,0 0,0 0,0 -0.1,0 -0.3,0 -0.4,0 0,0 0,0 0,0 0,0 -0.1,0 -0.1,0 0,0 0,0 0,0 0,0 0,0 0,0 l 0,0 c 0,0 0,0 0,0 0,0 0,0 -0.1,0 -0.2,0 -0.3,0 -0.5,0 -0.1,0 -0.1,0 -0.2,0 0,0 0,0 -0.1,0 0,0 -0.1,-0.1 -0.1,-0.1 0.1,-0.1 0.1,-0.1 0,-0.1 -0.1,0 -0.1,0 -0.2,-0.1 -0.1,0 -0.1,-0.1 -0.2,-0.1 0.1,0 0.2,-0.1 0,-0.1 0,0 -0.1,0 -0.1,0 0,-0.1 0,-0.1 0,-0.2 0.1,0 0.1,-0.1 0,-0.1 0,0 0,-0.1 0,-0.1 0.1,0 -0.3,-0.2 -0.4,-0.2 0,0 0,0 -0.1,-0.1 0.1,0 0.1,0 0,0 0,0 0,0 0,0 -0.1,-0.1 -0.1,-0.1 -0.2,-0.2 0.1,0 0.1,0 0,0 -0.1,0 -0.1,0 -0.1,-0.2 0.1,0 0.1,0 0,-0.1 -0.1,0 -0.1,0 -0.2,-0.1 0,0 0,-0.1 0,-0.1 0.1,0 0.1,0 0,0 -0.1,-0.1 -0.3,-0.4 -0.3,-0.5 0.1,0 0,0 -0.1,0 -0.1,0 -0.2,-0.1 -0.2,-0.2 0.1,0 0,0 0,-0.2 0,0 -0.1,-0.2 -0.2,-0.2 0,0 0,0 0,0 0.1,0 -0.1,0 -0.2,-0.2 0.1,0 -0.1,0 -0.1,-0.2 0,0 0,0 0,0 0,0 -0.1,0 -0.2,-0.2 0.1,0 0.1,-0.1 0,-0.1 0,0 -0.1,-0.1 -0.1,-0.1 0,0 0,0 -0.1,0 -0.1,0 -0.2,0 -0.2,-0.1 0,0 0,-0.1 0,-0.1 0,-0.2 -0.1,-0.3 -0.2,-0.4 -0.1,-0.1 -0.2,-0.2 -0.2,-0.3 0,0 0,-0.1 -0.1,-0.1 0,0 0,-0.1 -0.1,-0.1 0,0 0,-0.1 -0.1,-0.1 0,0 -0.1,0 -0.1,-0.1 0,-0.1 0,-0.2 0,-0.3 0,-0.1 -0.1,-0.2 -0.1,-0.3 0,-0.1 0,-0.2 0,-0.3 0.1,0 0.1,-0.1 0,-0.1 0,0 0,-0.1 0,-0.2 0.1,0 0,-0.1 0,-0.1 0,0 0,-0.1 0,-0.1 0.1,0 -0.1,-0.1 -0.1,-0.2 0,-0.1 0,-0.1 0,-0.2 0,0 0,-0.1 0,-0.1 0,0 0,-0.1 0,-0.1 0.1,0 -0.1,-0.1 -0.1,-0.2 0,0 -0.1,-0.1 -0.1,-0.2 0.1,0 0.1,-0.2 0,-0.1 0,0 -0.1,0 -0.1,0 0,-0.1 -0.1,-0.1 -0.1,-0.2 0.1,0 0.1,-0.1 0,-0.1 0,0 0,0 0,-0.1 0,-0.1 0,-0.2 0,-0.3 0,0 0,0 0,-0.1 0,0 0,0 0,0 0,0 0.1,-0.1 0.1,-0.1 0.1,0 0.1,0 0.1,-0.1 0,0 0,0 -0.1,0 0,0 0,-0.1 0,-0.1 0.1,0 0,-0.1 0,-0.1 0,0 -0.1,0 -0.1,0 l 0,0 c 0,0 0,-0.1 0,-0.1 0,-0.1 0,-0.2 -0.1,-0.3 0,0 0,0 0,-0.1 0.1,0.1 0.1,-0.1 0,-0.1 0,0 0,0 0,0 0,0 -0.1,-0.1 -0.1,-0.1 0,0 0,0 0,0 0,-0.1 0,-0.1 0,-0.2 0,-0.1 0,-0.2 0,-0.3 0,0 0,-0.1 0,-0.1 0,0 0,-0.1 0,-0.1 0,0 0,0 0,0 0,0 0,0 0,0 0,-0.1 -0.1,-0.1 -0.1,-0.2 0,0 0,0 0,-0.1 -0.1,-0.1 -0.1,-0.3 0,-0.4 0,0 0,0 0,0 0,0 0,-0.1 0,-0.1 0.1,0 0.1,0 0.2,0 0,0 0,-0.1 0,-0.1 0,0 0,0 0,-0.1 0,0 0,-0.1 0.1,-0.1 0,0 0,0 0,0 -0.1,0 -0.1,0 -0.2,0 0,-0.1 0,-0.1 0.1,-0.2 0,0 0,0 0,0 0,0 0.1,0 0.1,-0.1 0,0 0,0 0,0 0,0 0,0 0,0 0,0 0,0 0,0.1 -0.1,0 -0.2,-0.1 -0.2,-0.2 0,0 0,0 -0.1,-0.1 0,0 -0.1,-0.1 -0.1,-0.1 0,-0.1 0,-0.2 0,-0.3 0,-0.1 0,-0.2 0,-0.3 0,0 0,-0.1 0,-0.2 0,-0.1 0,-0.1 0.1,-0.2 0.1,0 0.2,-0.1 0.3,-0.1 0,0 0,0 0.1,0 0.1,0 0.1,0 0.2,0 0.1,0 0.1,0 0,0 0.1,-0.1 0.3,-0.2 0.2,-0.2 0,-0.1 0.1,-0.1 0.1,-0.1 0.1,0 0.2,0 0.3,0 0.1,0 0.2,0.1 0.3,0.1 0.1,0.1 0.2,0.1 0.3,0.1 0.2,0 0.4,0.1 0.6,0.1 0.1,0 0.1,0 0.2,0 0.1,0 0.2,-0.3 0.1,-0.3 0,-0.2 0,-0.4 0,-0.6 -0.1,-0.1 -0.1,-0.2 -0.2,-0.4 -0.1,-0.1 0,-0.2 0,-0.3 0,0 0,0 0.1,0 0.1,0 0.2,0 0.3,0 0.1,0 0.1,0 0.2,0 0,0 0.1,0 0.1,0.1 0,0 -0.1,0 -0.1,0 0.1,0 0.2,0 0.2,-0.1 0,0 0,0 0,0 -0.1,0 -0.1,0 -0.2,-0.1 0,0 0.1,-0.1 0.1,-0.1 0,0 0,0 0.1,0 0.1,0.1 0.2,0.1 0.3,0.1 0,0 0,0 0.1,0 0,0 0.1,0 0.1,0 0,0 0,0 0,0 m -3.7,6.6 m 0.5,1.4 c 0,0 -0.1,0 0,0 0,0.1 0.1,0 0,0 z m 0.1,1 c 0,0 0,0 0,0 0.1,0 0.1,-0.1 0,0 z m 7.3,3.6" />
    </g>
  </g>
</svg>
