<?xml version="1.0" encoding="UTF-8" standalone="no"?>
<!-- Created with Inkscape (http://www.inkscape.org/) -->

<svg
   xmlns:dc="http://purl.org/dc/elements/1.1/"
   xmlns:cc="http://creativecommons.org/ns#"
   xmlns:rdf="http://www.w3.org/1999/02/22-rdf-syntax-ns#"
   xmlns:svg="http://www.w3.org/2000/svg"
   xmlns="http://www.w3.org/2000/svg"
   xmlns:sodipodi="http://sodipodi.sourceforge.net/DTD/sodipodi-0.dtd"
   xmlns:inkscape="http://www.inkscape.org/namespaces/inkscape"
   width="24"
   height="22"
   id="svg7709"
   version="1.1"
   inkscape:version="0.48.5 r10040"
   sodipodi:docname="search.svg">
  <defs
     id="defs7711" />
  <sodipodi:namedview
     id="base"
     pagecolor="#ffffff"
     bordercolor="#666666"
     borderopacity="1.0"
     inkscape:pageopacity="0"
     inkscape:pageshadow="2"
     inkscape:zoom="15.609195"
     inkscape:cx="21.731424"
     inkscape:cy="21.75"
     inkscape:document-units="px"
     inkscape:current-layer="layer1"
     showgrid="false"
     fit-margin-top="0"
     fit-margin-left="0"
     fit-margin-right="0"
     fit-margin-bottom="0"
     inkscape:window-width="1238"
     inkscape:window-height="855"
     inkscape:window-x="90"
     inkscape:window-y="79"
     inkscape:window-maximized="0" />
  <metadata
     id="metadata7714">
    <rdf:RDF>
      <cc:Work
         rdf:about="">
        <dc:format>image/svg+xml</dc:format>
        <dc:type
           rdf:resource="http://purl.org/dc/dcmitype/StillImage" />
        <dc:title />
      </cc:Work>
    </rdf:RDF>
  </metadata>
  <g
     inkscape:label="Layer 1"
     inkscape:groupmode="layer"
     id="layer1"
     transform="translate(-353.26858,-532.11218)">
    <g
       transform="matrix(0.55219576,0,0,0.50574713,64.850308,221.09059)"
       id="_x30_6-magnify.png"
       style="fill:#ffffff">
      <g
         id="g5230"
         style="fill:#ffffff">
        <path
           style="fill:#ffffff"
           inkscape:connector-curvature="0"
           id="path5232"
           d="m 564.7,652.3 -10.4,-10.4 c -0.1,-0.1 -0.3,-0.2 -0.4,-0.3 1.8,-2.7 2.8,-5.9 2.8,-9.4 0,-9.5 -7.7,-17.2 -17.2,-17.2 -9.5,0 -17.2,7.7 -17.2,17.2 0,9.5 7.7,17.2 17.2,17.2 3.5,0 6.7,-1 9.4,-2.8 0.1,0.1 0.2,0.3 0.3,0.4 l 10.4,10.4 c 0.7,0.7 1.6,1.1 2.6,1.1 0.9,0 1.9,-0.4 2.6,-1.1 1.3,-1.4 1.3,-3.7 -0.1,-5.1 z M 539.5,644 c -6.5,0 -11.8,-5.3 -11.8,-11.8 0,-6.5 5.3,-11.8 11.8,-11.8 6.5,0 11.8,5.3 11.8,11.8 -0.1,6.5 -5.3,11.8 -11.8,11.8 z" />
      </g>
    </g>
  </g>
</svg>
