<?xml version="1.0" encoding="UTF-8" standalone="no"?>
<svg
   xmlns:dc="http://purl.org/dc/elements/1.1/"
   xmlns:cc="http://creativecommons.org/ns#"
   xmlns:rdf="http://www.w3.org/1999/02/22-rdf-syntax-ns#"
   xmlns:svg="http://www.w3.org/2000/svg"
   xmlns="http://www.w3.org/2000/svg"
   xmlns:sodipodi="http://sodipodi.sourceforge.net/DTD/sodipodi-0.dtd"
   xmlns:inkscape="http://www.inkscape.org/namespaces/inkscape"
   id="Extra_small_Icons_for_Menu"
   data-name="Extra small Icons for Menu"
   viewBox="0 0 25 25"
   version="1.1"
   inkscape:version="0.48.5 r10040"
   width="18"
   height="18"
   sodipodi:docname="employmentcenters.svg">
  <metadata
     id="metadata3273">
    <rdf:RDF>
      <cc:Work
         rdf:about="">
        <dc:format>image/svg+xml</dc:format>
        <dc:type
           rdf:resource="http://purl.org/dc/dcmitype/StillImage" />
        <dc:title>scott</dc:title>
      </cc:Work>
    </rdf:RDF>
  </metadata>
  <sodipodi:namedview
     pagecolor="#ffffff"
     bordercolor="#666666"
     borderopacity="1"
     objecttolerance="10"
     gridtolerance="10"
     guidetolerance="10"
     inkscape:pageopacity="0"
     inkscape:pageshadow="2"
     inkscape:window-width="640"
     inkscape:window-height="480"
     id="namedview3271"
     showgrid="false"
     inkscape:zoom="12.253289"
     inkscape:cx="12.16"
     inkscape:cy="8"
     inkscape:window-x="273"
     inkscape:window-y="225"
     inkscape:window-maximized="0"
     inkscape:current-layer="Extra_small_Icons_for_Menu" />
  <defs
     id="defs3262">
    <style
       id="style3264">.cls-1{fill:#fff;}</style>
  </defs>
  <title
     id="title3266">scott</title>
  <g
     id="_112-group.png"
     data-name="112-group.png">
    <path
       class="cls-1"
       d="M24.32,12.2a3.39,3.39,0,0,0-.18-1.4,1.9,1.9,0,0,0-.28-0.43,1.07,1.07,0,0,0-.47-0.31L23,9.92l-0.49-.2L22,9.48l-0.6-.26L20.79,9l-0.5-.22V7.94a0.73,0.73,0,0,1,0-.18l0.08-.25,0.1-.32a3.52,3.52,0,0,0,.31-0.83,4.1,4.1,0,0,0,.11-1,4.08,4.08,0,0,0-.15-1.18,2.15,2.15,0,0,0-.4-0.78A1.52,1.52,0,0,0,19.78,3a2,2,0,0,0-.72-0.13,1.91,1.91,0,0,0-.73.14,1.5,1.5,0,0,0-.59.44,2.19,2.19,0,0,0-.4.78,4,4,0,0,0-.15,1.17,4.12,4.12,0,0,0,.12,1,3.58,3.58,0,0,0,.31.84l0.1,0.29,0.07,0.23,0,0.17V8.7l-0.49.22-0.6.26-0.63.27-0.61.26L15,9.92l-0.38.14-0.13.06-0.11,0V8.7a1.27,1.27,0,0,1,.06-0.3L14.56,8l0.18-.55A6.06,6.06,0,0,0,15.27,6a7,7,0,0,0,.19-1.67,7,7,0,0,0-.25-2A3.67,3.67,0,0,0,14.52,1a2.6,2.6,0,0,0-1-.74A3.34,3.34,0,0,0,12.26,0,3.28,3.28,0,0,0,11,.23,2.57,2.57,0,0,0,10,1a3.76,3.76,0,0,0-.69,1.34,6.89,6.89,0,0,0-.25,2A7.05,7.05,0,0,0,9.26,6,6.17,6.17,0,0,0,9.8,7.47C9.86,7.65,9.91,7.82,10,8l0.11,0.39,0.08,0.29V10l-0.29.13-0.14-.07L9.36,9.92l-0.49-.2L8.29,9.48l-0.6-.26L7.11,9l-0.5-.22V7.94a0.73,0.73,0,0,1,0-.18l0.08-.25,0.1-.32a3.52,3.52,0,0,0,.31-0.83,4.1,4.1,0,0,0,.11-1A4.08,4.08,0,0,0,7.1,4.21a2.15,2.15,0,0,0-.4-0.78A1.52,1.52,0,0,0,6.1,3a2,2,0,0,0-.72-0.13A1.91,1.91,0,0,0,4.65,3a1.5,1.5,0,0,0-.59.44,2.19,2.19,0,0,0-.4.78,4,4,0,0,0-.15,1.17,4.12,4.12,0,0,0,.12,1,3.59,3.59,0,0,0,.31.84L4,7.52,4.1,7.75l0,0.17V8.7l-0.49.22-0.6.26-0.63.27-0.61.26L1.3,9.92l-0.38.14a1.08,1.08,0,0,0-.46.31,1.86,1.86,0,0,0-.28.43,2.39,2.39,0,0,0-.18.53v2.39H3.3a4.09,4.09,0,0,0-.26.79V16H21.28V14.51A3.69,3.69,0,0,0,21,13.72h3.29V12.2Z"
       id="path3269" />
  </g>
</svg>
