<?xml version="1.0" encoding="UTF-8" standalone="no"?>
<!-- Created with Inkscape (http://www.inkscape.org/) -->

<svg
   xmlns:dc="http://purl.org/dc/elements/1.1/"
   xmlns:cc="http://creativecommons.org/ns#"
   xmlns:rdf="http://www.w3.org/1999/02/22-rdf-syntax-ns#"
   xmlns:svg="http://www.w3.org/2000/svg"
   xmlns="http://www.w3.org/2000/svg"
   xmlns:sodipodi="http://sodipodi.sourceforge.net/DTD/sodipodi-0.dtd"
   xmlns:inkscape="http://www.inkscape.org/namespaces/inkscape"
   width="28"
   height="24"
   id="svg7863"
   version="1.1"
   inkscape:version="0.48.5 r10040"
   sodipodi:docname="lifestyle.svg">
  <defs
     id="defs7865" />
  <sodipodi:namedview
     id="base"
     pagecolor="#ffffff"
     bordercolor="#666666"
     borderopacity="1.0"
     inkscape:pageopacity="0.0"
     inkscape:pageshadow="2"
     inkscape:zoom="8"
     inkscape:cx="2.1375"
     inkscape:cy="11.999997"
     inkscape:document-units="px"
     inkscape:current-layer="layer1"
     showgrid="false"
     fit-margin-top="0"
     fit-margin-left="0"
     fit-margin-right="0"
     fit-margin-bottom="0"
     inkscape:window-width="1066"
     inkscape:window-height="746"
     inkscape:window-x="266"
     inkscape:window-y="267"
     inkscape:window-maximized="0" />
  <metadata
     id="metadata7868">
    <rdf:RDF>
      <cc:Work
         rdf:about="">
        <dc:format>image/svg+xml</dc:format>
        <dc:type
           rdf:resource="http://purl.org/dc/dcmitype/StillImage" />
        <dc:title />
      </cc:Work>
    </rdf:RDF>
  </metadata>
  <g
     inkscape:label="Layer 1"
     inkscape:groupmode="layer"
     id="layer1"
     transform="translate(-351.8,-520.36218)">
    <path
       style="fill:#ffffff"
       inkscape:connector-curvature="0"
       id="path5222"
       d="m 379.69855,543.35165 -13.34058,-22.63579 0,0 c -0.10145,-0.2021 -0.30435,-0.35368 -0.55797,-0.35368 -0.25362,0 -0.45652,0.15158 -0.55797,0.35368 l 0,0 -13.34058,22.63579 0,0 c -0.0507,0.10106 -0.10145,0.20211 -0.10145,0.35369 0,0.35368 0.30435,0.65684 0.65942,0.65684 l 26.68116,0 c 0.35507,0 0.65942,-0.30316 0.65942,-0.65684 0,-0.15158 -0.0507,-0.25263 -0.10145,-0.35369 z m -10.9058,-12.88421 0,0 c -0.10145,-0.0505 -0.20289,-0.10105 -0.35507,-0.10105 -0.2029,0 -0.35507,0.0505 -0.45652,0.20211 l -2.18116,2.17263 -2.18116,-2.17263 c -0.10145,-0.10106 -0.30435,-0.20211 -0.45652,-0.20211 -0.10145,0 -0.2029,0.0505 -0.30435,0.10105 l 0,0 -2.63768,1.46527 5.63043,-9.54948 5.63044,9.54948 z"
       sodipodi:nodetypes="cccsccccssssccccsccsscccccc" />
  </g>
</svg>
