<?xml version="1.0" encoding="UTF-8" standalone="no"?>
<!-- Generated by IcoMoon.io -->

<svg
   xmlns:dc="http://purl.org/dc/elements/1.1/"
   xmlns:cc="http://creativecommons.org/ns#"
   xmlns:rdf="http://www.w3.org/1999/02/22-rdf-syntax-ns#"
   xmlns:svg="http://www.w3.org/2000/svg"
   xmlns="http://www.w3.org/2000/svg"
   xmlns:sodipodi="http://sodipodi.sourceforge.net/DTD/sodipodi-0.dtd"
   xmlns:inkscape="http://www.inkscape.org/namespaces/inkscape"
   version="1.1"
   width="27"
   height="35"
   id="svg2"
   inkscape:version="0.91 r13725"
   sodipodi:docname="office.svg">
  <metadata
     id="metadata10">
    <rdf:RDF>
      <cc:Work
         rdf:about="">
        <dc:format>image/svg+xml</dc:format>
        <dc:type
           rdf:resource="http://purl.org/dc/dcmitype/StillImage" />
        <dc:title></dc:title>
      </cc:Work>
    </rdf:RDF>
  </metadata>
  <defs
     id="defs8" />
  <sodipodi:namedview
     pagecolor="#ffffff"
     bordercolor="#666666"
     borderopacity="1"
     objecttolerance="10"
     gridtolerance="10"
     guidetolerance="10"
     inkscape:pageopacity="0"
     inkscape:pageshadow="2"
     inkscape:window-width="1267"
     inkscape:window-height="909"
     id="namedview6"
     showgrid="false"
     fit-margin-top="0"
     fit-margin-left="0"
     fit-margin-right="0"
     fit-margin-bottom="0"
     inkscape:zoom="17.740741"
     inkscape:cx="3.7484344"
     inkscape:cy="31.537578"
     inkscape:window-x="184"
     inkscape:window-y="47"
     inkscape:window-maximized="0"
     inkscape:current-layer="svg2"
     borderlayer="true" />
  <path
     d="m 0,26.995825 13.5,0 0,-27.0000002 -13.5,0 0,27.0000002 z m 8.4375,-23.6300002 3.375,0 0,3.3800001 -3.375,0 0,-3.3800001 z m 0,6.7500002 3.375,0 0,3.38 -3.375,0 0,-3.38 z m 0,6.75 3.375,0 0,3.38 -3.375,0 0,-3.38 z m -6.75,-13.5000002 3.375,0 0,3.3800001 -3.375,0 0,-3.3800001 z m 0,6.7500002 3.375,0 0,3.38 -3.375,0 0,-3.38 z m 0,6.75 3.375,0 0,3.38 -3.375,0 0,-3.38 z m 13.5,-8.4299998 11.8125,0 0,1.6799998 -11.8125,0 z m 0,18.5599998 3.375,0 0,-6.75 5.0625,0 0,6.75 3.375,0 0,-15.19 -11.8125,0 z"
     id="path4"
     inkscape:connector-curvature="0"
     style="fill:#ffffff" />
</svg>
