<?xml version="1.0" encoding="UTF-8" standalone="no"?>
<!-- Created with Inkscape (http://www.inkscape.org/) -->

<svg
   xmlns:dc="http://purl.org/dc/elements/1.1/"
   xmlns:cc="http://creativecommons.org/ns#"
   xmlns:rdf="http://www.w3.org/1999/02/22-rdf-syntax-ns#"
   xmlns:svg="http://www.w3.org/2000/svg"
   xmlns="http://www.w3.org/2000/svg"
   xmlns:sodipodi="http://sodipodi.sourceforge.net/DTD/sodipodi-0.dtd"
   xmlns:inkscape="http://www.inkscape.org/namespaces/inkscape"
   width="15.000689"
   height="9.6750002"
   id="svg3408"
   version="1.1"
   inkscape:version="0.48.5 r10040"
   sodipodi:docname="skiing.svg">
  <defs
     id="defs3410" />
  <sodipodi:namedview
     id="base"
     pagecolor="#ffffff"
     bordercolor="#666666"
     borderopacity="1.0"
     inkscape:pageopacity="0.0"
     inkscape:pageshadow="2"
     inkscape:zoom="15.732612"
     inkscape:cx="7.5003474"
     inkscape:cy="4.8374992"
     inkscape:document-units="px"
     inkscape:current-layer="layer1"
     showgrid="false"
     fit-margin-top="0"
     fit-margin-left="0"
     fit-margin-right="0"
     fit-margin-bottom="0"
     inkscape:window-width="730"
     inkscape:window-height="412"
     inkscape:window-x="556"
     inkscape:window-y="286"
     inkscape:window-maximized="0" />
  <metadata
     id="metadata3413">
    <rdf:RDF>
      <cc:Work
         rdf:about="">
        <dc:format>image/svg+xml</dc:format>
        <dc:type
           rdf:resource="http://purl.org/dc/dcmitype/StillImage" />
        <dc:title></dc:title>
      </cc:Work>
    </rdf:RDF>
  </metadata>
  <g
     inkscape:label="Layer 1"
     inkscape:groupmode="layer"
     id="layer1"
     transform="translate(-715.35679,-447.52468)">
    <g
       id="_x38_79-mountains-selected_x40_2x.png_2_"
       transform="matrix(0.31559633,0,0,0.31559633,675.94374,414.03301)">
      <g
         id="g3995">
        <path
           style="fill:#ffffff"
           inkscape:connector-curvature="0"
           id="path3997"
           d="m 161.2,136.4 -18.1,-30.8 0,0 c -0.2,-0.3 -0.4,-0.5 -0.8,-0.5 -0.3,0 -0.6,0.2 -0.8,0.5 l 0,0 -18.1,30.8 0,0 c -0.1,0.1 -0.1,0.3 -0.1,0.5 0,0.5 0.4,0.9 0.9,0.9 h 36.2 c 0.5,0 0.9,-0.4 0.9,-0.9 0,-0.2 -0.1,-0.3 -0.1,-0.5 l 0,0 z m -14.9,-17.5 0,0 c -0.1,-0.1 -0.3,-0.1 -0.4,-0.1 -0.3,0 -0.5,0.1 -0.6,0.3 l -3,3 -3,-3 c -0.2,-0.2 -0.4,-0.3 -0.6,-0.3 -0.2,0 -0.3,0.1 -0.4,0.1 l 0,0 -3.6,2 7.7,-13 7.7,13 -3.8,-2 z m 27.5,17.5 0,0 -10.8,-18.1 0,0 c -0.2,-0.3 -0.4,-0.4 -0.8,-0.4 -0.2,0 -0.4,0.1 -0.6,0.2 l 0,0 0,0 c 0,0 0,0 0,0 l -4.4,4.6 0,0 c -0.1,0.2 -0.2,0.3 -0.2,0.6 0,0.2 0.1,0.3 0.1,0.5 l 0,0 8,13.6 0,0 c 0.2,0.3 0.4,0.4 0.8,0.4 h 7.2 c 0.5,0 0.9,-0.4 0.9,-0.9 -0.1,-0.2 -0.1,-0.3 -0.2,-0.5 z" />
      </g>
    </g>
  </g>
</svg>
