<?xml version="1.0" encoding="UTF-8" standalone="no"?>
<!-- Created with Inkscape (http://www.inkscape.org/) -->

<svg
   xmlns:dc="http://purl.org/dc/elements/1.1/"
   xmlns:cc="http://creativecommons.org/ns#"
   xmlns:rdf="http://www.w3.org/1999/02/22-rdf-syntax-ns#"
   xmlns:svg="http://www.w3.org/2000/svg"
   xmlns="http://www.w3.org/2000/svg"
   xmlns:sodipodi="http://sodipodi.sourceforge.net/DTD/sodipodi-0.dtd"
   xmlns:inkscape="http://www.inkscape.org/namespaces/inkscape"
   width="15"
   height="9.545455"
   id="svg3226"
   version="1.1"
   inkscape:version="0.48.5 r10040"
   sodipodi:docname="universities.svg">
  <defs
     id="defs3228" />
  <sodipodi:namedview
     id="base"
     pagecolor="#ffffff"
     bordercolor="#666666"
     borderopacity="1.0"
     inkscape:pageopacity="0.0"
     inkscape:pageshadow="2"
     inkscape:zoom="0.35"
     inkscape:cx="26.785715"
     inkscape:cy="4.7727252"
     inkscape:document-units="px"
     inkscape:current-layer="layer1"
     showgrid="false"
     fit-margin-top="0"
     fit-margin-left="0"
     fit-margin-right="0"
     fit-margin-bottom="0"
     inkscape:window-width="743"
     inkscape:window-height="412"
     inkscape:window-x="875"
     inkscape:window-y="411"
     inkscape:window-maximized="0" />
  <metadata
     id="metadata3231">
    <rdf:RDF>
      <cc:Work
         rdf:about="">
        <dc:format>image/svg+xml</dc:format>
        <dc:type
           rdf:resource="http://purl.org/dc/dcmitype/StillImage" />
        <dc:title></dc:title>
      </cc:Work>
    </rdf:RDF>
  </metadata>
  <g
     inkscape:label="Layer 1"
     inkscape:groupmode="layer"
     id="layer1"
     transform="translate(-23.928571,-339.01803)">
    <g
       transform="matrix(0.29644269,0,0,0.29644269,-12.593168,242.52593)"
       id="_x38_97-graduation-cap-toolbar-selected_x40_2x.png_2_">
      <g
         id="g5676">
        <path
           style="fill:#ffffff"
           inkscape:connector-curvature="0"
           id="path5678"
           d="m 130.2,345.4 c 0.7,-0.6 1.2,-1.6 1.2,-2.6 0,-1.3 -0.8,-2.5 -1.9,-3 0.1,-0.4 0.2,-0.7 0.3,-1.1 l -2.3,-0.6 c -0.1,0.5 -0.3,0.9 -0.3,1.4 -1.5,0.3 -2.7,1.7 -2.7,3.3 0,1.5 1,2.8 2.3,3.2 -0.2,3.2 -1,7.1 -3.2,9.8 -0.4,0.5 -0.3,1.2 0.2,1.6 0.2,0.2 0.5,0.3 0.7,0.3 0.3,0 0.7,-0.1 0.9,-0.4 1.8,-2.2 2.8,-5.1 3.3,-7.8 l 1.6,7.3 c 0.1,0.5 0.6,0.9 1.1,0.9 0.1,0 0.2,0 0.2,0 0.6,-0.1 1,-0.7 0.9,-1.4 l -2.3,-10.9 z M 128,344 c -0.6,0 -1.1,-0.5 -1.1,-1.1 0,-0.6 0.5,-1.1 1.1,-1.1 0.6,0 1.1,0.5 1.1,1.1 0,0.5 -0.5,1.1 -1.1,1.1 z m 34.4,9 -0.8,-12.6 -12.6,3.6 0,0 c -0.1,0 -0.3,0.1 -0.4,0.1 -0.1,0 -0.3,0 -0.4,-0.1 l 0,0 -12.5,-3.6 -0.8,12.6 0,0 c 0,0 0,0.1 0,0.1 0,0.6 0.5,1.1 1.1,1.1 0.2,0 0.4,-0.1 0.5,-0.1 l 0,0 0.1,-0.1 c 0.1,-0.1 0.2,-0.1 0.2,-0.2 l 4.8,-3.8 6.1,6.1 c 0,0 0.1,0.1 0.1,0.1 l 0.1,0.1 0,0 c 0.2,0.1 0.4,0.2 0.7,0.2 0.3,0 0.5,-0.1 0.7,-0.2 l 0,0 0.1,-0.1 c 0,0 0.1,-0.1 0.1,-0.1 l 6.1,-6.1 4.8,3.8 c 0.1,0.1 0.1,0.1 0.2,0.2 l 0.1,0.1 0,0 c 0.2,0.1 0.3,0.1 0.5,0.1 0.6,0 1.1,-0.5 1.1,-1.1 0.1,0 0,-0.1 0.1,-0.1 l 0,0 z m 11.4,-19.4 c 0,-0.5 -0.3,-0.9 -0.8,-1.1 l 0,0 -24.1,-6.9 0,0 c -0.1,0 -0.3,-0.1 -0.4,-0.1 -0.1,0 -0.3,0 -0.4,0.1 l 0,0 -24.1,6.9 0,0 c -0.4,0.2 -0.8,0.6 -0.8,1.1 0,0.5 0.3,0.9 0.8,1.1 l 0,0 0.7,0.2 c 0,0 0,0 0,0 l 0,0 23.7,6.8 23.7,-6.8 0,0 c 0,0 0,0 0,0 l 0.7,-0.2 0,0 c 0.7,-0.2 1,-0.6 1,-1.1 z" />
      </g>
    </g>
  </g>
</svg>
