<svg id="Small_Icons" data-name="Small Icons" xmlns="http://www.w3.org/2000/svg" xmlns:xlink="http://www.w3.org/1999/xlink" viewBox="0 0 31 44"><defs><style>.cls-1{fill:url(#linear-gradient);}.cls-2{fill:#fff;}</style><linearGradient id="linear-gradient" x1="15.5" y1="44" x2="15.5" gradientUnits="userSpaceOnUse"><stop offset="0" stop-color="#9b1d21"/><stop offset="0.11" stop-color="#a51e23"/><stop offset="0.37" stop-color="#b62025"/><stop offset="0.65" stop-color="#c02127"/><stop offset="1" stop-color="#c32127"/></linearGradient></defs><title>new-icon</title><path class="cls-1" d="M31,15.31C31,31.76,15.5,44,15.5,44S0,31,0,15.31A15.4,15.4,0,0,1,15.5,0,15.4,15.4,0,0,1,31,15.31Z"/><g id="_178-city.png" data-name="178-city.png"><path class="cls-2" d="M23.28,13.74V13H22.54v0.74H21.8V13H21.06v0.74H20.31V26.34H24V13.74H23.28ZM21.8,24.11H21.06V23.37H21.8v0.74Zm0-1.48H21.06V21.89H21.8v0.74Zm0-1.48H21.06V20.41H21.8v0.74Zm0-1.48H21.06V18.93H21.8v0.74Zm0-1.48H21.06V17.45H21.8v0.74Zm0-1.48H21.06V16H21.8v0.74Zm0-1.48H21.06V14.48H21.8v0.74Zm1.48,8.89H22.54V23.37h0.74v0.74Zm0-1.48H22.54V21.89h0.74v0.74Zm0-1.48H22.54V20.41h0.74v0.74Zm0-1.48H22.54V18.93h0.74v0.74Zm0-1.48H22.54V17.45h0.74v0.74Zm0-1.48H22.54V16h0.74v0.74Zm0-1.48H22.54V14.48h0.74v0.74ZM9.94,8.56H7.72V10H7v16.3h3.7V10H9.94V8.56ZM8.46,24.85H7.72V24.11H8.46v0.74Zm0-1.48H7.72V22.63H8.46v0.74Zm0-1.48H7.72V21.15H8.46v0.74Zm0-1.48H7.72V19.67H8.46v0.74Zm0-1.48H7.72V18.19H8.46v0.74Zm0-1.48H7.72V16.71H8.46v0.74Zm0-1.48H7.72V15.22H8.46V16Zm0-1.48H7.72V13.74H8.46v0.74Zm0-1.48H7.72V12.26H8.46V13ZM9.95,24.85H9.2V24.11H9.95v0.74Zm0-1.48H9.2V22.63H9.95v0.74Zm0-1.48H9.2V21.15H9.95v0.74Zm0-1.48H9.2V19.67H9.95v0.74Zm0-1.48H9.2V18.19H9.95v0.74Zm0-1.48H9.2V16.71H9.95v0.74Zm0-1.48H9.2V15.22H9.95V16Zm0-1.48H9.2V13.74H9.95v0.74Zm0-2.22V13H9.2V12.26H9.95Zm1.48,14.07h3.7V12.26h-3.7V26.34ZM13.65,13h0.74v0.74H13.65V13Zm0,1.48h0.74v0.74H13.65V14.48Zm0,1.48h0.74v0.74H13.65V16Zm0,1.48h0.74v0.74H13.65V17.45Zm0,1.48h0.74v0.74H13.65V18.93Zm0,1.48h0.74v0.74H13.65V20.41Zm0,1.48h0.74v0.74H13.65V21.89Zm0,1.48h0.74v0.74H13.65V23.37ZM12.17,13h0.74v0.74H12.17V13Zm0,1.48h0.74v0.74H12.17V14.48Zm0,1.48h0.74v0.74H12.17V16Zm0,1.48h0.74v0.74H12.17V17.45Zm0,1.48h0.74v0.74H12.17V18.93Zm0,1.48h0.74v0.74H12.17V20.41Zm0,1.48h0.74v0.74H12.17V21.89Zm0,1.48h0.74v0.74H12.17V23.37Zm3.7,3h3.7v-20l-3.7,2.22V26.34Zm2.22-17h0.74V10H18.09V9.3Zm0,1.48h0.74v0.74H18.09V10.78Zm0,1.48h0.74V13H18.09V12.26Zm0,1.48h0.74v0.74H18.09V13.74Zm0,1.48h0.74V16H18.09V15.22Zm0,1.48h0.74v0.74H18.09V16.71Zm0,1.48h0.74v0.74H18.09V18.19Zm0,1.48h0.74v0.74H18.09V19.67Zm0,1.48h0.74v0.74H18.09V21.15Zm0,1.48h0.74v0.74H18.09V22.63Zm0,1.48h0.74v0.74H18.09V24.11ZM16.61,9.3h0.74V10H16.61V9.3Zm0,1.48h0.74v0.74H16.61V10.78Zm0,1.48h0.74V13H16.61V12.26Zm0,1.48h0.74v0.74H16.61V13.74Zm0,1.48h0.74V16H16.61V15.22Zm0,1.48h0.74v0.74H16.61V16.71Zm0,1.48h0.74v0.74H16.61V18.19Zm0,1.48h0.74v0.74H16.61V19.67Zm0,1.48h0.74v0.74H16.61V21.15Zm0,1.48h0.74v0.74H16.61V22.63Zm0,1.48h0.74v0.74H16.61V24.11Z"/></g></svg>