<?xml version="1.0" encoding="utf-8"?>
<svg id="Small_Icons" data-name="Small Icons" viewBox="0 0 31 44" xmlns="http://www.w3.org/2000/svg">
  <defs>
    <style>.cls-1{fill:url(#linear-gradient);}.cls-2{fill:#fff;}</style>
    <linearGradient id="linear-gradient" x1="15.5" y1="44" x2="15.5" gradientUnits="userSpaceOnUse">
      <stop offset="0" stop-color="#9b1d21"/>
      <stop offset="0.11" stop-color="#a51e23"/>
      <stop offset="0.37" stop-color="#b62025"/>
      <stop offset="0.65" stop-color="#c02127"/>
      <stop offset="1" stop-color="#c32127"/>
    </linearGradient>
    <style type="text/css">
	.st0{fill:#4D4D4D;}
	.st1{fill:#7EBFA7;}
	.st2{fill:#2E7572;}
	.st3{fill:#E67E15;}
	.st4{fill:#00A5D9;}
	.st5{fill:#0D7699;}
	.st6{fill:#FFFFFF;}
	.st7{display:none;fill:#840D16;}
</style>
  </defs>
  <title>new-icon</title>
  <path class="cls-1" d="M31,15.31C31,31.76,15.5,44,15.5,44S0,31,0,15.31A15.4,15.4,0,0,1,15.5,0,15.4,15.4,0,0,1,31,15.31Z"/>
  <g id="Procurement" transform="matrix(1.762309, 0, 0, 1.762309, 4.044991, 1.611706)">
    <rect class="st7" width="13" height="15"/>
    <g id="_x31_90-bank.png">
      <g>
        <path class="st6" d="M2.4,6.7v4.1h1.4V6.7H2.4z M1.5,11.7h10v-0.5h-10V11.7z M12,5.8L7,2.6H6L1,5.8v0.5H12V5.8z M7,6.7v4.1h1.4&#10;&#9;&#9;&#9;&#9;V6.7H7z M4.7,6.7v4.1H6V6.7H4.7z M0.6,12.2v0.5h11.8v-0.5H0.6z M9.2,6.7v4.1h1.4V6.7H9.2z"/>
      </g>
    </g>
  </g>
</svg>