<?xml version="1.0" encoding="UTF-8" standalone="no"?>
<!-- Created with Inkscape (http://www.inkscape.org/) -->

<svg
   xmlns:dc="http://purl.org/dc/elements/1.1/"
   xmlns:cc="http://creativecommons.org/ns#"
   xmlns:rdf="http://www.w3.org/1999/02/22-rdf-syntax-ns#"
   xmlns:svg="http://www.w3.org/2000/svg"
   xmlns="http://www.w3.org/2000/svg"
   xmlns:xlink="http://www.w3.org/1999/xlink"
   xmlns:sodipodi="http://sodipodi.sourceforge.net/DTD/sodipodi-0.dtd"
   xmlns:inkscape="http://www.inkscape.org/namespaces/inkscape"
   width="24"
   height="35"
   id="svg3135"
   version="1.1"
   inkscape:version="0.48.5 r10040"
   sodipodi:docname="New document 2">
  <defs
     id="defs3137">
    <linearGradient
       inkscape:collect="always"
       xlink:href="#SVGID_16_"
       id="linearGradient3187"
       gradientUnits="userSpaceOnUse"
       gradientTransform="translate(-116.3,-91)"
       x1="148.61301"
       y1="183.7742"
       x2="148.61301"
       y2="91" />
    <linearGradient
       y2="91"
       x2="148.61301"
       y1="183.7742"
       x1="148.61301"
       gradientUnits="userSpaceOnUse"
       id="SVGID_16_">
      <stop
         id="stop3980"
         style="stop-color:#0E6635"
         offset="0" />
      <stop
         id="stop3982"
         style="stop-color:#0E6735"
         offset="5.276561e-03" />
      <stop
         id="stop3984"
         style="stop-color:#10773C"
         offset="0.2161" />
      <stop
         id="stop3986"
         style="stop-color:#108341"
         offset="0.4405" />
      <stop
         id="stop3988"
         style="stop-color:#0E8A44"
         offset="0.6879" />
      <stop
         id="stop3990"
         style="stop-color:#0E8C45"
         offset="1" />
    </linearGradient>
  </defs>
  <sodipodi:namedview
     id="base"
     pagecolor="#ffffff"
     bordercolor="#666666"
     borderopacity="1.0"
     inkscape:pageopacity="0.0"
     inkscape:pageshadow="2"
     inkscape:zoom="6.7428572"
     inkscape:cx="12"
     inkscape:cy="17.5"
     inkscape:document-units="px"
     inkscape:current-layer="layer1"
     showgrid="false"
     fit-margin-top="0"
     fit-margin-left="0"
     fit-margin-right="0"
     fit-margin-bottom="0"
     inkscape:window-width="472"
     inkscape:window-height="412"
     inkscape:window-x="920"
     inkscape:window-y="100"
     inkscape:window-maximized="0" />
  <metadata
     id="metadata3140">
    <rdf:RDF>
      <cc:Work
         rdf:about="">
        <dc:format>image/svg+xml</dc:format>
        <dc:type
           rdf:resource="http://purl.org/dc/dcmitype/StillImage" />
        <dc:title></dc:title>
      </cc:Work>
    </rdf:RDF>
  </metadata>
  <g
     inkscape:label="Layer 1"
     inkscape:groupmode="layer"
     id="layer1"
     transform="translate(-65.142857,-323.43361)">
    <g
       id="g3181"
       transform="matrix(0.37151703,0,0,0.37715517,65.142857,323.43361)">
      <path
         d="M 64.6,32.3 C 64.6,67 32.3,92.8 32.3,92.8 32.3,92.8 0,65.4 0,32.3 0,14.5 14.4,0 32.3,0 50.2,0 64.6,14.4 64.6,32.3 z"
         id="path3992"
         style="fill:url(#linearGradient3187)"
         inkscape:connector-curvature="0" />
      <g
         transform="translate(-116.3,-91)"
         id="_x38_79-mountains-selected_x40_2x.png_2_">
        <g
           id="g3995">
          <path
             d="m 161.2,136.4 -18.1,-30.8 0,0 c -0.2,-0.3 -0.4,-0.5 -0.8,-0.5 -0.3,0 -0.6,0.2 -0.8,0.5 l 0,0 -18.1,30.8 0,0 c -0.1,0.1 -0.1,0.3 -0.1,0.5 0,0.5 0.4,0.9 0.9,0.9 h 36.2 c 0.5,0 0.9,-0.4 0.9,-0.9 0,-0.2 -0.1,-0.3 -0.1,-0.5 l 0,0 z m -14.9,-17.5 0,0 c -0.1,-0.1 -0.3,-0.1 -0.4,-0.1 -0.3,0 -0.5,0.1 -0.6,0.3 l -3,3 -3,-3 c -0.2,-0.2 -0.4,-0.3 -0.6,-0.3 -0.2,0 -0.3,0.1 -0.4,0.1 l 0,0 -3.6,2 7.7,-13 7.7,13 -3.8,-2 z m 27.5,17.5 0,0 -10.8,-18.1 0,0 c -0.2,-0.3 -0.4,-0.4 -0.8,-0.4 -0.2,0 -0.4,0.1 -0.6,0.2 l 0,0 0,0 c 0,0 0,0 0,0 l -4.4,4.6 0,0 c -0.1,0.2 -0.2,0.3 -0.2,0.6 0,0.2 0.1,0.3 0.1,0.5 l 0,0 8,13.6 0,0 c 0.2,0.3 0.4,0.4 0.8,0.4 h 7.2 c 0.5,0 0.9,-0.4 0.9,-0.9 -0.1,-0.2 -0.1,-0.3 -0.2,-0.5 z"
             id="path3997"
             inkscape:connector-curvature="0"
             style="fill:#ffffff" />
        </g>
      </g>
    </g>
  </g>
</svg>
