<?xml version="1.0" encoding="UTF-8" standalone="no"?>
<svg
   xmlns:dc="http://purl.org/dc/elements/1.1/"
   xmlns:cc="http://creativecommons.org/ns#"
   xmlns:rdf="http://www.w3.org/1999/02/22-rdf-syntax-ns#"
   xmlns:svg="http://www.w3.org/2000/svg"
   xmlns="http://www.w3.org/2000/svg"
   viewBox="0 0 1448.28 115.98667"
   id="svg2"
   version="1.1"><metadata
     id="metadata8"><rdf:RDF><cc:Work
         rdf:about=""><dc:format>image/svg+xml</dc:format><dc:type
           rdf:resource="http://purl.org/dc/dcmitype/StillImage" /></cc:Work></rdf:RDF></metadata><defs
     id="defs6" /><g
     transform="matrix(1.3333333,0,0,-1.3333333,0,115.98667)"
     id="g10"><g
       transform="scale(0.1)"
       id="g12"><path
         id="path14"
         style="fill:#FFFFFF;fill-opacity:1;fill-rule:nonzero;stroke:none"
         d="m 346.355,295.051 c -8.25,62.304 -44.902,104.453 -103.542,104.453 -57.723,0 -95.293,-41.231 -106.29,-104.453 z M 0,253.809 v 1.836 c 0,140.195 99.8711,255.644 242.813,255.644 164.011,0 239.152,-127.363 239.152,-266.641 0,-10.996 -0.91,-23.82 -1.828,-36.648 H 138.359 c 13.743,-63.223 57.727,-96.215 120.032,-96.215 46.738,0 80.632,14.66 119.121,50.403 L 457.227,91.6328 C 411.418,34.8242 345.438,0 256.563,0 109.031,0 0,103.547 0,253.809" /><path
         id="path16"
         style="fill:#FFFFFF;fill-opacity:1;fill-rule:nonzero;stroke:none"
         d="m 962.969,255.645 v 1.835 c 0,81.543 -54.051,135.606 -119.114,135.606 -65.054,0 -120.039,-53.145 -120.039,-135.606 v -1.835 c 0,-81.551 54.985,-135.606 120.039,-135.606 65.063,0 119.114,54.055 119.114,135.606 z m -378.426,0 v 1.835 c 0,164.012 107.203,253.809 223.57,253.809 74.231,0 120.039,-33.894 153.032,-73.301 V 679.895 H 1100.42 V 10.9961 H 961.145 V 81.5547 C 927.234,35.7344 880.508,1.83594 808.113,1.83594 c -114.527,0 -223.57,89.79686 -223.57,253.80906" /><path
         id="path18"
         style="fill:#FFFFFF;fill-opacity:1;fill-rule:nonzero;stroke:none"
         d="m 1222.23,253.809 v 1.836 c 0,140.195 107.2,255.644 257.47,255.644 92.55,0 150.27,-31.152 196.09,-82.461 l -85.21,-91.629 c -31.16,32.989 -62.32,54.063 -111.79,54.063 -69.64,0 -119.12,-61.399 -119.12,-133.782 v -1.835 c 0,-75.137 48.56,-135.606 124.62,-135.606 46.73,0 78.8,20.156 112.69,52.227 l 81.56,-82.4691 C 1630.89,37.5703 1575.91,0 1477.87,0 1330.34,0 1222.23,113.625 1222.23,253.809" /><path
         id="path20"
         style="fill:#FFFFFF;fill-opacity:1;fill-rule:nonzero;stroke:none"
         d="m 1794.86,285.879 v 366.523 h 141.12 V 289.551 c 0,-104.461 52.22,-158.524 138.36,-158.524 86.13,0 138.36,52.235 138.36,153.946 v 367.429 h 141.11 V 290.469 C 2353.81,96.2109 2244.77,0.917969 2072.5,0.917969 c -172.26,0 -277.64,96.210931 -277.64,284.961031" /><path
         id="path22"
         style="fill:#FFFFFF;fill-opacity:1;fill-rule:nonzero;stroke:none"
         d="m 2668.05,522.285 h -195.18 v 130.117 h 531.45 V 522.285 H 2809.15 V 10.9961 h -141.1 V 522.285" /><path
         id="path24"
         style="fill:#FFFFFF;fill-opacity:1;fill-rule:nonzero;stroke:none"
         d="m 3419.36,279.473 -85.22,208 -85.21,-208 z m -148.44,377.511 h 130.12 L 3675.92,10.9961 H 3528.4 L 3469.76,154.855 H 3198.54 L 3139.89,10.9961 h -143.85 l 274.88,645.9879" /><path
         id="path26"
         style="fill:#FFFFFF;fill-opacity:1;fill-rule:nonzero;stroke:none"
         d="M 3795.9,652.402 H 3937 V 398.586 h 260.23 v 253.816 h 141.11 V 10.9961 H 4197.23 V 268.477 H 3937 V 10.9961 H 3795.9 V 652.402" /><path
         id="path28"
         style="fill:#FFFFFF;fill-opacity:1;fill-rule:nonzero;stroke:none"
         d="m 5608.01,655.48 h 150.66 v -39.093 h -107 v -40.52 h 94.16 v -39.09 h -94.16 V 494.836 H 5760.1 V 455.742 H 5608.01 V 655.48" /><path
         id="path30"
         style="fill:#FFFFFF;fill-opacity:1;fill-rule:nonzero;stroke:none"
         d="m 5857.42,555.039 v 0.578 c 0,56.778 42.79,103.289 104.14,103.289 37.67,0 60.22,-12.558 78.76,-30.82 l -27.97,-32.246 c -15.4,13.984 -31.09,22.551 -51.07,22.551 -33.67,0 -57.92,-27.969 -57.92,-62.207 v -0.567 c 0,-34.25 23.68,-62.785 57.92,-62.785 22.83,0 36.81,9.133 52.5,23.398 l 27.97,-28.242 c -20.55,-21.972 -43.37,-35.672 -81.9,-35.672 -58.78,0 -102.43,45.372 -102.43,102.723" /><path
         id="path32"
         style="fill:#FFFFFF;fill-opacity:1;fill-rule:nonzero;stroke:none"
         d="m 6295.72,555.039 v 0.578 c 0,34.238 -25.1,62.774 -60.49,62.774 -35.38,0 -59.92,-27.969 -59.92,-62.207 v -0.567 c 0,-34.25 25.11,-62.785 60.49,-62.785 35.38,0 59.92,27.969 59.92,62.207 z m -166.34,0 v 0.578 c 0,56.778 44.79,103.289 106.42,103.289 61.63,0 105.86,-45.937 105.86,-102.722 v -0.567 c 0,-56.789 -44.79,-103.301 -106.43,-103.301 -61.63,0 -105.85,45.946 -105.85,102.723" /><path
         id="path34"
         style="fill:#FFFFFF;fill-opacity:1;fill-rule:nonzero;stroke:none"
         d="m 6447.82,655.48 h 40.52 l 93.59,-122.98 v 122.98 h 43.37 V 455.742 h -37.37 L 6491.2,582.715 V 455.742 h -43.38 V 655.48" /><path
         id="path36"
         style="fill:#FFFFFF;fill-opacity:1;fill-rule:nonzero;stroke:none"
         d="m 6897.83,555.039 v 0.578 c 0,34.238 -25.11,62.774 -60.49,62.774 -35.38,0 -59.92,-27.969 -59.92,-62.207 v -0.567 c 0,-34.25 25.11,-62.785 60.49,-62.785 35.38,0 59.92,27.969 59.92,62.207 z m -166.35,0 v 0.578 c 0,56.778 44.8,103.289 106.43,103.289 61.63,0 105.86,-45.937 105.86,-102.722 v -0.567 c 0,-56.789 -44.8,-103.301 -106.43,-103.301 -61.63,0 -105.86,45.946 -105.86,102.723" /><path
         id="path38"
         style="fill:#FFFFFF;fill-opacity:1;fill-rule:nonzero;stroke:none"
         d="m 7049.94,655.48 h 47.37 l 52.5,-84.464 52.5,84.464 h 47.37 V 455.742 h -43.65 v 130.403 l -56.22,-85.317 h -1.14 l -55.64,84.457 V 455.742 h -43.09 V 655.48" /><path
         id="path40"
         style="fill:#FFFFFF;fill-opacity:1;fill-rule:nonzero;stroke:none"
         d="m 7366.69,655.48 h 43.94 V 455.742 h -43.94 V 655.48" /><path
         id="path42"
         style="fill:#FFFFFF;fill-opacity:1;fill-rule:nonzero;stroke:none"
         d="m 7518.79,555.039 v 0.578 c 0,56.778 42.79,103.289 104.14,103.289 37.67,0 60.21,-12.558 78.76,-30.82 l -27.97,-32.246 c -15.4,13.984 -31.09,22.551 -51.07,22.551 -33.68,0 -57.92,-27.969 -57.92,-62.207 v -0.567 c 0,-34.25 23.68,-62.785 57.92,-62.785 22.83,0 36.8,9.133 52.5,23.398 l 27.97,-28.242 c -20.55,-21.972 -43.37,-35.672 -81.9,-35.672 -58.78,0 -102.43,45.372 -102.43,102.723" /><path
         id="path44"
         style="fill:#FFFFFF;fill-opacity:1;fill-rule:nonzero;stroke:none"
         d="m 8035.85,495.402 c 35.96,0 60.2,24.258 60.2,59.637 v 0.578 c 0,35.379 -24.24,60.203 -60.2,60.203 h -33.96 V 495.402 Z m -77.9,160.078 h 77.9 c 62.77,0 106.14,-43.085 106.14,-99.296 v -0.567 c 0,-56.222 -43.37,-99.875 -106.14,-99.875 h -77.9 V 655.48" /><path
         id="path46"
         style="fill:#FFFFFF;fill-opacity:1;fill-rule:nonzero;stroke:none"
         d="m 8248.16,655.48 h 150.67 v -39.093 h -107 v -40.52 h 94.16 v -39.09 h -94.16 v -41.941 h 108.42 V 455.742 H 8248.16 V 655.48" /><path
         id="path48"
         style="fill:#FFFFFF;fill-opacity:1;fill-rule:nonzero;stroke:none"
         d="m 8489.3,655.48 h 48.5 l 52.22,-140.675 52.22,140.675 h 47.37 l -80.75,-201.164 h -38.81 L 8489.3,655.48" /><path
         id="path50"
         style="fill:#FFFFFF;fill-opacity:1;fill-rule:nonzero;stroke:none"
         d="m 8787.5,655.48 h 150.66 v -39.093 h -107 v -40.52 h 94.16 v -39.09 h -94.16 v -41.941 h 108.43 V 455.742 H 8787.5 V 655.48" /><path
         id="path52"
         style="fill:#FFFFFF;fill-opacity:1;fill-rule:nonzero;stroke:none"
         d="m 9045.75,655.48 h 43.95 V 495.695 h 99.58 V 455.742 H 9045.75 V 655.48" /><path
         id="path54"
         style="fill:#FFFFFF;fill-opacity:1;fill-rule:nonzero;stroke:none"
         d="m 9435.55,555.039 v 0.578 c 0,34.238 -25.11,62.774 -60.49,62.774 -35.38,0 -59.92,-27.969 -59.92,-62.207 v -0.567 c 0,-34.25 25.1,-62.785 60.49,-62.785 35.38,0 59.92,27.969 59.92,62.207 z m -166.35,0 v 0.578 c 0,56.778 44.79,103.289 106.43,103.289 61.63,0 105.85,-45.937 105.85,-102.722 v -0.567 c 0,-56.789 -44.79,-103.301 -106.42,-103.301 -61.63,0 -105.86,45.946 -105.86,102.723" /><path
         id="path56"
         style="fill:#FFFFFF;fill-opacity:1;fill-rule:nonzero;stroke:none"
         d="m 9666.41,554.758 c 21.97,0 34.8,13.125 34.8,30.242 v 0.574 c 0,19.692 -13.69,30.246 -35.66,30.246 h -33.96 v -61.062 z m -78.76,100.722 h 81.61 c 47.64,0 76.47,-28.253 76.47,-69.054 v -0.567 c 0,-46.23 -35.95,-70.195 -80.75,-70.195 h -33.39 v -59.922 h -43.94 V 655.48" /><path
         id="path58"
         style="fill:#FFFFFF;fill-opacity:1;fill-rule:nonzero;stroke:none"
         d="m 9845.33,655.48 h 47.38 l 52.5,-84.464 52.5,84.464 h 47.39 V 455.742 h -43.7 v 130.403 l -56.19,-85.317 h -1.15 l -55.64,84.457 V 455.742 h -43.09 V 655.48" /><path
         id="path60"
         style="fill:#FFFFFF;fill-opacity:1;fill-rule:nonzero;stroke:none"
         d="m 10160.1,655.48 h 150.7 v -39.093 h -107 v -40.52 h 94.1 v -39.09 h -94.1 v -41.941 h 108.4 v -39.094 h -152.1 V 655.48" /><path
         id="path62"
         style="fill:#FFFFFF;fill-opacity:1;fill-rule:nonzero;stroke:none"
         d="m 10418.3,655.48 h 40.6 l 93.6,-122.98 v 122.98 h 43.3 V 455.742 h -37.4 l -96.7,126.973 V 455.742 h -43.4 V 655.48" /><path
         id="path64"
         style="fill:#FFFFFF;fill-opacity:1;fill-rule:nonzero;stroke:none"
         d="m 10757.3,614.961 h -60.7 v 40.519 h 165.5 v -40.519 h -60.8 V 455.742 h -44 v 159.219" /><path
         id="path66"
         style="fill:#FFFFFF;fill-opacity:1;fill-rule:nonzero;stroke:none"
         d="m 5599.17,144.18 v 0.578 c 0,56.773 42.79,103.289 104.14,103.289 37.67,0 60.22,-12.559 78.76,-30.82 L 5754.1,184.98 c -15.4,13.985 -31.09,22.551 -51.07,22.551 -33.67,0 -57.92,-27.968 -57.92,-62.207 v -0.566 c 0,-34.25 23.68,-62.7853 57.92,-62.7853 22.83,0 36.8,9.1328 52.5,23.3983 l 27.97,-28.2421 c -20.55,-21.9726 -43.37,-35.6758 -81.9,-35.6758 -58.78,0 -102.43,45.3711 -102.43,102.7269" /><path
         id="path68"
         style="fill:#FFFFFF;fill-opacity:1;fill-rule:nonzero;stroke:none"
         d="m 6037.47,144.18 v 0.578 c 0,34.234 -25.11,62.773 -60.49,62.773 -35.38,0 -59.92,-27.968 -59.92,-62.207 v -0.566 c 0,-34.25 25.11,-62.7853 60.49,-62.7853 35.38,0 59.92,27.9683 59.92,62.2073 z m -166.35,0 v 0.578 c 0,56.773 44.8,103.289 106.43,103.289 61.63,0 105.86,-45.938 105.86,-102.723 v -0.566 c 0,-56.7892 -44.8,-103.3049 -106.43,-103.3049 -61.64,0 -105.86,45.9492 -105.86,102.7269" /><path
         id="path70"
         style="fill:#FFFFFF;fill-opacity:1;fill-rule:nonzero;stroke:none"
         d="m 6278.03,147.609 c 21.4,0 33.67,11.407 33.67,28.243 v 0.574 c 0,18.828 -13.13,28.535 -34.52,28.535 h -43.66 v -57.352 z m -88.46,97.008 h 91.31 c 25.4,0 45.09,-7.125 58.21,-20.25 11.13,-11.133 17.12,-26.828 17.12,-45.656 v -0.574 c 0,-32.246 -17.4,-52.5 -42.8,-61.914 l 48.8,-71.3402 h -51.37 l -42.79,63.9182 h -34.53 V 44.8828 h -43.95 V 244.617" /><path
         id="path72"
         style="fill:#FFFFFF;fill-opacity:1;fill-rule:nonzero;stroke:none"
         d="m 6541.71,143.898 c 21.97,0 34.8,13.125 34.8,30.243 v 0.578 c 0,19.687 -13.69,30.242 -35.66,30.242 h -33.96 v -61.063 z m -78.76,100.719 h 81.61 c 47.65,0 76.48,-28.25 76.48,-69.051 V 175 c 0,-46.23 -35.96,-70.195 -80.76,-70.195 h -33.39 V 44.8828 h -43.94 V 244.617" /><path
         id="path74"
         style="fill:#FFFFFF;fill-opacity:1;fill-rule:nonzero;stroke:none"
         d="m 6878.14,144.18 v 0.578 c 0,34.234 -25.1,62.773 -60.48,62.773 -35.38,0 -59.93,-27.968 -59.93,-62.207 v -0.566 c 0,-34.25 25.11,-62.7853 60.49,-62.7853 35.38,0 59.92,27.9683 59.92,62.2073 z m -166.34,0 v 0.578 c 0,56.773 44.79,103.289 106.42,103.289 61.63,0 105.86,-45.938 105.86,-102.723 v -0.566 c 0,-56.7892 -44.79,-103.3049 -106.42,-103.3049 -61.63,0 -105.86,45.9492 -105.86,102.7269" /><path
         id="path76"
         style="fill:#FFFFFF;fill-opacity:1;fill-rule:nonzero;stroke:none"
         d="m 7118.7,147.609 c 21.41,0 33.67,11.407 33.67,28.243 v 0.574 c 0,18.828 -13.12,28.535 -34.52,28.535 h -43.66 v -57.352 z m -88.46,97.008 h 91.31 c 25.4,0 45.09,-7.125 58.22,-20.25 11.13,-11.133 17.11,-26.828 17.11,-45.656 v -0.574 c 0,-32.246 -17.4,-52.5 -42.8,-61.914 l 48.8,-71.3402 h -51.37 l -42.79,63.9182 h -34.53 V 44.8828 h -43.95 V 244.617" /><path
         id="path78"
         style="fill:#FFFFFF;fill-opacity:1;fill-rule:nonzero;stroke:none"
         d="m 7418.33,128.488 -26.53,64.774 -26.54,-64.774 z m -46.22,117.559 h 40.52 l 85.6,-201.1642 h -45.94 l -18.27,44.7969 h -84.45 l -18.26,-44.7969 h -44.81 l 85.61,201.1642" /><path
         id="path80"
         style="fill:#FFFFFF;fill-opacity:1;fill-rule:nonzero;stroke:none"
         d="m 7616.95,204.102 h -60.78 v 40.515 h 165.5 V 204.102 H 7660.9 V 44.8828 h -43.95 V 204.102" /><path
         id="path82"
         style="fill:#FFFFFF;fill-opacity:1;fill-rule:nonzero;stroke:none"
         d="m 7824.41,244.617 h 43.95 V 44.8828 h -43.95 V 244.617" /><path
         id="path84"
         style="fill:#FFFFFF;fill-opacity:1;fill-rule:nonzero;stroke:none"
         d="m 8142.86,144.18 v 0.578 c 0,34.234 -25.11,62.773 -60.49,62.773 -35.38,0 -59.92,-27.968 -59.92,-62.207 v -0.566 c 0,-34.25 25.11,-62.7853 60.49,-62.7853 35.38,0 59.92,27.9683 59.92,62.2073 z m -166.35,0 v 0.578 c 0,56.773 44.8,103.289 106.43,103.289 61.63,0 105.86,-45.938 105.86,-102.723 v -0.566 c 0,-56.7892 -44.8,-103.3049 -106.43,-103.3049 -61.64,0 -105.86,45.9492 -105.86,102.7269" /><path
         id="path86"
         style="fill:#FFFFFF;fill-opacity:1;fill-rule:nonzero;stroke:none"
         d="m 8294.96,244.617 h 40.52 l 93.59,-122.976 v 122.976 h 43.37 V 44.8828 h -37.37 L 8338.34,171.855 V 44.8828 h -43.38 V 244.617" /><path
         id="path88"
         style="fill:#FFFFFF;fill-opacity:1;fill-rule:nonzero;stroke:none"
         d="m 8897.64,144.18 v 0.578 c 0,34.234 -25.11,62.773 -60.49,62.773 -35.38,0 -59.92,-27.968 -59.92,-62.207 v -0.566 c 0,-34.25 25.1,-62.7853 60.48,-62.7853 35.39,0 59.93,27.9683 59.93,62.2073 z m -166.35,0 v 0.578 c 0,56.773 44.79,103.289 106.42,103.289 61.64,0 105.86,-45.938 105.86,-102.723 v -0.566 c 0,-56.7892 -44.79,-103.3049 -106.42,-103.3049 -61.63,0 -105.86,45.9492 -105.86,102.7269" /><path
         id="path90"
         style="fill:#FFFFFF;fill-opacity:1;fill-rule:nonzero;stroke:none"
         d="m 9049.74,244.617 h 152.09 V 204.68 h -108.15 v -42.524 h 95.3 v -39.949 h -95.3 V 44.8828 h -43.94 V 244.617" /><path
         id="path92"
         style="fill:#FFFFFF;fill-opacity:1;fill-rule:nonzero;stroke:none"
         d="m 9453.53,130.488 v 114.129 h 43.94 V 131.633 c 0,-32.5314 16.26,-49.3674 43.09,-49.3674 26.81,0 43.08,16.2617 43.08,47.9294 v 114.422 h 43.94 V 131.914 c 0,-60.496 -33.96,-90.164 -87.6,-90.164 -53.64,0 -86.45,29.9609 -86.45,88.738" /><path
         id="path94"
         style="fill:#FFFFFF;fill-opacity:1;fill-rule:nonzero;stroke:none"
         d="m 9785.97,204.102 h -60.78 v 40.515 h 165.49 v -40.515 h -60.77 V 44.8828 h -43.94 V 204.102" /><path
         id="path96"
         style="fill:#FFFFFF;fill-opacity:1;fill-rule:nonzero;stroke:none"
         d="m 10080.4,128.488 -26.5,64.774 -26.5,-64.774 z m -46.2,117.559 h 40.5 l 85.7,-201.1642 h -46 l -18.3,44.7969 h -84.4 l -18.27,-44.7969 h -44.81 l 85.58,201.1642" /><path
         id="path98"
         style="fill:#FFFFFF;fill-opacity:1;fill-rule:nonzero;stroke:none"
         d="m 10258.2,244.617 h 44 v -79.031 h 81 v 79.031 h 44 V 44.8828 h -44 v 80.1762 h -81 V 44.8828 h -44 V 244.617" /><path
         id="path100"
         style="fill:#b6e6df;fill-opacity:1;fill-rule:nonzero;stroke:none"
         d="m 4748.28,608.121 c 0,-23.254 -18.86,-42.105 -42.11,-42.105 -23.26,0 -42.11,18.851 -42.11,42.105 0,23.258 18.85,42.109 42.11,42.109 23.25,0 42.11,-18.851 42.11,-42.109" /><path
         id="path102"
         style="fill:#b5da17;fill-opacity:1;fill-rule:nonzero;stroke:none"
         d="m 4858.56,608.121 c 0,-23.254 -18.86,-42.105 -42.11,-42.105 -23.26,0 -42.11,18.851 -42.11,42.105 0,23.258 18.85,42.109 42.11,42.109 23.25,0 42.11,-18.851 42.11,-42.109" /><path
         id="path104"
         style="fill:#a6a5a6;fill-opacity:1;fill-rule:nonzero;stroke:none"
         d="m 4968.84,608.121 c 0,-23.254 -18.85,-42.105 -42.11,-42.105 -23.26,0 -42.11,18.851 -42.11,42.105 0,23.258 18.85,42.109 42.11,42.109 23.26,0 42.11,-18.851 42.11,-42.109" /><path
         id="path106"
         style="fill:#b6e6df;fill-opacity:1;fill-rule:nonzero;stroke:none"
         d="m 5079.12,608.121 c 0,-23.254 -18.85,-42.105 -42.11,-42.105 -23.26,0 -42.11,18.851 -42.11,42.105 0,23.258 18.85,42.109 42.11,42.109 23.26,0 42.11,-18.851 42.11,-42.109" /><path
         id="path108"
         style="fill:#b5da17;fill-opacity:1;fill-rule:nonzero;stroke:none"
         d="m 5189.4,608.121 c 0,-23.254 -18.85,-42.105 -42.11,-42.105 -23.26,0 -42.11,18.851 -42.11,42.105 0,23.258 18.85,42.109 42.11,42.109 23.26,0 42.11,-18.851 42.11,-42.109" /><path
         id="path110"
         style="fill:#FFFFFF;fill-opacity:1;fill-rule:nonzero;stroke:none"
         d="m 5299.68,608.121 c 0,-23.254 -18.85,-42.105 -42.11,-42.105 -23.26,0 -42.11,18.851 -42.11,42.105 0,23.258 18.85,42.109 42.11,42.109 23.26,0 42.11,-18.851 42.11,-42.109" /><path
         id="path112"
         style="fill:#a6a5a6;fill-opacity:1;fill-rule:nonzero;stroke:none"
         d="m 4748.28,498.281 c 0,-23.258 -18.86,-42.109 -42.11,-42.109 -23.26,0 -42.11,18.851 -42.11,42.109 0,23.254 18.85,42.11 42.11,42.11 23.25,0 42.11,-18.856 42.11,-42.11" /><path
         id="path114"
         style="fill:#f2b82f;fill-opacity:1;fill-rule:nonzero;stroke:none"
         d="m 4858.56,498.281 c 0,-23.258 -18.86,-42.109 -42.11,-42.109 -23.26,0 -42.11,18.851 -42.11,42.109 0,23.254 18.85,42.11 42.11,42.11 23.25,0 42.11,-18.856 42.11,-42.11" /><path
         id="path116"
         style="fill:#FFFFFF;fill-opacity:1;fill-rule:nonzero;stroke:none"
         d="m 4968.84,498.281 c 0,-23.258 -18.85,-42.109 -42.11,-42.109 -23.26,0 -42.11,18.851 -42.11,42.109 0,23.254 18.85,42.11 42.11,42.11 23.26,0 42.11,-18.856 42.11,-42.11" /><path
         id="path118"
         style="fill:#f2b82f;fill-opacity:1;fill-rule:nonzero;stroke:none"
         d="m 5079.12,498.281 c 0,-23.258 -18.85,-42.109 -42.11,-42.109 -23.26,0 -42.11,18.851 -42.11,42.109 0,23.254 18.85,42.11 42.11,42.11 23.26,0 42.11,-18.856 42.11,-42.11" /><path
         id="path120"
         style="fill:#b6e6df;fill-opacity:1;fill-rule:nonzero;stroke:none"
         d="m 5189.4,498.281 c 0,-23.258 -18.85,-42.109 -42.11,-42.109 -23.26,0 -42.11,18.851 -42.11,42.109 0,23.254 18.85,42.11 42.11,42.11 23.26,0 42.11,-18.856 42.11,-42.11" /><path
         id="path122"
         style="fill:#a6a5a6;fill-opacity:1;fill-rule:nonzero;stroke:none"
         d="m 5299.68,498.281 c 0,-23.258 -18.85,-42.109 -42.11,-42.109 -23.26,0 -42.11,18.851 -42.11,42.109 0,23.254 18.85,42.11 42.11,42.11 23.26,0 42.11,-18.856 42.11,-42.11" /><path
         id="path124"
         style="fill:#b5da17;fill-opacity:1;fill-rule:nonzero;stroke:none"
         d="m 4748.28,827.805 c 0,-23.258 -18.86,-42.11 -42.11,-42.11 -23.26,0 -42.11,18.852 -42.11,42.11 0,23.254 18.85,42.109 42.11,42.109 23.25,0 42.11,-18.855 42.11,-42.109" /><path
         id="path126"
         style="fill:#b6e6df;fill-opacity:1;fill-rule:nonzero;stroke:none"
         d="m 4858.56,827.805 c 0,-23.258 -18.86,-42.11 -42.11,-42.11 -23.26,0 -42.11,18.852 -42.11,42.11 0,23.254 18.85,42.109 42.11,42.109 23.25,0 42.11,-18.855 42.11,-42.109" /><path
         id="path128"
         style="fill:#FFFFFF;fill-opacity:1;fill-rule:nonzero;stroke:none"
         d="m 4968.84,827.805 c 0,-23.258 -18.85,-42.11 -42.11,-42.11 -23.26,0 -42.11,18.852 -42.11,42.11 0,23.254 18.85,42.109 42.11,42.109 23.26,0 42.11,-18.855 42.11,-42.109" /><path
         id="path130"
         style="fill:#FFFFFF;fill-opacity:1;fill-rule:nonzero;stroke:none"
         d="m 4748.28,717.965 c 0,-23.258 -18.86,-42.11 -42.11,-42.11 -23.26,0 -42.11,18.852 -42.11,42.11 0,23.254 18.85,42.105 42.11,42.105 23.25,0 42.11,-18.851 42.11,-42.105" /><path
         id="path132"
         style="fill:#a6a5a6;fill-opacity:1;fill-rule:nonzero;stroke:none"
         d="m 4858.56,717.965 c 0,-23.258 -18.86,-42.11 -42.11,-42.11 -23.26,0 -42.11,18.852 -42.11,42.11 0,23.254 18.85,42.105 42.11,42.105 23.25,0 42.11,-18.851 42.11,-42.105" /><path
         id="path134"
         style="fill:#a6a5a6;fill-opacity:1;fill-rule:nonzero;stroke:none"
         d="m 4968.84,717.965 c 0,-23.258 -18.85,-42.11 -42.11,-42.11 -23.26,0 -42.11,18.852 -42.11,42.11 0,23.254 18.85,42.105 42.11,42.105 23.26,0 42.11,-18.851 42.11,-42.105" /><path
         id="path136"
         style="fill:#FFFFFF;fill-opacity:1;fill-rule:nonzero;stroke:none"
         d="m 4748.28,388.441 c 0,-23.257 -18.86,-42.109 -42.11,-42.109 -23.26,0 -42.11,18.852 -42.11,42.109 0,23.254 18.85,42.11 42.11,42.11 23.25,0 42.11,-18.856 42.11,-42.11" /><path
         id="path138"
         style="fill:#a6a5a6;fill-opacity:1;fill-rule:nonzero;stroke:none"
         d="m 4858.56,388.441 c 0,-23.257 -18.86,-42.109 -42.11,-42.109 -23.26,0 -42.11,18.852 -42.11,42.109 0,23.254 18.85,42.11 42.11,42.11 23.25,0 42.11,-18.856 42.11,-42.11" /><path
         id="path140"
         style="fill:#b6e6df;fill-opacity:1;fill-rule:nonzero;stroke:none"
         d="m 4968.84,388.441 c 0,-23.257 -18.85,-42.109 -42.11,-42.109 -23.26,0 -42.11,18.852 -42.11,42.109 0,23.254 18.85,42.11 42.11,42.11 23.26,0 42.11,-18.856 42.11,-42.11" /><path
         id="path142"
         style="fill:#FFFFFF;fill-opacity:1;fill-rule:nonzero;stroke:none"
         d="m 5079.12,388.441 c 0,-23.257 -18.85,-42.109 -42.11,-42.109 -23.26,0 -42.11,18.852 -42.11,42.109 0,23.254 18.85,42.11 42.11,42.11 23.26,0 42.11,-18.856 42.11,-42.11" /><path
         id="path144"
         style="fill:#a6a5a6;fill-opacity:1;fill-rule:nonzero;stroke:none"
         d="m 5189.4,388.441 c 0,-23.257 -18.85,-42.109 -42.11,-42.109 -23.26,0 -42.11,18.852 -42.11,42.109 0,23.254 18.85,42.11 42.11,42.11 23.26,0 42.11,-18.856 42.11,-42.11" /><path
         id="path146"
         style="fill:#FFFFFF;fill-opacity:1;fill-rule:nonzero;stroke:none"
         d="m 5299.68,388.441 c 0,-23.257 -18.85,-42.109 -42.11,-42.109 -23.26,0 -42.11,18.852 -42.11,42.109 0,23.254 18.85,42.11 42.11,42.11 23.26,0 42.11,-18.856 42.11,-42.11" /><path
         id="path148"
         style="fill:#f2b82f;fill-opacity:1;fill-rule:nonzero;stroke:none"
         d="m 4748.28,278.598 c 0,-23.254 -18.86,-42.11 -42.11,-42.11 -23.26,0 -42.11,18.856 -42.11,42.11 0,23.257 18.85,42.109 42.11,42.109 23.25,0 42.11,-18.852 42.11,-42.109" /><path
         id="path150"
         style="fill:#f2b82f;fill-opacity:1;fill-rule:nonzero;stroke:none"
         d="m 4858.56,278.598 c 0,-23.254 -18.86,-42.11 -42.11,-42.11 -23.26,0 -42.11,18.856 -42.11,42.11 0,23.257 18.85,42.109 42.11,42.109 23.25,0 42.11,-18.852 42.11,-42.109" /><path
         id="path152"
         style="fill:#a6a5a6;fill-opacity:1;fill-rule:nonzero;stroke:none"
         d="m 4968.84,278.598 c 0,-23.254 -18.85,-42.11 -42.11,-42.11 -23.26,0 -42.11,18.856 -42.11,42.11 0,23.257 18.85,42.109 42.11,42.109 23.26,0 42.11,-18.852 42.11,-42.109" /><path
         id="path154"
         style="fill:#FFFFFF;fill-opacity:1;fill-rule:nonzero;stroke:none"
         d="m 5079.12,278.598 c 0,-23.254 -18.85,-42.11 -42.11,-42.11 -23.26,0 -42.11,18.856 -42.11,42.11 0,23.257 18.85,42.109 42.11,42.109 23.26,0 42.11,-18.852 42.11,-42.109" /><path
         id="path156"
         style="fill:#b5da17;fill-opacity:1;fill-rule:nonzero;stroke:none"
         d="m 5189.4,278.598 c 0,-23.254 -18.85,-42.11 -42.11,-42.11 -23.26,0 -42.11,18.856 -42.11,42.11 0,23.257 18.85,42.109 42.11,42.109 23.26,0 42.11,-18.852 42.11,-42.109" /><path
         id="path158"
         style="fill:#b6e6df;fill-opacity:1;fill-rule:nonzero;stroke:none"
         d="m 5299.68,278.598 c 0,-23.254 -18.85,-42.11 -42.11,-42.11 -23.26,0 -42.11,18.856 -42.11,42.11 0,23.257 18.85,42.109 42.11,42.109 23.26,0 42.11,-18.852 42.11,-42.109" /><path
         id="path160"
         style="fill:#b6e6df;fill-opacity:1;fill-rule:nonzero;stroke:none"
         d="m 4748.28,168.758 c 0,-23.254 -18.86,-42.11 -42.11,-42.11 -23.26,0 -42.11,18.856 -42.11,42.11 0,23.258 18.85,42.109 42.11,42.109 23.25,0 42.11,-18.851 42.11,-42.109" /><path
         id="path162"
         style="fill:#FFFFFF;fill-opacity:1;fill-rule:nonzero;stroke:none"
         d="m 4858.56,168.758 c 0,-23.254 -18.86,-42.11 -42.11,-42.11 -23.26,0 -42.11,18.856 -42.11,42.11 0,23.258 18.85,42.109 42.11,42.109 23.25,0 42.11,-18.851 42.11,-42.109" /><path
         id="path164"
         style="fill:#a6a5a6;fill-opacity:1;fill-rule:nonzero;stroke:none"
         d="m 4968.84,168.758 c 0,-23.254 -18.85,-42.11 -42.11,-42.11 -23.26,0 -42.11,18.856 -42.11,42.11 0,23.258 18.85,42.109 42.11,42.109 23.26,0 42.11,-18.851 42.11,-42.109" /><path
         id="path166"
         style="fill:#f2b82f;fill-opacity:1;fill-rule:nonzero;stroke:none"
         d="m 5079.12,168.758 c 0,-23.254 -18.85,-42.11 -42.11,-42.11 -23.26,0 -42.11,18.856 -42.11,42.11 0,23.258 18.85,42.109 42.11,42.109 23.26,0 42.11,-18.851 42.11,-42.109" /><path
         id="path168"
         style="fill:#a6a5a6;fill-opacity:1;fill-rule:nonzero;stroke:none"
         d="m 5189.4,168.758 c 0,-23.254 -18.85,-42.11 -42.11,-42.11 -23.26,0 -42.11,18.856 -42.11,42.11 0,23.258 18.85,42.109 42.11,42.109 23.26,0 42.11,-18.851 42.11,-42.109" /><path
         id="path170"
         style="fill:#FFFFFF;fill-opacity:1;fill-rule:nonzero;stroke:none"
         d="m 5299.68,168.758 c 0,-23.254 -18.85,-42.11 -42.11,-42.11 -23.26,0 -42.11,18.856 -42.11,42.11 0,23.258 18.85,42.109 42.11,42.109 23.26,0 42.11,-18.851 42.11,-42.109" /><path
         id="path172"
         style="fill:#FFFFFF;fill-opacity:1;fill-rule:nonzero;stroke:none"
         d="m 4748.28,58.918 c 0,-23.2578 -18.86,-42.1094 -42.11,-42.1094 -23.26,0 -42.11,18.8516 -42.11,42.1094 0,23.2539 18.85,42.109 42.11,42.109 23.25,0 42.11,-18.8551 42.11,-42.109" /><path
         id="path174"
         style="fill:#b5da17;fill-opacity:1;fill-rule:nonzero;stroke:none"
         d="m 4858.56,58.918 c 0,-23.2578 -18.86,-42.1094 -42.11,-42.1094 -23.26,0 -42.11,18.8516 -42.11,42.1094 0,23.2539 18.85,42.109 42.11,42.109 23.25,0 42.11,-18.8551 42.11,-42.109" /><path
         id="path176"
         style="fill:#FFFFFF;fill-opacity:1;fill-rule:nonzero;stroke:none"
         d="m 4968.84,58.918 c 0,-23.2578 -18.85,-42.1094 -42.11,-42.1094 -23.26,0 -42.11,18.8516 -42.11,42.1094 0,23.2539 18.85,42.109 42.11,42.109 23.26,0 42.11,-18.8551 42.11,-42.109" /><path
         id="path178"
         style="fill:#b6e6df;fill-opacity:1;fill-rule:nonzero;stroke:none"
         d="m 5079.12,58.918 c 0,-23.2578 -18.85,-42.1094 -42.11,-42.1094 -23.26,0 -42.11,18.8516 -42.11,42.1094 0,23.2539 18.85,42.109 42.11,42.109 23.26,0 42.11,-18.8551 42.11,-42.109" /><path
         id="path180"
         style="fill:#FFFFFF;fill-opacity:1;fill-rule:nonzero;stroke:none"
         d="m 5189.4,58.918 c 0,-23.2578 -18.85,-42.1094 -42.11,-42.1094 -23.26,0 -42.11,18.8516 -42.11,42.1094 0,23.2539 18.85,42.109 42.11,42.109 23.26,0 42.11,-18.8551 42.11,-42.109" /><path
         id="path182"
         style="fill:#f2b82f;fill-opacity:1;fill-rule:nonzero;stroke:none"
         d="m 5299.68,58.918 c 0,-23.2578 -18.85,-42.1094 -42.11,-42.1094 -23.26,0 -42.11,18.8516 -42.11,42.1094 0,23.2539 18.85,42.109 42.11,42.109 23.26,0 42.11,-18.8551 42.11,-42.109" /></g></g></svg>
