<?xml version="1.0" encoding="utf-8"?>
<svg version="1.1" x="0px" y="0px" viewBox="0 0 65 50" enable-background="new 0 0 65 50" xmlns="http://www.w3.org/2000/svg">
  <g>
    <g id="Layer_1"/>
    <g id="Lifestyle-Ski_Resorts"/>
    <g id="Original_Layers_Black"/>
    <g id="Lifestyle-Skiing"/>
    <g id="Lifestyle-Hiking"/>
    <g id="Lifestyle-Golfing"/>
    <g id="Lifestyle-Boating-Lakes"/>
    <g id="Lifestyle-Parks"/>
    <g id="Transportation-Lightrail"/>
    <g id="_x32_4x35_Yellow_Transportation-Lightrail"/>
    <g id="Transportation-Airports"/>
    <g id="_x32_4x35_Yellow_Transportation_Airports"/>
    <g id="Transportation-Roads"/>
    <g id="Education-Universities"/>
    <g id="Small_Icons"/>
    <g id="Large_Icons"/>
    <g id="Test"/>
    <g id="header_gradient"/>
    <g id="white_icons_for_nav" display="none">
      <g id="bg" display="inline"/>
      <g id="demographics" display="inline"/>
      <g id="lifestyle" display="inline"/>
      <g id="transportation" display="inline"/>
      <g id="utilities" display="inline"/>
    </g>
    <g id="Broadband_Logo">
      <g id="Layer_24"/>
    </g>
    <g id="Icon_on_Map"/>
    <g id="sure_site_header">
      <linearGradient id="SVGID_2_" gradientUnits="userSpaceOnUse" x1="82.2717" y1="86" x2="82.2717" y2="-36">
        <stop offset="0.0122" style="stop-color:#E3E6E8"/>
        <stop offset="0.5184" style="stop-color:#F2F3F4"/>
        <stop offset="0.6815" style="stop-color:#ECECED"/>
        <stop offset="0.9108" style="stop-color:#DADBDB"/>
        <stop offset="1" style="stop-color:#D1D2D3"/>
      </linearGradient>
      <rect x="-119" y="-36" display="none" fill="url(#SVGID_2_)" width="402.6" height="122"/>
      <g id="solid_bg" display="none">
        <rect x="-23.7" y="-36" display="inline" fill="#BCBEC0" width="225" height="121.7"/>
      </g>
      <g id="current_summary"/>
      <g>
        <path fill="#FFFFFF" d="M10.2,11.5c-0.5-0.6-1.5-0.9-2.2-0.9c-0.9,0-2.1,0.4-2.1,1.4c0,2.5,6.4,0.9,6.4,5.8 c0,3.1-2.5,4.6-5.3,4.6c-1.8,0-3.4-0.5-4.7-1.7l2.2-2.4c0.6,0.8,1.6,1.3,2.7,1.3c1,0,2.1-0.5,2.1-1.4c0-2.5-6.5-1.2-6.5-5.8 c0-3,2.6-4.5,5.3-4.5c1.6,0,3.1,0.4,4.3,1.5L10.2,11.5z"/>
        <path d="M32.2,15.5c0,4.5-2.7,7.8-8,7.8c-5.3,0-8-3.3-8-7.8V0h4.2v15.3c0,2.3,1.6,4.1,3.8,4.1 c2.2,0,3.8-1.8,3.8-4.1V0h4.2V15.5z" style="fill: rgb(255, 255, 255);"/>
        <path fill="#FFFFFF" d="M36.7,8.1h5.4c2.8,0,5.2,1,5.2,4.2c0,1.9-1,3.4-3,3.8l3.5,5.9h-3.7l-2.9-5.5h-1.5V22h-3.1V8.1z M39.8,13.9h1.8c1.1,0,2.6,0,2.6-1.5c0-1.4-1.3-1.6-2.4-1.6h-2V13.9z"/>
        <path fill="#FFFFFF" d="M52.4,8.1h9.4v2.8h-6.4v2.6h6v2.8h-6v2.8h6.7V22h-9.8V8.1z"/>
        <path fill="#FFFFFF" d="M7.9,30.4c-0.5-0.6-1.5-0.9-2.2-0.9c-0.9,0-2.1,0.4-2.1,1.4c0,2.5,6.4,0.9,6.4,5.8 c0,3.1-2.5,4.6-5.3,4.6c-1.8,0-3.3-0.5-4.7-1.7l2.2-2.4c0.6,0.8,1.6,1.3,2.7,1.3c1,0,2.1-0.5,2.1-1.5c0-2.5-6.5-1.2-6.5-5.8 c0-3,2.6-4.5,5.3-4.5c1.6,0,3.1,0.4,4.3,1.4L7.9,30.4z"/>
        <path fill="#FFFFFF" d="M14,27H17v13.9H14V27z"/>
        <path d="M27,30.7h-5.6V27h15.5v3.7h-5.6V50H27V30.7z" style="fill: rgb(255, 255, 255);"/>
        <path fill="#FFFFFF" d="M41.2,27h9.4v2.8h-6.4v2.6h6v2.8h-6V38h6.7v2.8h-9.8V27z"/>
        <path fill="#FFFFFF" d="M62.7,30.4c-0.5-0.6-1.5-0.9-2.2-0.9c-0.9,0-2.1,0.4-2.1,1.4c0,2.5,6.4,0.9,6.4,5.8 c0,3.1-2.5,4.6-5.3,4.6c-1.8,0-3.4-0.5-4.7-1.7l2.2-2.4c0.6,0.8,1.6,1.3,2.7,1.3c1,0,2.1-0.5,2.1-1.5c0-2.5-6.5-1.2-6.5-5.8 c0-3,2.6-4.5,5.3-4.5c1.6,0,3.1,0.4,4.3,1.4L62.7,30.4z"/>
      </g>
      <g id="sure_site_bkup"/>
    </g>
  </g>
</svg>